/* XPM */
static char *_3cd044e814b4071b03b0787a745ce31A6iw9JodogmNmjHG[] = {
/* columns rows colors chars-per-pixel */
"64 50 140 2 ",
"   c #010101",
".  c #090807",
"X  c #0B0B0A",
"o  c #151515",
"O  c #1A1917",
"+  c #1D1D1D",
"@  c #22211F",
"#  c #242424",
"$  c #282625",
"%  c #2B2B2B",
"&  c #343434",
"*  c #3B3B3B",
"=  c #42413F",
"-  c #434343",
";  c #40454B",
":  c #4A4A4A",
">  c #535352",
",  c #5D5D5D",
"<  c #5E636B",
"1  c #646464",
"2  c #686765",
"3  c #61666E",
"4  c #6C6C6C",
"5  c #72716F",
"6  c #737373",
"7  c #7B7B7B",
"8  c #FDB64B",
"9  c #FFB84D",
"0  c #FFBA52",
"q  c #FFBD5A",
"w  c #FFC56E",
"e  c #FFCB7D",
"r  c #7A7D82",
"t  c #848484",
"y  c #8D8D8D",
"u  c #8C8F93",
"i  c #8E939A",
"p  c #939393",
"a  c #92969D",
"s  c #9C9C9C",
"d  c #A1A19F",
"f  c #A4A4A4",
"g  c #ABABAB",
"h  c #B0AFAE",
"j  c #A6AAB1",
"k  c #A8ADB5",
"l  c #AFB0B0",
"z  c #B4B4B4",
"x  c #BBBBBB",
"c  c #FFCD82",
"v  c #FFD78C",
"b  c #FFD98F",
"n  c #E6C492",
"m  c #ECC997",
"M  c #EFCE9B",
"N  c #F0CD9A",
"B  c #FFDF95",
"V  c #FFD89D",
"C  c #FAD9A6",
"Z  c #FFDDAB",
"A  c #FCDEB1",
"S  c #FEE2B4",
"D  c #FFE8B6",
"F  c #FFE7BA",
"G  c #FFECBA",
"H  c #BFC3CA",
"J  c gray76",
"K  c #C1C1C1",
"L  c #C6C7C7",
"P  c gray78",
"I  c #C4C4C4",
"U  c #C8C8C8",
"Y  c gray79",
"T  c #CBCAC8",
"R  c gray80",
"E  c #CFCECC",
"W  c #CECECE",
"Q  c #CFCFCE",
"!  c #CCCCCC",
"~  c #D2D1CF",
"^  c #C9CDD1",
"/  c gray82",
"(  c gray84",
")  c #D2D2D1",
"_  c #DBDBDB",
"`  c #DADEE6",
"'  c #DFE4EB",
"]  c #E1E1E1",
"[  c gray89",
"{  c gray90",
"}  c #E6E6E6",
"|  c #E7E7E7",
" . c #E2E2E2",
".. c #E8E7E5",
"X. c #E8E7E6",
"o. c #E8E6E5",
"O. c gray91",
"+. c #E9E9E9",
"@. c #EAEAEA",
"#. c gray92",
"$. c #ECECEC",
"%. c gray93",
"&. c #EEEEEE",
"*. c #EFEFEF",
"=. c #ECECEC",
"-. c #E5EAF1",
";. c #EFF0F1",
":. c #EDF2F9",
">. c gray94",
",. c #F1F1F1",
"<. c #F0F2F3",
"1. c #F1F2F3",
"2. c #F0F2F5",
"3. c #F6F6F6",
"4. c #F4F4F4",
"5. c #FAF9F7",
"6. c #F9F8F6",
"7. c #F2F7FF",
"8. c #F5FAFF",
"9. c #FBFAF8",
"0. c gray98",
"q. c #FBFBFB",
"w. c #F8F8F8",
"e. c #FDFCFA",
"r. c #FDFCFB",
"t. c #FEFDFB",
"y. c #FEFCF8",
"u. c gray99",
"i. c #FCFDFD",
"p. c #FDFDFD",
"a. c #FEFDFC",
"s. c #FFFDFC",
"d. c #FFFEFC",
"f. c #FDFDFE",
"g. c #FDFFFF",
"h. c #FEFEFE",
"j. c #FEFEFF",
"k. c #FEFFFF",
"l. c white",
"z. c #FEFEFE",
/* pixels */
"q q q q q q q q q q q q q q q q q q q q q q q q q q q q q q q q q q q q q q q q q q q q q q q q q q q q q q q q q q q q q q 0 c ",
"q q q q q q q q q q q q q q q q q q q q q q q q q q q q q q q q q q q q q q q q q q q q q q q q q q q q q q q q q q q q q q 0 c ",
"q q q q q q q q q q q q q q q q q q q q q q q q q q q q q q q q q q q q q q q q q q q q q q q q q q q q q q q q q q q q q q 0 c ",
"q q q q q q q q q q q q q q q q q q q q q q q q q q q q q q q q q q q q q q q q q q q q q q q q q q q q q q q q q q q q q q 0 c ",
"q q q q q q 0 9 8 8 8 9 9 9 8 8 8 9 0 9 8 9 8 9 0 9 9 8 8 8 8 9 9 9 9 9 9 9 8 9 9 9 9 9 9 9 9 9 9 9 9 9 9 9 9 9 0 q q q q q 0 c ",
"q q q q q 0 w Z D G S N M Z S G D C n Z D Z D C m Z Z G Z S D Z Z Z Z Z Z Z Z Z Z Z Z Z Z Z Z Z Z Z Z Z Z Z Z A c 0 q q q q 0 c ",
"q q q q q 0 c l.j 3 2.u r l.^ < H <.; ;.a <.j k < l.l.i < 3 H l.l.l.l.l.l.l.l.l.l.l.l.l.l.l.l.l.l.l.l.l.l.l.l.l.S 9 q q q q 0 c ",
"q q q q q 0 v Q - 7 4 t 6 l.= t - Q * ..% h - p > l.p > 5.T & ..l.r.r.r.r.l.l.r.r.r.r.r.r.r.r.r.l.l.r.r.r.r.r.l.S 9 q q q q 0 c ",
"q q q q q 8 B s 7 l.: 7 # z : l.2 f - #.& 4 * f o g f - [ z & #.l.l.l.l.l.l.l.l.l.l.l.l.l.l.l.l.l.l.l.l.l.l.r.l.S 9 q q q q 0 c ",
"q q q q q 0 b L : p 1 t 4 l.* f - T - #.& L : p > <.l.x & , [ l.l.l.l.l.l.l.l.l.l.l.l.l.l.l.l.l.l.l.l.l.l.l.r.l.S 9 q q q q 0 c ",
"q q q q q 0 c l.p : { t 6 l.x : g *.& <.7 , 6 g > l.s g * 4 f x l.l.l.l.l.l.l.l.l.l.l.l.l.l.l.l.l.l.l.l.l.l.l.l.S 9 q q q q 0 c ",
"q q q q q 0 c l.l.q.l.t 7 l.q.l.l.{ * 3.l.l.l.K , l.s p s s y K l.l.l.l.l.l.q.q.q.q.q.l.l.l.l.l.l.l.l.l.l.l.l.l.S 9 q q q q 0 c ",
"q q q q q 0 c l.l.l.l.*.*.l.l.l.l.q.[ l.l.l.l.3.#.l.l.l.l.l.l.l.l.l.l.l.l.l.l.l.l.l.l.l.l.l.{ g x *.l.l.l.l.r.l.S 9 q q q q 0 c ",
"q q q q q 0 c l.l.l.l.l.l.l.l.l.l.l.l.l.l.l.l.l.l.l.q.q.q.q.q.l.l.l.l.l._ z f p p p s f Q L %     & ( l.q.l.r.l.S 9 q q q q 0 c ",
"q q q q q 0 c l.l.l.l.l.l.l.l.l.l.l.l.l.l.l.l.l.l.l.l.l.l.l.l.l.l.<.f 7 4 7 s x Q T z y 6 *     .   - l.l.l.l.l.S 9 q q q q 0 c ",
"q q q q q 0 c l.l.l.l.l.l.l.l.l.l.l.l.l.l.l.l.l.l.l.l.l.l.l.q.l.L 1 t / l.l.l.l.l.l.l.l.l.*.s %     X { l.l.r.l.S 9 q q q q 0 c ",
"q q q q q 0 c l.l.l.l.l.l.l.l.l.l.l.l.l.q.l.l.l.q.l.l.l.l.q.l.z - _ l.l.l.q.q.l.l.l.l.q.q.l.l.*.4   % 3.l.l.r.l.S 9 q q q q 0 c ",
"q q q q q 0 c l.l.l.l.l.l.l.l.l.l.l.l.l.l.l.q.l.l.l.l.l.l.l.y X X K l.q.l.l.l.l.l.l.l.l.l.l.q.l.l.4 > l.q.l.r.l.S 9 q q q q 0 c ",
"q q q q q 0 c l.l.l.l.l.l.l.l.l.l.3.q.l.f : * : p *.l.l.K *   .   & q.l.l.l.l.l.l.l.l.l.l.l.l.q.l.l.6 z l.q.r.l.S 9 q q q q 0 c ",
"q q q q q 0 c l.l.l.l.l.l.q.l.[ 4 % & > .         * x , .           f l.q.l.l.l.l.l.l.l.l.l.l.l.q.l.[ , *.l.r.l.S 9 q q q q 0 c ",
"q q q q q 0 c l.l.l.l.l.l.l.*.#   X % .             .               > l.l.l.l.l.l.l.l.l.l.l.l.l.l.q.l.s y l.q.l.S 9 q q q q 0 c ",
"q q q q q 0 c l.l.l.l.q.l.l.6 & p _ q.&               .             o { l.l.l.l.l.l.l.l.l.l.l.l.l.q.l.3., { l.l.S 9 q q q q 0 c ",
"q q q q q 0 c l.l.l.q.l.*.1 y q.l.l.l.,         .   2 O               K l.q.l.l.l.l.l.l.l.l.q.l.l.l.l.l.t g l.u.S 9 q q q q 0 c ",
"q q q q q 0 c l.l.l.l.3., z l.l.l.l.l.#.>         # 3.,               f l.q.l.l.l.l.l.l.l.l.l.*.L g L u._ 7 l.l.S 9 q q q q 0 c ",
"q q q q q 0 c l.l.q.l.t p l.q.l.l.l.l.l.q.x p t y Q l.s               p l.q.l.l.l.l.l.l.l.*.6 # .     # p 2 ..l.S 9 q q q q 0 c ",
"q q q q q 0 c l.l.l./ , l.l.q.q.q.l.l.l.l.l.l.l.l.q.l.x               p l.q.l.l.l.l.l.l.#.*             . + ( l.A 9 q q q q 0 c ",
"q q q q q 0 c l.q.l.p f l.q.l.l.l.l.l.l.l.l.q.q.q.q.l.Q .             y l.q.l.l.l.l.q.l.t   .               h l.A 9 q q q q 0 c ",
"q q q q q 0 c l.l.r.4 #.l.3.f t z q.l.l.l.l.l.l.l.l.l._ .             p l.q.l.l.l.l.l.3.%               .   5 l.A 9 q q q q 0 c ",
"q q q q q 0 c l.l.[ 1 q.l.2       > #.l.l.l.l.l.l.l.l.[ X             f l.l.l.l.l.l.l.( .                   * l.S 9 q q q q 0 c ",
"q q q q q 0 c l.l._ 4 l.x           - *.l.l.l.l.l.l.l.[ X             z l.q.l.l.l.q.l.z                     @ 7.S 9 q q q q 0 c ",
"q q q q q 0 c l.#.d 4 l.4         .   7 l.q.l.l.l.u.l._ .           . Q l.l.l.l.l.q.l.s                     o -.F 8 q q q q 0 c ",
"q q q q q 9 v z o   * l.-             o _ l.l.l.l.l.l.( .           # 3.l.l.q.l.l.q.l.y                     X ` F 8 q q q q 0 c ",
"q q q q q 8 B 6     + 3.-               z l.l.l.l.l.l.T             + z <.l.l.l.l.q.l.y                     . ` G 8 q q q q 0 c ",
"q q q q q 8 b l     > l.2   .           z l.q.l.l.q.l.x                 # : p *.l.q.l.p                     X ' F 8 q q q q 0 c ",
"q q q q q 0 c l.: > { l.L X           + #.l.l.l.l.q.l.f                       * [ l.l.g                     O :.D 9 q q q q 0 c ",
"q q q q q 0 c l.t z l.q.l.z &       o z l.l.l.l.l.q.l.p                     .   : l.l.T                     $ 8.S 9 q q q q 0 c ",
"q q q q q 0 c l./ 4 l.q.l.l.q.L f f _ l.q.l.l.l.l.q.l.6                           x l.3.%                   = l.S 9 q q q q 0 c ",
"q q q q q 0 c l.l.4 x l.q.q.l.l.l.l.l.l.l.l.l.l.l.l.l.:                           s l.x &               .   2 l.A 9 q q q q 0 c ",
"q q q q q 0 c l.l.[ > x l.l.l.l.q.q.q.q.q.q.q.q.l.l.3.#   .                       % #                   .   d l.A 9 q q q q 0 c ",
"q q q q q 0 c l.q.l.K - 4 f / *.l.l.l.l.l.l.l.l.l.q.K .                     .   o % o # +                 X ~ l.A 9 q q q q 0 c ",
"q q q q q 0 c l.l.l.l.3.x t 4 4 7 t y y y y t 6 2 - & * * & & * o             X , t 6 7 6 % o o # & - , 6 g 4.l.S 9 q q q q 0 c ",
"q q q q q 0 c l.l.l.q.l.l.l.l.<.[ / K z g f f f f g z x z z z g f 6 > & % - 4 s z g z x x L T / _ *.l.l.l.l.r.l.S 9 q q q q 0 c ",
"q q q q q 0 c l.l.r.l.l.r.q.9.l.l.l.l.l.l.l.l.l.l.l.l.l.l.l.l.l.l.l.l.5.<.r.l.l.l.l.l.l.l.l.l.l.l.l.l.9.q.9.r.l.S 9 q q q q 0 c ",
"q q q q q 0 c l.l.l.l.l.l.l.l.l.l.l.l.l.l.l.l.l.l.l.l.l.l.l.l.l.l.l.l.l.l.l.l.l.l.l.l.l.l.l.l.l.l.l.l.l.l.l.l.l.S 9 q q q q 0 c ",
"q q q q q 0 w Z Z Z Z Z Z Z Z Z Z Z Z Z Z Z Z Z Z Z Z Z Z Z Z Z Z Z Z Z Z Z Z Z Z Z Z Z Z Z Z Z Z Z Z Z Z Z Z A c 0 q q q q 0 c ",
"q q q q q q 0 9 9 9 9 9 9 9 9 9 9 9 9 9 9 9 9 9 9 9 9 9 9 9 9 9 9 9 9 9 9 9 9 9 9 9 9 9 9 9 9 9 9 9 9 9 9 9 9 9 0 q q q q q 0 c ",
"q q q q q q q q q q q q q q q q q q q q q q q q q q q q q q q q q q q q q q q q q q q q q q q q q q q q q q q q q q q q q q 0 c ",
"q q q q q q q q q q q q q q q q q q q q q q q q q q q q q q q q q q q q q q q q q q q q q q q q q q q q q q q q q q q q q q 0 c ",
"0 0 0 0 0 0 0 0 0 0 0 0 0 0 0 0 0 0 0 0 0 0 0 0 0 0 0 0 0 0 0 0 0 0 0 0 0 0 0 0 0 0 0 0 0 0 0 0 0 0 0 0 0 0 0 0 0 0 0 0 0 0 9 e ",
"e e e e e e e e e e e e e e e e e e e e e e e e e e e e e e e e e e e e e e e e e e e e e e e e e e e e e e e e e e e e e e e V "
};
