/* XPM */
static char *b4398cfb936a409baa3dbcde52d100eaovzJ5zFMm87hEV1o[] = {
/* columns rows colors chars-per-pixel */
"64 50 200 2 ",
"   c #100E0F",
".  c #0D110F",
"X  c #010512",
"o  c #0A0F17",
"O  c #0A0F19",
"+  c #0E1016",
"@  c #0E1218",
"#  c #141518",
"$  c #16191C",
"%  c #1B1B19",
"&  c #171414",
"*  c #22190C",
"=  c #211D17",
"-  c #211E18",
";  c #2C251A",
":  c #2D291B",
">  c #2A2113",
",  c #332612",
"<  c #332D1C",
"1  c #3D331E",
"2  c #1A1C20",
"3  c #3F3720",
"4  c #4C391A",
"5  c #553F1D",
"6  c #443B22",
"7  c #483A23",
"8  c #58411F",
"9  c #594928",
"0  c #644B23",
"q  c #6A4E25",
"w  c #6E5226",
"e  c #6A552B",
"r  c #685C2E",
"t  c #775A2A",
"y  c #7B5B2B",
"u  c #705327",
"i  c #7B5F31",
"p  c #786834",
"a  c #9E7C18",
"s  c #81602F",
"d  c #8B7121",
"f  c #997729",
"g  c #8C6731",
"h  c #806D37",
"j  c #8A6B33",
"k  c #846230",
"l  c #936D33",
"z  c #8D7A3A",
"x  c #8A7734",
"c  c #9C7436",
"v  c #937D34",
"b  c #94773A",
"n  c #9E7538",
"m  c #927D3C",
"M  c #9C7A3B",
"N  c #A37E22",
"B  c #A27D2F",
"V  c #A47B3A",
"C  c #A97D3B",
"Z  c #A77D35",
"A  c #9B8233",
"S  c #95813C",
"D  c #9B833C",
"F  c #9E893A",
"G  c #A78329",
"H  c #B78E24",
"J  c #A4823B",
"K  c #AB833D",
"L  c #A28A3E",
"P  c #AB8C3F",
"I  c #A28635",
"U  c #B3853E",
"Y  c #B18A3F",
"T  c #BC8B3D",
"R  c #A8913F",
"E  c #B99735",
"W  c #C3903E",
"Q  c #C9973F",
"!  c #CDA22B",
"~  c #D7A927",
"^  c #DAB23D",
"/  c #C9A339",
"(  c #EFBB2E",
")  c #E7BA31",
"_  c #FFD03B",
"`  c #FAC839",
"'  c #AE8241",
"]  c #A68C42",
"[  c #A98C41",
"{  c #A18E4F",
"}  c #B18541",
"|  c #B48C42",
" . c #BD8C42",
".. c #AD9341",
"X. c #B39643",
"o. c #B49B42",
"O. c #BA9C43",
"+. c #B89849",
"@. c #A28D50",
"#. c #A19050",
"$. c #BAA458",
"%. c #BEA966",
"&. c #C18F44",
"*. c #C59244",
"=. c #CA9645",
"-. c #CC9A44",
";. c #CB9649",
":. c #C29A48",
">. c #D59D4A",
",. c #D89F4C",
"<. c #C3A346",
"1. c #C8A447",
"2. c #C4A54A",
"3. c #CCAC4B",
"4. c #C9A847",
"5. c #DBA24C",
"6. c #D6A74C",
"7. c #CFB04B",
"8. c #D4B44D",
"9. c #D5B94E",
"0. c #DBBA4C",
"q. c #C8A752",
"w. c #DDBC53",
"e. c #D7B252",
"r. c #E5AB4E",
"t. c #E5BF43",
"y. c #EBB54D",
"u. c #E4BE4D",
"i. c #F7B94D",
"p. c #E1A651",
"a. c #E5AA51",
"s. c #EAAD51",
"d. c #E4B753",
"f. c #EEB252",
"g. c #E2BE51",
"h. c #EDBB52",
"j. c #F2B354",
"k. c #F4BA54",
"l. c #FFBA53",
"z. c #FFBD59",
"x. c #F4B758",
"c. c #C5AF65",
"v. c #CCB66A",
"b. c #D4BC6E",
"n. c #DFC051",
"m. c #EAC34F",
"M. c #FBCF4F",
"N. c #F3C948",
"B. c #FFD644",
"V. c #FFDF40",
"C. c #FFD84D",
"Z. c #E5C352",
"A. c #EBC553",
"S. c #EECA54",
"D. c #EBCD5A",
"F. c #F5C154",
"G. c #FDC553",
"H. c #F3CB52",
"J. c #FECC55",
"K. c #FFC35C",
"L. c #F7CF58",
"P. c #FFC95E",
"I. c #FED457",
"U. c #FFDA56",
"Y. c #FFD25A",
"T. c #FFD55A",
"R. c #FFD65C",
"E. c #FED559",
"W. c #FFD959",
"Q. c #FFDB5A",
"!. c #F7D15A",
"~. c #FFE15C",
"^. c #DDC473",
"/. c #FFCC61",
"(. c #FFDC63",
"). c #FFDD6B",
"_. c #FFD062",
"`. c #E4CA77",
"'. c #E4CE7D",
"]. c #FFCB7D",
"[. c #EAD47F",
"{. c #FFDE75",
"}. c #FFDE78",
"|. c #FFE26B",
" X c #FFE17B",
".X c #FFE87A",
"XX c #FFF17B",
"oX c #FFCD82",
"OX c #FFCD82",
"+X c #E5D182",
"@X c #E9D485",
"#X c #EDD78B",
"$X c #EED98F",
"%X c #F6DF8E",
"&X c #FFD89D",
"*X c #FDE28E",
"=X c #FFE98E",
"-X c #FFEC95",
";X c #FFEF9B",
":X c #FCE792",
/* pixels */
"z.z.z.z.z.z.z.z.z.z.z.z.z.z.z.z.z.z.z.z.z.z.z.z.z.z.z.z.z.z.z.z.z.z.z.z.z.z.z.z.z.z.z.z.z.z.z.z.z.z.z.z.z.z.z.z.z.z.z.z.z.z.l.oX",
"z.z.z.z.z.z.z.z.z.z.z.z.z.z.z.z.z.z.z.z.z.z.z.z.z.z.z.z.z.z.z.z.z.z.z.z.z.z.z.z.z.z.z.z.z.z.z.z.z.z.z.z.z.z.z.z.z.z.z.z.z.z.l.oX",
"z.z.z.z.z.z.z.z.z.z.z.z.z.z.z.z.z.z.z.z.z.z.z.z.z.z.z.z.z.z.z.z.z.z.z.z.z.z.z.z.z.z.z.z.z.z.z.z.z.z.z.z.z.z.z.z.z.z.z.z.z.z.l.oX",
"z.z.z.z.z.z.z.z.z.z.z.z.z.z.z.z.z.z.z.z.z.z.z.z.z.z.z.z.z.z.z.z.z.z.z.z.z.z.z.z.z.z.z.z.z.z.z.z.z.z.z.z.z.z.z.z.z.z.z.z.z.z.l.oX",
"z.z.z.z.z.z.z.z.z.z.z.z.z.z.z.z.z.z.z.z.z.z.z.z.z.z.z.z.z.z.z.z.z.z.z.z.z.z.z.z.z.z.z.z.z.z.z.z.z.z.z.z.z.z.z.z.z.z.z.z.z.z.l.oX",
"z.z.z.z.z.z.z.z.z.z.K.P.K.z.z.K.P.z.K.P.z.z.z.z.z.z.z.z.z.z.z.z.z.z.z.z.z.z.K.K.K.z.z.z.z.z.z.z.z.z.z.z.z.z.z.z.z.z.z.z.z.z.l.oX",
"z.z.z.z.z.z.z.z.P.c t >.C q K.>.C 5 t U j.z.z.z.z.z.z.z.z.K.K.K.P.P.K.z.x.x.j.s.f.j.z.K.K.z.z.z.z.z.z.z.z.z.z.z.z.z.z.z.z.z.l.oX",
"z.z.z.z.z.z.z.z./.t * y 5 , K.=.g * 4 c s.K.z.z.z.z.K.P.x.s.s.;.U *.>.5.>.-.*.T T ;.5.;.p.P.K.K.K.K.K.K.K.K.z.z.z.z.z.z.z.z.l.oX",
"z.z.z.z.z.z.z.z./.V 5 g u w K.z.V > 4 >.z.z.z.z.z.z.5. .U U =.5.r.y.k.G.J.J.E.T.E.G.6.p s z.p.5.,.>.>.5.p.s.K.z.z.z.z.z.z.z.l.oX",
"z.z.z.z.z.z.z.z.f.y w 0 q q ;.K w x.=.0 5.K.z.z.z.' } y.G.R.R.T.E.J.F.d.d.e.+.J j t y K U *.T W *.-.-.Q Q | &.K.z.z.z.z.z.z.l.oX",
"z.z.z.z.z.z.z.z.x. . ., l  .5.V V c V c &.K.z.z.K.g E 2.] D D L +.2.q.+.0 w c W r.i.G.J.E.I.E.T.R.J.y.A.1.D M K.z.z.z.z.z.z.l.oX",
"z.z.z.z.z.z.z.z.z.P.P.8 6._.z.c l l l g &.K.z.z.P.V ~ N.g.u.u.u.m.H.~.D | h.F.h.h.h.d.d.d.e.:.J [ q.L ..w.0.| z.z.z.z.z.z.z.l.oX",
"z.z.z.z.z.z.z.z.z.z.z.a.z.z.z.P.P.P.P.P.K.z.z.z.P.;.H B.R.W.W.W.T.I.Q.L G E ] ] [ [ P ..O.3.8.9.u.H.Q.W.|.[.} z.z.z.z.z.z.z.l.oX",
"z.z.z.z.z.z.z.z.z.z.z.K.z.z.z.z.z.z.z.z.z.z.z.z.K.a.N B.E.I.I.I.I.I.W.3.a V.R.W.W.W.Q.Q.Q.W.W.W.W.I.I.M. X$XY z.z.z.z.z.z.z.l.oX",
"z.z.z.z.z.z.z.z.z.z.z.z.z.z.z.z.z.z.z.z.z.z.z.z.K.j.f ` T.I.I.I.I.I.W.w.f _ I.I.I.I.I.I.I.I.I.I.I.I.T.I. X#XY z.z.z.z.z.z.z.l.oX",
"z.z.z.z.z.z.z.z.z.z.z.z.z.z.z.z.z.z.z.z.z.z.z.z.z.K.Z ) W.I.I.I.I.I.I.T.I ( T.I.I.I.I.I.I.I.I.I.I.I.E.I.}.#XP z.z.z.z.z.z.z.l.oX",
"z.z.z.z.z.z.z.z.z.z.z.z.z.z.z.z.z.z.z.z.z.z.z.z.z.P.U ~ W.I.I.I.I.I.I.~.x ~ W.I.I.I.I.I.I.I.I.I.I.I.T.I.}.@XK K.z.z.z.z.z.z.l.oX",
"z.z.z.z.z.z.z.z.z.z.z.z.z.z.z.z.z.z.z.z.z.z.z.z.z.P.;.H W.I.I.I.I.I.I.Q.X.! U.I.I.I.I.I.I.I.I.I.I.I.T.I.}.@XK K.z.z.z.z.z.z.l.oX",
"z.z.z.z.z.z.z.z.z.z.z.z.z.z.z.z.z.z.z.z.z.z.z.z.z.K.p.G U.I.I.I.I.I.I.W.w.N U.I.I.I.I.I.I.I.I.I.I.I.T.I.}.@XK K.z.z.z.z.z.z.l.oX",
"z.z.z.z.z.z.z.z.z.z.z.z.z.z.z.z.z.z.z.z.z.z.z.z.z.K.j.B M.T.I.I.I.I.I.W.Z.d C.E.I.I.I.I.I.I.I.I.I.I.T.I.{.+XK K.z.z.z.z.z.z.l.oX",
"z.z.z.z.z.z.z.z.z.z.z.z.z.z.z.z.z.z.z.z.z.z.z.z.z.z.K.l t.W.I.I.I.I.I.I.L.A N.T.I.I.I.I.I.I.I.I.I.I.I.I.{.+XJ K.z.z.z.z.z.z.l.oX",
"z.z.z.z.z.z.z.z.z.z.z.z.z.z.z.z.z.z.z.z.z.z.z.z.z.z.P.Z t.W.I.I.I.I.I.I.~.A ^ R.I.I.I.I.I.I.I.I.I.I.T.I.).+XJ K.z.z.z.z.z.z.l.oX",
"z.z.z.z.z.z.z.z.z.z.z.z.z.z.z.z.z.z.z.z.z.z.z.z.z.z.P.*.4.W.I.I.I.I.I.I.~.I / Q.I.I.I.I.I.I.I.I.I.I.T.I.).'.V P.z.z.z.z.z.z.l.oX",
"z.z.z.z.z.z.z.z.z.z.z.z.z.z.z.z.z.z.z.z.z.z.z.z.z.z.P.>.I ~.I.I.I.I.I.I.W.4.E Q.I.I.I.I.I.I.I.I.I.I.I.I.).'.J P.z.z.z.z.z.z.l.oX",
"z.z.z.z.z.z.z.z.z.z.z.z.z.z.z.z.z.z.z.z.z.z.z.z.z.z.P.5.A ~.I.I.I.I.I.I.W.g.A Q.I.I.I.I.I.I.I.I.I.I.T.I.).'.K P.z.z.z.z.z.z.l.oX",
"z.z.z.z.z.z.z.z.z.z.z.z.z.z.z.z.z.z.z.z.z.z.z.z.z.z.K.j.| I.I.I.I.I.I.I.W.A.v I.I.I.I.I.I.I.I.I.I.I.I.I.(.'.K P.z.z.z.z.z.z.l.oX",
"z.z.z.z.z.z.z.z.z.z.z.z.z.z.z.z.z.z.z.z.z.z.z.z.z.z.z.K.K A.T.I.I.I.I.I.I.I.v H.T.I.I.I.I.I.I.I.I.I.I.I.(.'.K P.z.z.z.z.z.z.l.oX",
"z.z.z.z.z.z.z.z.z.z.z.z.z.z.z.z.z.z.z.z.z.z.z.z.z.z.z.P.g 0.W.I.I.I.I.I.I.Q.D u.W.I.I.I.I.I.I.I.I.I.I.I.(.'.K P.z.z.z.z.z.z.l.oX",
"z.z.z.z.z.z.z.z.z.z.z.z.z.z.z.z.z.z.z.z.z.z.z.z.z.z.z.P.g 9.W.I.I.I.I.I.I.~.L 9.W.I.I.I.I.I.I.I.I.I.I.I.(.`.U P.z.z.z.z.z.z.l.oX",
"z.z.z.z.z.z.z.z.z.z.z.z.z.z.z.z.z.z.z.z.z.z.z.z.z.z.z.P.j 9.W.I.I.I.I.I.I.Q...2.W.I.I.I.I.I.I.I.I.I.I.I.R.`.U P.z.z.z.z.z.z.l.oX",
"z.z.z.z.z.z.z.z.z.z.z.z.z.z.z.z.z.z.z.z.z.z.z.z.z.z.P.j.j S.I.I.I.I.I.I.I.Q.O.o.Q.I.I.I.I.I.I.I.I.I.I.I.R.^.U P.z.z.z.z.z.z.l.oX",
"z.z.z.z.z.z.z.z.z.z.z.z.z.z.z.z.z.z.z.z.z.z.z.z.K.P.a.j 9.W.I.I.I.I.I.I.I.~.o.X.Q.I.I.I.I.I.I.I.I.I.I.I.R.^.T P.z.z.z.z.z.z.l.oX",
"z.z.z.z.z.z.z.z.z.z.z.z.z.z.z.z.z.z.K.P.P.P.P.z.s.' b n.W.I.I.I.I.I.I.I.Q.Z.h A.I.I.I.I.I.I.I.I.I.I.I.I.Q.b. .P.z.z.z.z.z.z.l.oX",
"z.z.z.z.z.z.z.z.z.z.z.z.z.z.z.z.P.z.5.>.;.*.} M D 2.E.W.I.I.I.I.I.T.W.Q.3.p w.W.I.I.I.I.I.I.I.I.I.I.I.I.Q.b. .P.z.z.z.z.z.z.l.oX",
"z.z.z.z.z.z.z.z.z.z.z.z.z.z.z.K. .b @.#.P O.9.A.W.Q.I.I.Q.~.~.~.W.u.2.z S S.W.I.I.I.I.I.I.I.I.I.I.I.I.I.(.v.*.P.z.z.z.z.z.z.l.oX",
"z.z.z.z.z.z.z.z.z.z.z.z.z.z.P.U { %X-X|.Q.W.W.I.I.I.W.Z.O.v v z D S F g.Q.I.I.I.I.I.I.I.I.I.I.I.I.I.I.I.(.c.*.P.z.z.z.z.z.z.l.oX",
"z.z.z.z.z.z.z.z.z.z.z.z.z.K.s.m ;X*XI.J.I.I.I.I.I.I.R z %.v.8.9.u.W.~.I.I.I.I.I.I.I.I.I.I.I.I.I.I.I.I.I.(.$.*.K.z.z.z.z.z.z.l.oX",
"z.z.z.z.z.z.z.z.z.z.z.z.z.K.,.$.-X!.I.T.I.I.I.I.Q...@.;X=X(.W.W.W.I.I.I.I.I.I.I.I.I.I.I.I.I.I.I.T.T.I.I.Q.$.;.P.z.z.z.z.z.z.l.oX",
"z.z.z.z.z.z.z.z.z.z.z.z.z.K.5.$..XI.T.I.I.I.I.W.S.x :X*XI.I.I.I.I.I.I.I.I.I.I.I.I.I.I.I.I.I.I.I.I.I.I.I.W.X.;.P.z.z.z.z.z.z.l.oX",
"z.z.z.z.z.z.z.z.z.z.z.z.z.K.j.h D.H.H.H.H.H.H.I.9.z -X!.I.I.I.I.I.I.I.I.I.I.I.I.I.I.I.I.I.I.I.I.I.I.I.I.~.o.;.P.z.z.z.z.z.z.l.oX",
"z.z.z.z.z.z.z.z.z.z.z.z.z.z.P.k . : : < 1 1 6 6 : p XXW.Q.W.W.W.W.W.W.W.W.W.W.W.Q.Q.Q.~.~.~.~.~.W.I.L.S.8.e ;.P.z.z.z.z.z.z.l.oX",
"z.z.z.z.z.z.z.z.z.z.z.z.z.z.z.j.7 # # # + o o o o & S <.<.4.7.8.8.9.9.8.8.3.3.4.<.O.X...L D z p r 9 3 : % + } P.z.z.z.z.z.z.l.oX",
"z.z.z.z.z.z.z.z.z.z.z.z.z.z.z.K.z.>. .U C V n n n l   o # % % % % % % % % % % % # # # @ o X X > & O $ 2 2 o V P.z.z.z.z.z.z.l.oX",
"z.z.z.z.z.z.z.z.z.z.z.z.z.z.z.z.z.K.P.P.P.P.P.P.P.P.} 7 ; = = = - - - - - - - - = = : 1 9 i V z.*.; = : 6 e a.K.z.z.z.z.z.z.l.oX",
"z.z.z.z.z.z.z.z.z.z.z.z.z.z.z.z.z.z.z.z.z.z.z.z.z.z.P.z.f.s.s.s.s.r.r.r.r.s.s.s.s.s.j.x.z.P.P.z.P.j.s.j.z.K.K.z.z.z.z.z.z.z.l.oX",
"z.z.z.z.z.z.z.z.z.z.z.z.z.z.z.z.z.z.z.z.z.z.z.z.z.z.z.z.K.K.K.K.K.K.K.K.K.K.K.K.K.K.K.z.z.z.z.z.z.z.K.K.z.z.z.z.z.z.z.z.z.z.l.oX",
"z.z.z.z.z.z.z.z.z.z.z.z.z.z.z.z.z.z.z.z.z.z.z.z.z.z.z.z.z.z.z.z.z.z.z.z.z.z.z.z.z.z.z.z.z.z.z.z.z.z.z.z.z.z.z.z.z.z.z.z.z.z.l.oX",
"z.z.z.z.z.z.z.z.z.z.z.z.z.z.z.z.z.z.z.z.z.z.z.z.z.z.z.z.z.z.z.z.z.z.z.z.z.z.z.z.z.z.z.z.z.z.z.z.z.z.z.z.z.z.z.z.z.z.z.z.z.z.l.oX",
"l.l.l.l.l.l.l.l.l.l.l.l.l.l.l.l.l.l.l.l.l.l.l.l.l.l.l.l.l.l.l.l.l.l.l.l.l.l.l.l.l.l.l.l.l.l.l.l.l.l.l.l.l.l.l.l.l.l.l.l.l.z.l.].",
"].].].].].].].].].].].].].].].].].].].].].].].].].].].].].].].].].].].].].].].].].].].].].].].].].].].].].].].].].].].].].].].&X"
};
