/* XPM */
static char *result[] = {
/* columns rows colors chars-per-pixel */
"64 50 140 2 ",
"   c #231A0C",
".  c #2B200F",
"X  c #2D2110",
"o  c #352712",
"O  c #3C2D15",
"+  c #453418",
"@  c #533D1C",
"#  c #57411E",
"$  c #604721",
"%  c #624922",
"&  c #6A4E25",
"*  c #6D5126",
"=  c #705327",
"-  c #745628",
";  c #77582A",
":  c #7D5D2C",
">  c #805F2C",
",  c #84622E",
"<  c #8E6931",
"1  c #966F34",
"2  c #9D7436",
"3  c #A77C3A",
"4  c #AA7E3B",
"5  c #FC5F31",
"6  c #FB642F",
"7  c #FB6C2E",
"8  c #FA742B",
"9  c #FA7A2A",
"0  c #F76534",
"q  c #FC6232",
"w  c #FB6E30",
"e  c #0FA866",
"r  c #0EA868",
"t  c #16A664",
"y  c #1AA664",
"u  c #14AB65",
"i  c #1AAD66",
"p  c #17AF69",
"a  c #17B067",
"s  c #19B16B",
"d  c #1BB86F",
"f  c #1CBD71",
"g  c #2DA761",
"h  c #3AAB60",
"j  c #27BB6E",
"k  c #52BF67",
"l  c #0DCF7E",
"z  c #1EC274",
"x  c #1BCB77",
"c  c #16C57A",
"v  c #15CC7B",
"b  c #1BCB7A",
"n  c #3CC26D",
"m  c #21C677",
"M  c #26CA77",
"N  c #2FC977",
"B  c #24CB79",
"V  c #2CCA7A",
"C  c #3BC677",
"Z  c #36C977",
"A  c #3BC879",
"S  c #46C574",
"D  c #4DC673",
"F  c #50C874",
"G  c #77C36E",
"H  c #64C570",
"J  c #6CC571",
"K  c #71C670",
"L  c #AC803C",
"P  c #B3853E",
"I  c #BC9737",
"U  c #FD8D1F",
"Y  c #FA911F",
"T  c #CA9D39",
"R  c #D19B35",
"E  c #FB8326",
"W  c #FD8E25",
"Q  c #FB8329",
"!  c #FE8F28",
"~  c #FD9126",
"^  c #F3922A",
"/  c #FE9129",
"(  c #F8982D",
")  c #FA9533",
"_  c #F79A35",
"`  c #F99A34",
"'  c #F99D39",
"]  c #F7A03B",
"[  c #FAA23D",
"{  c #959A42",
"}  c #BB8B41",
"|  c #8EAD4D",
" . c #82B155",
".. c #B1A542",
"X. c #AEB55D",
"o. c #96BF6A",
"O. c #AFBF67",
"+. c #B4BF66",
"@. c #BEBF65",
"#. c #C39044",
"$. c #CB9646",
"%. c #CF9948",
"&. c #D49E4A",
"*. c #FB8C44",
"=. c #F98E49",
"-. c #FA9B4A",
";. c #C0A240",
":. c #DBA34D",
">. c #FAA642",
",. c #FBAA46",
"<. c #FAAC4B",
"1. c #FCB14E",
"2. c #FFB84C",
"3. c #E7AB50",
"4. c #EBAE52",
"5. c #FCAF52",
"6. c #EEB053",
"7. c #E4BD5E",
"8. c #EFBD5E",
"9. c #F5B555",
"0. c #FCB553",
"q. c #F6B857",
"w. c #FFBB53",
"e. c #F3BC5B",
"r. c #FFBD59",
"t. c #C0BE65",
"y. c #CABE65",
"u. c #D4BD61",
"i. c #8CC26A",
"p. c #97C16A",
"a. c #9EC06B",
"s. c #AEC065",
"d. c #ACC068",
"f. c #FFC25C",
"g. c #FFC95E",
"h. c #FFCB60",
"j. c #FFD966",
"k. c #FFCB7D",
"l. c #FFCD82",
"z. c #FFD89D",
/* pixels */
"r.r.r.r.r.r.r.r.r.r.r.r.r.r.r.r.r.r.r.r.r.r.r.r.r.r.r.r.r.r.r.r.r.r.r.r.r.r.r.r.r.r.r.r.r.r.r.r.r.r.r.r.r.r.r.r.r.r.r.r.r.r.w.l.",
"r.r.r.r.r.r.r.r.r.r.r.r.r.r.r.r.r.r.r.r.r.r.r.r.r.r.r.r.r.r.r.r.r.r.r.r.r.r.r.r.r.r.r.r.r.r.r.r.r.r.r.r.r.r.r.r.r.r.r.r.r.r.w.l.",
"r.r.r.r.r.r.r.r.r.r.r.r.r.w.r.r.r.w.r.f.r.r.r.r.r.r.r.r.r.r.r.r.r.r.r.w.r.r.r.r.r.r.r.r.r.r.r.r.r.r.r.r.r.r.r.r.r.r.r.r.r.r.w.k.",
"r.r.r.r.r.r.r.r.r.f.f.f.f.f.r.f.g.g.g.f.r.r.r.r.r.r.r.r.r.r.r.r.r.r.r.r.r.r.r.r.r.r.r.r.r.r.r.r.r.r.r.r.r.r.r.r.r.r.r.r.r.r.w.l.",
"r.r.r.r.r.r.r.r.w.%.P :.$.3 g.:.3 L 3 $.r.r.r.r.r.r.r.r.r.r.r.r.r.r.r.r.r.r.r.r.r.r.r.r.r.r.r.r.r.w.r.r.r.r.r.r.r.r.r.r.r.r.r.l.",
"r.r.r.r.r.r.r.f.6.. - } L O q.%.: < * O r.r.r.r.r.r.r.r.r.r.r.r.r.r.r.r.r.r.r.r.w.r.r.r.r.r.r.r.w.r.r.r.r.r.r.r.r.r.r.r.r.r.w.l.",
"r.r.r.r.r.r.r.f.4.X :.:.1   #.f.f.g.%.+ q.r.r.r.r.r.r.r.r.r.r.r.r.r.r.r.r.r.r.r.r.u.G H J @.r.y.p.d.8.r.r.r.r.r.r.r.r.r.r.r.w.l.",
"r.r.r.r.r.r.r.r.9.* $ & : , q.* % $ @ o } f.r.r.r.r.r.r.r.r.r.r.r.r.r.r.r.r.r.w.+.M v c v M F b v b Z O.r.r.r.r.r.r.r.r.r.r.w.l.",
"r.r.r.r.r.r.r.r.f.:.* , % L h.3 3 g.r.f.q.r.r.r.r.r.r.r.r.r.r.r.r.r.r.r.r.r.r.7.N b M M M B b B M B v B y.r.r.r.r.r.r.r.r.r.w.l.",
"r.r.r.r.r.r.r.q.h.< o $.# $ j.: + #.3 L r.r.r.r.r.r.r.r.r.r.r.r.r.r.r.r.r.r.q.o.v M z u f B B B B B M v H r.r.r.r.r.r.r.r.r.w.l.",
"r.r.r.r.r.r.r.r.f.q.2 ; < 3.f.%.> , > < q.r.r.r.r.r.r.r.r.r.r.r.r.r.r.r.r.r.r.K l B z t p B B z s x B x S w.r.r.r.r.r.r.r.r.2.l.",
"r.r.r.r.r.r.r.r.r.r.h.g.h.f.r.f.h.h.h.h.r.r.r.r.r.r.r.r.r.r.r.r.r.r.f.r.r.0.1.X.C B v s t x z t t z B v D r.r.r.r.r.r.r.r.r.w.l.",
"r.r.r.r.r.r.r.r.r.r.r.q.r.r.r.r.q.r.0.r.r.r.r.r.r.r.r.r.r.r.r.r.r.r.1.] ( ~ ^ ~ ^ T  .j t i i y f B B v i.r.q.r.r.r.r.r.r.r.r.l.",
"r.r.r.r.r.r.r.r.r.r.r.r.r.r.r.r.r.r.r.r.r.r.r.r.r.r.r.r.r.r.r.r.r.[ ! W W W W W W W W R g e y f B B B b p.r.r.r.r.r.r.r.r.r.w.l.",
"r.r.r.r.r.r.r.r.r.r.r.r.r.r.r.r.r.r.r.r.r.r.r.r.r.r.r.r.r.r.r.r.` W W W W W / ~ W ! ! W { e t i d x B x A 8.r.r.r.r.r.r.r.r.w.l.",
"r.r.r.r.r.r.r.r.r.r.r.r.r.r.r.r.r.r.r.r.r.r.r.r.r.r.r.r.r.r.r.' U ~ W ~ ~ / / / W W W ~ ~ I h e y t z B x @.r.r.r.r.r.r.r.r.w.l.",
"r.r.w.r.r.r.r.r.r.r.r.r.r.r.r.r.r.r.r.r.r.r.r.r.r.r.r.r.r.r.=.8 ~ W ! ! / / / / / / ! W W U ..c d i f B c s.r.r.r.r.r.r.r.f.2.l.",
"r.r.r.r.r.r.r.r.r.r.r.r.r.r.r.r.r.r.r.r.r.r.r.r.r.r.r.r.r.1.8 q 8 / ~ ! W / W ! W / / ! W W ^ k x b V b C 8.r.r.r.r.r.r.r.r.w.l.",
"r.r.r.r.r.r.r.r.w.r.r.r.r.r.r.r.r.r.r.r.r.r.r.r.r.r.r.r.r.( E 7 q 8 / ~ ! / / / / / / / ! ~ U | l B c x s.w.r.r.r.r.r.r.r.r.w.l.",
"r.r.r.r.r.r.r.r.r.r.r.r.r.r.r.r.r.r.r.r.r.w.r.r.r.r.r.r.' W ~ W w 5 8 ~ W / ! / / ! / ! / W U ;.V N F s.r.r.r.r.r.r.r.r.r.r.w.l.",
"r.r.r.r.r.r.r.r.r.r.r.r.r.r.r.r.r.r.r.r.r.r.r.r.r.r.f.<.W ~ ! ~ W 7 8 ~ W / / ~ / / / ! ! / W ' f.u.q.r.r.r.r.r.r.r.r.r.r.r.w.l.",
"r.r.r.r.r.r.r.r.r.r.r.r.r.r.r.r.r.r.r.r.r.r.r.r.r.r.0.^ W ~ W W ~ W ~ ~ / / ! / / W / / ! ~ U ' r.r.r.r.r.r.r.r.r.r.r.r.r.r.w.l.",
"r.r.r.r.r.r.r.r.r.r.r.r.r.r.r.r.r.r.r.r.r.r.r.r.r.r.` W W W ! / / ! W W W / / / ~ / / W W ~ U [ f.r.r.r.r.r.r.r.r.r.r.r.r.r.w.l.",
"r.r.r.r.r.r.r.r.r.r.r.r.r.r.r.r.r.r.r.r.r.r.r.r.r.>.W ~ W ~ ~ ~ ~ ! ~ ~ / / ! ! / ! / / W W W <.f.r.r.r.r.r.r.r.r.r.r.r.r.r.w.l.",
"r.r.w.r.w.r.r.r.r.r.r.r.r.r.r.r.r.r.r.r.r.r.r.f.<.! ~ ! W / ~ ~ ~ ~ ~ ~ ~ ~ / ~ / / ! / ~ W ( 0.r.r.r.r.r.r.r.r.r.r.r.r.r.r.w.l.",
"r.r.r.r.r.r.r.r.r.r.r.r.r.r.r.r.r.r.r.r.r.r.r.q.( W / W / / ! W W W ~ ~ W W ! ! ! / / W W W >.r.r.r.r.r.r.r.r.r.r.r.r.r.r.r.w.l.",
"r.r.r.r.r.r.r.r.r.r.r.r.r.r.r.r.r.r.w.r.r.r.r.] W ~ ~ W W / ~ ~ 9 6 Q ^ W W ! / ! / ! W U ` r.r.r.r.r.r.r.r.r.r.r.r.r.r.r.r.w.l.",
"r.r.r.r.r.r.r.r.r.r.r.r.r.r.r.w.r.r.r.r.r.f.<.~ W W W ~ ~ ! / ~ E 6 q E ~ W W / / ! ! W ` 0.r.r.r.r.r.r.r.r.r.r.r.r.r.r.r.r.w.l.",
"r.r.r.r.r.r.r.r.r.r.r.r.r.r.r.r.r.r.r.r.r.q.~ W ~ W 7 7 W W ! W ~ E q q E ~ W W / ~ W [ r.r.r.r.r.r.r.r.r.r.r.r.r.r.r.r.r.f.w.l.",
"r.r.r.r.r.r.r.r.r.r.r.r.r.r.r.r.r.r.r.r.f.' W ~ W ~ 8 q 7 W ~ ! ~ ~ E 7 q E ~ / ~ ~ ,.r.r.r.r.r.r.r.r.r.r.r.r.r.r.r.r.r.r.r.w.l.",
"r.r.r.r.r.r.r.r.r.r.r.r.r.r.r.r.r.r.r.f.-.E ~ W W ~ W 8 q 7 W W / ~ ~ E 6 0 E U ~ 1.f.r.r.r.r.r.r.r.r.r.r.r.r.r.r.r.r.r.r.r.w.k.",
"r.r.r.r.r.r.r.r.r.r.r.r.r.r.r.r.r.r.f.<.0 7 W ~ W W ~ W 8 q 7 W ~ / / ~ E 6 5 _ w.r.r.r.r.r.r.r.r.r.r.r.r.r.r.r.r.r.r.r.r.r.w.l.",
"r.r.r.r.r.r.r.r.r.r.r.r.r.r.r.r.r.r.r._ 8 q 7 E ~ W ! W W 8 6 8 ~ ~ W W Y Q -.r.r.r.r.r.r.r.r.r.r.r.r.r.r.r.r.r.r.r.r.r.r.r.w.k.",
"r.r.r.r.r.r.r.r.r.r.r.r.r.r.r.r.r.f.>.U ~ 9 q 7 E ~ ! / W W 9 E ~ / ~ W _ w.f.r.r.r.r.r.r.r.r.r.r.r.r.r.r.r.r.r.r.r.r.r.r.r.w.l.",
"r.r.r.r.r.r.r.r.r.r.r.r.r.r.r.r.r.0.^ W ~ W 9 q w ~ ~ W ! W ~ ~ W W ~ >.r.r.r.r.r.r.r.r.r.r.r.r.r.r.r.r.r.r.r.r.r.r.r.r.r.r.w.l.",
"w.r.r.r.r.r.r.r.r.r.r.r.r.r.r.r.r.) W ~ / ~ ~ 8 w E ~ W W ! W ~ W ( 1.r.r.r.r.r.r.r.r.r.r.r.r.r.r.r.r.r.r.r.r.r.r.r.r.r.r.r.w.l.",
"r.r.r.r.r.r.r.r.r.r.r.r.r.r.r.r.>.W W W ~ / ~ W E / ~ W W ~ ~ W [ r.r.r.r.r.r.r.r.r.r.r.r.r.r.r.r.r.r.r.r.r.r.r.r.r.r.r.r.r.w.l.",
"r.r.r.r.r.r.r.r.r.r.r.r.r.r.f.1.W W ~ ! ! W W ! / ~ W ! ~ ~ ~ 1.r.r.r.r.r.r.r.r.r.r.r.r.r.r.r.r.r.r.r.r.r.r.r.r.r.r.r.r.r.r.w.l.",
"r.r.r.r.r.r.r.r.r.r.r.r.r.r.r.( W ! ! ~ ~ W ~ ! ~ ~ / W ~ ' 0.f.r.r.r.r.r.r.r.r.r.r.r.r.r.r.r.r.r.r.r.r.r.r.r.r.r.r.r.r.r.r.w.l.",
"r.r.r.r.r.r.r.r.r.r.r.r.r.f.[ E ~ W W ^ ~ ~ ! ! W ~ ~ ~ ,.r.r.r.r.r.r.r.r.r.r.r.r.r.r.r.r.r.r.r.r.r.r.r.r.r.r.r.r.r.r.r.r.r.w.l.",
"r.r.r.r.r.r.r.r.r.r.r.r.r.0.~ ~ ! W ~ E 8 E ~ ~ ~ ~ ' 0.r.r.r.r.r.r.r.r.r.r.r.r.r.r.r.r.r.r.r.r.r.r.r.r.r.r.r.r.r.r.r.r.r.r.w.l.",
"r.r.r.r.r.r.r.r.r.r.r.r.f.<.W ! ! ! ~ 9 5 7 ! ~ ~ [ r.f.r.r.r.r.r.r.r.r.r.r.r.r.r.r.r.r.r.r.r.r.r.r.r.r.r.r.r.r.r.r.r.r.r.r.w.l.",
"r.r.r.r.r.r.r.r.r.r.r.r.r.<.W W / / W ~ 8 q 6 ) 1.f.r.r.r.r.r.r.r.r.r.r.r.r.r.r.r.r.r.r.r.r.r.r.r.r.r.r.r.r.r.r.r.r.r.r.r.r.w.l.",
"r.r.r.r.r.r.r.r.r.r.r.r.r.r.( W / ! ! ~ ~ 9 *.q.f.r.r.r.r.r.r.r.r.r.r.r.r.r.r.r.r.r.r.r.r.r.r.r.r.r.r.r.r.r.r.r.r.r.r.r.r.r.w.l.",
"r.r.r.r.r.r.r.w.r.r.r.r.r.r.<.W W ~ W W ( 1.f.r.r.r.r.r.r.r.r.r.r.r.r.r.r.r.r.r.r.r.r.r.r.r.r.r.r.r.r.r.r.r.r.r.r.r.r.r.r.r.w.l.",
"r.r.r.r.r.r.r.r.r.r.r.r.r.r.r.0.` / ( [ r.r.r.r.r.r.r.r.r.r.r.r.r.r.r.r.r.r.r.r.r.r.r.r.r.r.r.r.r.r.r.r.r.r.r.r.r.r.r.r.r.r.w.l.",
"r.r.r.r.r.r.r.r.r.r.r.r.r.r.r.r.r.r.r.r.r.r.r.r.r.r.r.r.r.r.r.r.r.r.r.r.r.r.r.r.r.r.r.r.r.r.r.r.r.r.r.r.r.r.r.r.r.r.r.r.r.r.w.l.",
"r.r.r.r.r.r.r.r.r.r.r.r.r.r.r.r.r.r.r.r.r.r.r.r.r.r.r.r.r.r.r.f.r.r.r.r.r.r.r.r.r.r.r.r.r.r.r.r.r.r.r.r.r.r.r.r.r.r.r.r.r.r.w.l.",
"w.w.w.w.w.w.w.w.w.w.w.w.w.w.w.w.w.w.w.w.2.f.2.w.w.w.f.2.w.w.w.w.w.w.w.w.w.w.w.w.w.w.w.w.2.w.w.w.r.w.w.w.w.w.w.w.w.w.w.w.w.w.2.k.",
"k.k.k.k.k.k.k.k.k.k.k.k.k.k.k.k.k.k.k.k.k.k.k.k.k.k.k.k.k.k.k.k.k.k.k.k.k.k.k.k.k.k.k.k.k.k.k.k.k.k.k.k.k.k.k.k.k.k.k.k.k.k.k.z."
};
