/* XPM */
static char *_a206d811f9d4fb1d851b5f1d42d0f75TNgh9N3R9JvbOMun[] = {
/* columns rows colors chars-per-pixel */
"11 10 39 1 ",
"  c #FF8335",
". c #FF873C",
"X c #FF8940",
"o c #FF8941",
"O c #FF8A42",
"+ c #FF8B43",
"@ c #FF8D47",
"# c #FF8F49",
"$ c #FF914C",
"% c #FF914D",
"& c #FF914E",
"* c #FF924F",
"= c #FF9350",
"- c #FF9351",
"; c #FF9452",
": c #FFB383",
"> c #FFB88B",
", c #FFB98D",
"< c #FFBE96",
"1 c #FFC099",
"2 c #FFC19B",
"3 c #FFC19C",
"4 c #FFC29C",
"5 c #FFD7BE",
"6 c #FFD8C1",
"7 c #FFDBC5",
"8 c #FFDCC6",
"9 c #FFE4D3",
"0 c #FFE4D4",
"q c #FFE5D5",
"w c #FFEBDE",
"e c #FFEEE3",
"r c #FFF6F1",
"t c #FFFDFC",
"y c #FFFDFD",
"u c #FFFEFD",
"i c #FFFEFE",
"p c #FFFFFE",
"a c white",
/* pixels */
"iie>>,:5iii",
"ii9++@ <iii",
"iiq%%;+4iii",
"iiq%%=+2iii",
"iiq%%=+2iii",
"iiq%%=+2iii",
"iiq%%=+2iii",
"iiq%%=+4iii",
"iiq##%.2iii",
"iir7786wiii"
};
