/* XPM */
static char *result[] = {
/* columns rows colors chars-per-pixel */
"64 50 91 1 ",
"  c #010101",
". c #090807",
"X c #0B0B0A",
"o c #151514",
"O c #1A1917",
"+ c #1D1D1D",
"@ c #22211F",
"# c #242424",
"$ c #282625",
"% c #2B2B2B",
"& c #343434",
"* c #3A3937",
"= c #3B3B3A",
"- c #403F3F",
"; c #41403F",
": c #3D424A",
"> c #434343",
", c #4B4B4B",
"< c #51504F",
"1 c #494F57",
"2 c #4E525A",
"3 c #535353",
"4 c #5C5C5C",
"5 c #5F646C",
"6 c #646464",
"7 c #686765",
"8 c #61666E",
"9 c #64686F",
"0 c #6C6C6C",
"q c #72716F",
"w c #737374",
"e c #7B7B7B",
"r c #FDB74C",
"t c #FFB84D",
"y c #FFBB53",
"u c #FFBD5A",
"i c #EFBF77",
"p c #FFC56E",
"a c #F3C279",
"s c #FFCB7D",
"d c #838383",
"f c #8D8D8D",
"g c #939393",
"h c #9B9B9B",
"j c #A1A19F",
"k c #999EA5",
"l c #9CA1A9",
"z c #A4A4A4",
"x c #ACACAC",
"c c #B0AFAD",
"v c #B2B1AF",
"b c #A4A9B2",
"n c #AFB0B0",
"m c #AEB3B9",
"M c #B4B4B4",
"N c #BBBBBB",
"B c #FFCD82",
"V c #FFD78D",
"C c #FFDA8F",
"Z c #EAC794",
"A c #FFDC92",
"S c #FFD89D",
"D c #F8D6A4",
"F c #FBD9A6",
"G c #FFDDAB",
"H c #FCDEB1",
"J c #FFE1AE",
"K c #FEE1B4",
"L c #FFE9B7",
"P c #FFE7BA",
"I c #FFE9BA",
"U c #B4BAC1",
"Y c #C4C4C4",
"T c #C9C8C6",
"R c #CCCCCC",
"E c #D2D1CF",
"W c #D2D2D2",
"Q c #DBDBDB",
"! c #DADEE6",
"~ c #DFE4EB",
"^ c #E3E3E3",
"/ c #E8E6E5",
"( c #ECECEC",
") c #E5EAF1",
"_ c #ECEFF3",
"` c #EDF2F9",
"' c #F4F4F4",
"] c #F9F8F6",
"[ c #F5F7FC",
"{ c #F5FAFF",
"} c #FEFEFE",
/* pixels */
"uuuuuuuuuuuuuuuuuuuuuuuuuuuuuuuuuuuuuyuuuuuuyuuuuuuuuuuuyuuuuuyB",
"uuuuuuuuyuuuuuuuuuuuuuuuuuuuuuuuuyuyuuuuuuuuuuuuuuyuuuuuuuuuuuyB",
"uuuuuuuuuuuuuuuuuuuuyuuuuuuuuuuyuuuyuuuuuuuyuuuuuuuuuuuuuuuyuuyB",
"uuuyuuuuuuuuuuuuuuuuuuuuuuuuuuuyuuupuuuuuuuyuuuupuuuuuuuyuuuuuyB",
"uuuuuuyrtrrrrrrrttttrrrrttrrrrrrtrtrttttrrtrttttrrrrrrrryuuuuuuB",
"uuyuuypDFDGDGLGKJZGGLJJLGGGGFJJFJFJFJJGGGFGJGGGGFJJFFJGJBuuuyuyB",
"yuuuurAb:919]k_MU2]}l55m}}}}}}}}}}}}}}}}}}}}}}}}}}}}}}}}KtuuuuyB",
"uuuuuyB(&T<z}-z<g>}v>(Q*R}}}}}}}}}}}}}}}}}}}}}}}}}}}}}]}KtuuyuyB",
"yuuuurAU&w>w},6*z+gN=WY&W}}}}}}}}}}}}}}}}}}}}}}}}}}}}}}}LruuuuyB",
"uuuuuyaw0706Y,M4g>^}R-,Q}}}}}}}}}}}}}}}}}}}}}}}}}}}}}}}}KruuuuyB",
"uuuuuuaMn%fMQf40N>'xn,3xM}}}}}}}}}}}}}}}}}}}}}}}}}}}}}}}KyuuuuyB",
"uuuuuyB}}4R}}}}}^>'xfhhfM}}}}}}}}}}}}}}}}[}}}}}}}}}}}}}}KruuuuyB",
"uyuuuyB}}('}}}}}}/}}}}}}}}}}}}}}}}}}}}}}}}}}}}/xN'}}}}}}LtuuuuyB",
"uuuuuyB}}}}}}}}}}}}}}}}}}}}}}}}}}}}}QNhhgghzET%  &W}}}]}HtuuuuyB",
"uuuuuyB}}}}}}}}}}}}}}}}}}}}}}}}}}'ze7ehNRTMfw*    >}}}}}KruuuuyB",
"uyuuuyB}}}}}}}}}}}}}}}}}}}}}}}}}T4dE}}}}}}}}}(h%  X/}}}}KruuuuyB",
"uuyuuyB}}}}}}}}}}}}}}}}}}}}}}]}N>Q}}}}[}}}}]}}}(0 %'}}}}KruuuuyB",
"uuuuuyB}}}}}}}}}}}}}}}}}}}}}}}gXXN}}}}}}}}}}}}]}}q3}]}]}KruuuuyB",
"uuuuuyB}}}}}}}}}}'}}z,*,g(}}Y-   *]}}}}}}}}}}}}}}}wM}}}}KyuuuuyB",
"uyuuuyB}}}}}}[}Qw%&<     -U4      z}]}}}}}}}}}}}}}^3(}}}KruuuuyB",
"uuuuuyB}}}}}}}(# .%       .       3}}}}}}}}}}}}}}}}hf}}}LtuuuuyB",
"uuuuuyB}}}}}}}q&gQ}&       .      o/}}[}}}}}}}}}}}}'4/}}KtuuuuyB",
"uuuuuyB{}}}}(6f'}}}6   .  6O       Y}}[}}}}}}}}}}}}}dx}}KruuuuyB",
"uyuuuyB}}}}'4M}}}}}(3    #'4       z}}}}}}}}}}}'YzY}!e}}KruuuuyB",
"uuuuuyB}}}}dg}}}}}}}'NgdfR}h       g}}}}}}}}}'w#   %g7/}KruuuuyB",
"uuyuuyB}}}W6}}}}}}}}}}}}}}}N       g}}}}}}}}(*       +W}KruuuuyB",
"uuuuuuB}}}gz}}}}}}}}}}}}}}}R       f}'}}}}}}d         x}HyuuuuyB",
"uuuuuyB}}}0/}'zdM'}}}}}}}}}Q.      h}}}}}}}'%         w}HruuuuyB",
"yuuuurB}}^6]}6   ,(}}}}}}}}^.      z}}}}}}}Q          *}LruuuuyB",
"uuuuuyB}}Q0}N     -(}}}}}}}^.      M}}}}}}}M          @{KruuuuyB",
"uuuuuyB}(l0}0      e}}}}}}}Q.      R}}}}}}}h          o)PruuuuyB",
"uuuyuyVMo =},      o!}}}}}}W      #'}}}}}}}g          .!PruuuuyB",
"uuuuurAw  +'>       M}}}}}}T      +M'}}}}}}f          .!LruuuuuB",
"uuuuuyAn  3}0       M}]}}}}N        #,g(}]}g          X)PruuuuyB",
"uuuuuyB},3/}YX     +(}}}}}}z           =^}}x          O`KruuuuyB",
"uuuuuyB}dM}}}M*   on}}}}}}}g          . 1}}T          ${KruuuuyB",
"uuuuuyB}W0}}}}'YzxQ}}}}}}'}w             N}'%         >}LruuuuyB",
"yuuuuyB}}wN}}}}}}}}}}}}}}}},             h}Y&         7}HruuuuyB",
"uuuuuyB}}Q3M}}}}}}}}}}}}}}'#             %#           z}HruuuurB",
"uuuyuyB}}}Y>0xE_}}}}}}}}}}Y             o&o#+        .W}KruuuuyB",
"uuuuuyB}}}}'Nd00edfgfddq6,&**&&*o      X4dwew%oo#%>4qx'}KruuuuuB",
"yuuuurB}}}}}}}}'^EYMxzzzzMMNMMMvzw3&$>0hMMMNNYTEQ(}}}}}}KyuuuuyB",
"uuuyuyB}}}}}}}]}}}}}}}}}}}}}}}}}}}}]'}}}}}}}}}}}}}}}}]}}KruuuurB",
"uuuuuuB}}}}}}}}}}}}}}}}}}}}}}}}}}}}}}}}}}}}}}}}}}}}}}}}}KruuuuyB",
"uuuuuupGJGGJGJGJGGGGGJGGJJGGJJJJGGGGGGJGGJGGGGJGGJGJJGGKByuuuuyB",
"uuyuuuyrrrrrrrrrttttrrrrrrttrttyrrttttrrrrrrttrrrrrrrrrruuuuuuyB",
"uuuuuuuuuuupuuuuuuuuupuuuuuuuuuuuupuuuuuuuupuuuupuuuuuuuuuuuuuyB",
"uuuuuuuuuuyuuuuuuuuuuuuuuuuuuuuuuuuuuuuuuuuuuuuuuuuuuuuuuuuuuuyB",
"yyyyyyyyyyuyyyyyyyyyyyyyyyyyuyyyyyyyyyyyyyyyyyyyryyyyyyyyyuyyyts",
"sssssssssssssssssssssBsssssssssssssssssssssssssssssssssssssssssS"
};
