/* XPM */
static char *_adc9b5224fb4b5d93f61ed673705e5cdOKbZsnOk1AnHBO4[] = {
/* columns rows colors chars-per-pixel */
"64 50 139 2 ",
"   c #010101",
".  c #090807",
"X  c #0B0B0A",
"o  c #151514",
"O  c #1A1917",
"+  c #1D1D1D",
"@  c #22211F",
"#  c #232323",
"$  c #282625",
"%  c #2B2B2B",
"&  c #343434",
"*  c #3A3A3A",
"=  c #403F3E",
"-  c #41403F",
";  c #434343",
":  c #484746",
">  c #4B4B4B",
",  c #535353",
"<  c #5C5C5C",
"1  c #61605F",
"2  c #585D65",
"3  c #636363",
"4  c #686765",
"5  c #61666D",
"6  c #6C6C6C",
"7  c #72716F",
"8  c #666C74",
"9  c #6D727A",
"0  c #737373",
"q  c #7B7B7B",
"w  c #81807F",
"e  c #FDB64B",
"r  c #FFB84D",
"t  c #FFBA52",
"y  c #FFBD5A",
"u  c #FFC56D",
"i  c #FFCB7D",
"p  c #777C84",
"a  c #838383",
"s  c #818488",
"d  c #8C8C8C",
"f  c #8E9094",
"g  c #949494",
"h  c #93969A",
"j  c #9B9B9B",
"k  c #A1A19F",
"l  c #959AA0",
"z  c #9A9FA8",
"x  c #9CA1A9",
"c  c #A4A4A4",
"v  c #ACACAC",
"b  c #B0AFAD",
"n  c #AFB0B0",
"m  c #AFB3BB",
"M  c #B4B4B4",
"N  c #BCBBBB",
"B  c #FFCD82",
"V  c #FFD186",
"C  c #FFD68B",
"Z  c #FFDA8F",
"A  c #EECC99",
"S  c #F0CD9B",
"D  c #ECD09D",
"F  c #FFDF94",
"G  c #F2D19F",
"H  c #FFD89D",
"J  c #F0D3A0",
"K  c #FFDDAB",
"L  c #FCDEB1",
"P  c #FEE2AF",
"I  c #FEE2B3",
"U  c #FFE9B7",
"Y  c #FFE7BA",
"T  c #FFEBBB",
"R  c #FFF2BF",
"E  c #BEC3CA",
"W  c #C4C4C4",
"Q  c #CCCCCC",
"!  c #D2D1CF",
"~  c #C8CCD1",
"^  c #D2D2D2",
"/  c #DFDFDF",
"(  c #DDDDDD",
")  c #DBDBDB",
"_  c #FFF2C0",
"`  c #D9DCE0",
"'  c #DADEE6",
"]  c #DEE1E4",
"[  c #DFE4EB",
"{  c #E1E1E1",
"}  c gray89",
"|  c #E5E5E5",
" . c #E7E7E7",
".. c #E6E6E6",
"X. c #E2E2E2",
"o. c #E8E6E5",
"O. c #E2E5E9",
"+. c gray92",
"@. c #E8EBEE",
"#. c #ECECEC",
"$. c gray93",
"%. c #EEEEEE",
"&. c #EFEFEF",
"*. c #ECECEC",
"=. c #E5EAF1",
"-. c #EDF2F9",
";. c gray94",
":. c #F1F1F1",
">. c #F5F5F5",
",. c #F4F4F4",
"<. c #F9F8F6",
"1. c #F7F7F8",
"2. c #F2F7FF",
"3. c #F5FAFF",
"4. c #FBFAF8",
"5. c gray98",
"6. c #FBFBFB",
"7. c #F8F8F8",
"8. c #FCFBF9",
"9. c #FDFCFA",
"0. c #FDFCFB",
"q. c #FEFDFB",
"w. c #FEFCF8",
"e. c #FBFCFC",
"r. c #FBFDFF",
"t. c gray99",
"y. c #FCFDFD",
"u. c #FDFDFD",
"i. c #FEFDFC",
"p. c #FFFDFC",
"a. c #FFFEFC",
"s. c #FDFDFE",
"d. c #FDFEFE",
"f. c #FDFFFF",
"g. c #FEFEFE",
"h. c #FEFEFF",
"j. c #FEFFFF",
"k. c white",
"l. c #FEFEFE",
/* pixels */
"y y y y y y y y y y y y y y y y y y y y y y y y y y y y y y y y y y y y y y y y y y y y y y y y y y y y y y y y y y y y y y t B ",
"y y y y y y y y y y y y y y y y y y y y y y y y y y y y y y y y y y y y y y y y y y y y y y y y y y y y y y y y y y y y y y t B ",
"y y y y y y y y y y y y y y y y y y y y y y y y y y y y y y y y y y y y y y y y y y y y y y y y y y y y y y y y y y y y y y t B ",
"y y y y y y y y y y y y y y y y y y y y y y y y y y y y y y y y y y y y y y y y y y y y y y y y y y y y y y y y y y y y y y t B ",
"y y y y y y t e e r r e e r e e e r r e e r e t r r e e r e e r r r r r r r r r r r r r r r r r r r r r r r r r t y y y y y t B ",
"y y y y y t u I R J D _ I K U T I S A I I K U A G K I U K U P K K K K K K K K K K K K K K K K K K K K K K K K L B t y y y y t B ",
"y y y y y r C ~ z 5 2 x E h.l 8 e.f s ] m O.m p h h.` 9 5 p @.h.h.h.h.h.h.h.h.h.h.h.h.h.h.h.h.h.h.h.h.h.h.h.h.h.I r y y y y t B ",
"y y y y y t V ) 6 = = < ) N > 7 q d w M , g 1 0 d h.: j h.w 3 h.8.h.0.0.0.h.h.0.0.0.0.0.0.0.0.0.h.h.0.0.0.0.0.h.I r y y y y t B ",
"y y y y y t V 1.* a g & h.a a ,.< q a W & < 4 q # { < a $.6 6 h.h.h.h.h.h.h.h.h.h.h.h.h.h.h.h.h.h.h.h.h.h.h.0.h.I r y y y y t B ",
"y y y y y t B ) q , , 6 / v < d 0 d a M < v 3 0 q h.:.a # j 6.h.h.h.h.h.h.h.h.h.h.h.h.h.h.h.h.h.h.h.h.h.h.h.0.h.I r y y y y t B ",
"y y y y y t V j q > ; a d h.a , :.d q | < < c 6 g $.g j # c j { h.h.h.h.h.h.h.h.h.h.h.h.h.h.h.h.h.h.h.h.h.h.h.h.I r y y y y t B ",
"y y y y y t B e.h.d 0 h.6.h.h.0.h.d q h.6.6.h.0 j $.d g j g g | h.h.h.h.h.h.6.6.6.6.6.h.h.h.h.h.h.h.h.h.h.h.h.h.I r y y y y t B ",
"y y y y y t B h.h.$.+.h.h.h.h.h.h.$.+.h.6.6.h.$.:.h.h.h.h.h.h.h.h.h.h.h.h.h.h.h.h.h.h.h.h.h.| v N ;.h.h.h.h.0.h.I r y y y y t B ",
"y y y y y t B h.h.h.h.h.h.h.h.h.h.h.h.h.h.h.h.h.h.h.6.6.6.6.6.h.h.h.h.h./ M c g g g j c Q W %     & ^ h.6.h.0.h.I r y y y y t B ",
"y y y y y t B h.h.h.h.h.h.h.h.h.h.h.h.h.h.h.h.h.h.h.h.h.h.h.h.h.h.:.c q 4 q j N Q Q M d 0 *     .   ; h.h.h.h.h.I r y y y y t B ",
"y y y y y t B h.h.h.h.h.h.h.h.h.h.h.h.h.h.h.h.h.h.h.h.h.h.h.6.h.W 3 a ^ h.h.h.h.h.h.h.h.h.$.j %     X | h.h.0.h.I r y y y y t B ",
"y y y y y t B h.h.h.h.h.h.h.h.h.h.h.h.h.6.h.h.h.6.h.h.h.h.6.h.M : ) h.h.h.6.6.h.h.h.h.6.6.h.h.$.4   % ,.h.h.0.h.I r y y y y t B ",
"y y y y y t B h.h.h.h.h.h.h.h.h.h.h.h.h.h.h.6.h.h.h.h.h.h.h.d X X W h.6.h.h.h.h.h.h.h.h.h.h.6.h.h.6 , h.6.h.0.h.I r y y y y t B ",
"y y y y y t B h.h.h.h.h.h.h.h.h.h.,.6.h.c > * > g $.h.h.W ;   .   & 6.h.h.h.h.h.h.h.h.h.h.h.h.0.h.h.0 M h.6.0.h.I r y y y y t B ",
"y y y y y t B h.h.h.h.h.h.h.h.{ 7 % & , .         * N < .           c h.6.h.h.h.h.h.h.h.h.h.h.h.6.h.{ < $.h.0.h.I r y y y y t B ",
"y y y y y t B h.h.h.h.h.h.h.$.#   X % .             .               , h.h.h.h.h.h.h.h.h.h.h.h.h.h.6.h.j d h.6.h.I r y y y y t B ",
"y y y y y t B h.h.h.h.0.h.h.0 & g ) 6.&               .             O | h.h.h.h.h.h.h.h.h.h.h.h.h.6.h.,.< | h.h.I r y y y y t B ",
"y y y y y t B h.h.h.0.h.$.3 d 6.h.h.h.<         .   3 O               W h.6.h.h.h.h.h.h.h.h.6.h.h.h.h.h.a v h.e.I r y y y y t B ",
"y y y y y t B h.h.h.h.,.< M h.h.h.h.h.+.,         # ,.<               c h.6.h.h.h.h.h.h.h.h.h.;.W v W h./ q h.h.I r y y y y t B ",
"y y y y y t B h.h.6.h.a g h.6.h.h.h.h.h.7.N g a d Q h.j               g h.6.h.h.h.h.h.h.h.$.0 # .   . % g 3 o.h.I r y y y y t B ",
"y y y y y t B h.h.h.^ < h.h.6.6.0.h.h.h.h.h.h.h.h.6.h.N               g h.6.h.h.h.h.h.h.+.*             . + ^ h.L r y y y y t B ",
"y y y y y t B h.6.h.g c h.6.h.h.h.h.h.h.h.h.6.6.6.6.h.Q .             g h.6.h.h.h.h.6.h.a   .               b h.L r y y y y t B ",
"y y y y y t B h.h.0.6 +.h.,.c a M 6.h.h.h.h.h.h.h.h.h.) .             g h.6.h.h.h.h.h.,.%                   7 h.L r y y y y t B ",
"y y y y y t B h.h.{ 3 6.h.3       , +.h.h.h.h.h.h.h.h.{ X             c h.h.h.h.h.h.h.) .                   * h.I r y y y y t B ",
"y y y y y t B h.h.) 4 h.N           ; $.h.h.h.h.h.h.h.{ X             M h.6.h.h.h.6.h.M                     @ 2.I r y y y y t B ",
"y y y y y t B h.+.k 4 h.6         .   q h.6.h.h.h.h.h./ .           . Q h.h.h.h.h.6.h.j                     o =.Y r y y y y t B ",
"y y y y y r C M O   * h.:             o { h.h.h.h.h.h.^ .           # ,.h.h.6.h.h.6.h.d                     X ' Y r y y y y t B ",
"y y y y y e F 0     + ,.;               M h.h.h.h.h.h.Q             + M :.h.h.h.h.6.h.d                     . ' Y r y y y y t B ",
"y y y y y r Z n     , h.3   .           M h.6.h.h.6.h.N                 # > g $.h.6.h.g                     X [ Y r y y y y t B ",
"y y y y y t B h.> , | h.W X           + +.h.h.h.h.6.h.c                       * { h.h.v                     O -.Y r y y y y t B ",
"y y y y y t B h.a M h.6.h.M &       o M h.h.h.h.h.6.h.g                     .   > h.h.Q                     $ 3.I r y y y y t B ",
"y y y y y t B h.^ 6 h.6.h.h.6.W c c / h.6.h.h.h.h.6.h.0   .                       N h.,.%                   - h.I r y y y y t B ",
"y y y y y t B h.h.6 N h.6.6.h.h.h.h.h.h.h.h.h.h.h.h.h.>                           j h.N &               .   4 h.L r y y y y t B ",
"y y y y y t B h.h.{ , N h.h.h.h.6.6.6.6.6.6.6.6.h.h.,.#   .                       % #                   .   k h.L r y y y y t B ",
"y y y y y t B h.6.h.W ; 6 c ^ $.h.h.h.h.h.h.h.h.h.6.W .                     .   O % O # +                 X ! h.L r y y y y t B ",
"y y y y y t B h.h.h.h.,.N a 4 6 q a d d d d a 0 3 : & * * & & * O             X < a 0 q 0 % O O # & ; < 0 v ,.h.I r y y y y t B ",
"y y y y y t B h.h.h.h.h.h.h.h.:.{ ^ W M v c c c c v M N M M M v c 0 , & % ; 4 j M n M N N W Q ^ / $.h.h.h.h.0.h.I r y y y y t B ",
"y y y y y t B h.h.0.h.h.0.6.8.h.h.h.h.h.h.h.h.h.h.h.h.h.h.h.h.h.h.h.h.7.:.0.h.h.h.h.h.h.h.h.h.h.h.h.h.8.6.8.0.h.I r y y y y t B ",
"y y y y y t B h.h.h.h.h.h.h.h.h.h.h.h.h.h.h.h.h.h.h.h.h.h.h.h.h.h.h.h.h.h.h.h.h.h.h.h.h.h.h.h.h.h.h.h.h.h.h.0.h.I r y y y y t B ",
"y y y y y t u K K K K K K K K K K K K K K K K K K K K K K K K K K K K K K K K K K K K K K K K K K K K K K K K L B t y y y y t B ",
"y y y y y y t r r r r r r r r r r r r r r r r r r r r r r r r r r r r r r r r r r r r r r r r r r r r r r r r r t y y y y y t B ",
"y y y y y y y y y y y y y y y y y y y y y y y y y y y y y y y y y y y y y y y y y y y y y y y y y y y y y y y y y y y y y y t B ",
"y y y y y y y y y y y y y y y y y y y y y y y y y y y y y y y y y y y y y y y y y y y y y y y y y y y y y y y y y y y y y y t B ",
"t t t t t t t t t t t t t t t t t t t t t t t t t t t t t t t t t t t t t t t t t t t t t t t t t t t t t t t t t t t t t t r i ",
"i i i i i i i i i i i i i i i i i i i i i i i i i i i i i i i i i i i i i i i i i i i i i i i i i i i i i i i i i i i i i i i H "
};
