/* XPM */
static char *fbc730a398164417a380edaf8b9cf7efOTeuPCNM8pYWWhRj[] = {
/* columns rows colors chars-per-pixel */
"64 50 232 2 ",
"   c #010107",
".  c #090A15",
"X  c #150B1B",
"o  c #191314",
"O  c #271A15",
"+  c #362818",
"@  c #1A1423",
"#  c #100F20",
"$  c #241A27",
"%  c #261C30",
"&  c #2A262D",
"*  c #2D2634",
"=  c #352D3A",
"-  c #383336",
";  c #3E2C27",
":  c #4A371A",
">  c #533E1C",
",  c #483726",
"<  c #453438",
"1  c #503935",
"2  c #58411F",
"3  c #5C4420",
"4  c #664C24",
"5  c #785A2A",
"6  c #795A38",
"7  c #684E32",
"8  c #382C47",
"9  c #3E324D",
"0  c #393649",
"q  c #3B3653",
"w  c #2E2F45",
"e  c #433449",
"r  c #443552",
"t  c #483A56",
"y  c #4B3D5B",
"u  c #473956",
"i  c #533C5B",
"p  c #432F4C",
"a  c #553F61",
"s  c #493B61",
"d  c #03545C",
"f  c #1D4B53",
"g  c #3F4458",
"h  c #284758",
"j  c #135B67",
"k  c #345168",
"l  c #05646B",
"z  c #056A74",
"x  c #0A727B",
"c  c #126B75",
"v  c #296876",
"b  c #2F656B",
"n  c #4E415D",
"m  c #474358",
"M  c #53445D",
"N  c #584559",
"B  c #534C51",
"V  c #664846",
"C  c #745658",
"Z  c #6E534B",
"A  c #5F625E",
"S  c #76605F",
"D  c #4E4665",
"F  c #544463",
"G  c #5A4666",
"H  c #5A4A63",
"J  c #5C456A",
"K  c #5D4B6C",
"L  c #574966",
"P  c #5B4C74",
"I  c #5D5A76",
"U  c #515969",
"Y  c #624D6E",
"T  c #604F63",
"R  c #675567",
"E  c #634D70",
"W  c #684D73",
"Q  c #655274",
"!  c #685475",
"~  c #6A5879",
"^  c #755470",
"/  c #53627B",
"(  c #567871",
")  c #656778",
"_  c #7B7979",
"`  c #716468",
"'  c #805E2C",
"]  c #84622E",
"[  c #89642F",
"{  c #8B6730",
"}  c #946D33",
"|  c #9C7436",
" . c #997336",
".. c #A67B3A",
"X. c #82575A",
"o. c #815C4C",
"O. c #8D6A4C",
"+. c #AD7750",
"@. c #8E5E69",
"#. c #886664",
"$. c #956C6A",
"%. c #896D75",
"&. c #96716E",
"*. c #A4746B",
"=. c #A47874",
"-. c #B77D75",
";. c #C57B5C",
":. c #AF813D",
">. c #B48652",
",. c #929D6E",
"<. c #A88576",
"1. c #B3857A",
"2. c #B58A6B",
"3. c #C18F43",
"4. c #CC9748",
"5. c #D19653",
"6. c #D9A24C",
"7. c #DFA653",
"8. c #CCAB5E",
"9. c #E5AA52",
"0. c #E6AB5A",
"q. c #EAAC58",
"w. c #EDB154",
"e. c #EFBB5E",
"r. c #F2B356",
"t. c #FFBB53",
"y. c #F3B559",
"u. c #F5BB5C",
"i. c #FFBD59",
"p. c #FFB557",
"a. c #FFB84C",
"s. c #D3B270",
"d. c #E5AA64",
"f. c #EEB772",
"g. c #F1B963",
"h. c #CB9B6A",
"j. c #FFC156",
"k. c #FFC25B",
"l. c #FFCA5F",
"z. c #FFC860",
"x. c #FFD364",
"c. c #FFCB7D",
"v. c #EAC26A",
"b. c #0A7C85",
"n. c #187B87",
"m. c #147F90",
"M. c #2C7987",
"N. c #506F8E",
"B. c #6D738D",
"V. c #887C87",
"C. c #907C8B",
"Z. c #098B93",
"A. c #0B959C",
"S. c #138992",
"D. c #278D95",
"F. c #1899A6",
"G. c #089AA3",
"H. c #2999A8",
"J. c #0CA3AB",
"K. c #18A2AA",
"L. c #0BACB4",
"P. c #06ABB5",
"I. c #18AAB2",
"U. c #09B4BB",
"Y. c #1AB6B7",
"T. c #2BAEB4",
"R. c #478B9C",
"E. c #6DBFA0",
"W. c #6C98A2",
"Q. c #5EC1A5",
"!. c #74C4A3",
"~. c #05BCC3",
"^. c #0BBDC3",
"/. c #04B5C7",
"(. c #09B8CA",
"). c #22B8C7",
"_. c #07C3D2",
"`. c #95908C",
"'. c #A88586",
"]. c #B68885",
"[. c #BC938D",
"{. c #B59798",
"}. c #AB909A",
"|. c #95AF8C",
" X c #B2BB81",
".X c #8D94A7",
"XX c #929EB7",
"oX c #8A94AB",
"OX c #B89CA2",
"+X c #A49CB3",
"@X c #9EA8B5",
"#X c #C59B9A",
"$X c #CB9F8F",
"%X c #CBAF92",
"&X c #C79DA2",
"*X c #CBA7A8",
"=X c #D1ACA9",
"-X c #CAB2B8",
";X c #DABCBC",
":X c #D8B6B5",
">X c #CEADB4",
",X c #E1BBB8",
"<X c #FFCD82",
"1X c #FFD89D",
"2X c #DDC4B9",
"3X c #E2C3BF",
"4X c #8C9DC2",
"5X c #98A7C9",
"6X c #A6B8DA",
"7X c #B6BBD4",
"8X c #AAAFC9",
"9X c #A9BCE0",
"0X c #D0BBC4",
"qX c #BEC3D9",
"wX c #B7C6E6",
"eX c #B7CAEC",
"rX c #DCC2C0",
"tX c #CDC8D8",
"yX c #E2C6C6",
"uX c #E6D6D3",
"iX c #C3CBE3",
"pX c #C3CFEC",
"aX c #C9CFE6",
"sX c #C4D1ED",
"dX c #CCD3EA",
"fX c #CFD9EF",
"gX c #D3D7EB",
"hX c #CAD8F5",
"jX c #D2DCF2",
"kX c #C0CFF0",
"lX c #D9E3F8",
"zX c #DFE0EE",
/* pixels */
"i.i.i.i.i.i.i.i.i.i.i.i.i.i.i.i.i.i.i.i.i.i.i.i.i.i.i.i.i.i.i.i.i.i.i.i.i.i.i.i.i.i.i.i.i.i.i.i.i.i.i.i.i.i.i.i.i.i.i.i.i.i.t.<X",
"i.i.i.i.i.i.i.i.i.i.i.i.i.i.i.i.i.i.i.i.i.i.i.i.i.i.i.i.i.i.i.i.i.i.i.i.i.i.i.i.i.i.i.i.i.i.i.i.i.i.i.i.i.i.i.i.i.i.i.i.i.i.t.<X",
"i.i.i.i.i.i.i.i.i.i.i.i.i.i.i.i.i.i.i.i.i.i.i.i.i.i.i.i.i.i.i.i.i.i.i.i.i.i.i.i.i.i.i.i.i.i.i.i.i.i.i.i.i.i.i.i.i.i.i.i.i.i.t.<X",
"i.i.i.i.i.i.i.i.i.i.i.i.i.i.i.i.i.i.i.i.k.k.k.i.i.i.i.i.i.i.i.i.i.i.i.i.i.i.i.i.i.i.i.i.i.i.i.i.i.i.i.i.i.i.i.i.i.i.i.i.i.i.t.<X",
"i.i.i.i.i.i.i.i.i.i.i.i.i.i.i.i.k.y.y.r.r.r.y.i.k.i.i.i.i.i.i.i.i.i.i.i.i.i.i.i.i.i.i.i.i.i.i.i.i.i.i.i.i.i.i.i.i.i.i.i.i.i.t.<X",
"i.i.i.i.i.i.i.i.i.i.i.i.i.i.k.i.O.- * & * - - Z q.k.i.i.i.i.i.i.i.i.i.i.i.i.i.i.i.i.i.i.i.i.i.i.i.i.i.i.i.i.i.i.i.i.i.i.i.i.t.<X",
"i.i.i.i.i.i.i.i.i.i.i.i.i.k.w.1 . . . X @ $ @ X , 9.k.i.i.i.i.i.i.i.i.i.i.i.i.i.i.i.k.i.i.i.i.i.i.i.i.i.i.i.i.i.i.i.i.i.i.i.t.<X",
"i.i.i.i.i.i.i.i.i.i.i.i.k.w.;   O < C $.&.$.#.C O + 6.k.i.i.i.i.i.i.i.i.i.i.i.k.k.k.w.w.k.k.i.k.r.r.i.k.k.i.k.k.i.i.i.i.i.i.t.<X",
"i.i.i.i.i.i.i.i.i.i.i.i.k.7   V =.#X:X;X;X,X3X3X*X1 $ >.k.i.i.i.i.i.i.i.i.k.6.4 3 :.' } r.| r...] 5 x.9.5 4 4 6.k.t.i.i.i.i.t.<X",
"i.i.i.i.i.i.i.i.i.i.i.k.4.. B 1.[.*X=X:X:X;X;X2XyX;X< # >.k.i.i.i.i.i.i.i.i.t.y.: { [ + :.: ..: 5 5 x.3 ] k.| : k.i.i.i.i.i.t.<X",
"i.i.i.i.i.i.i.i.i.i.i.k.6 . C 1.[.=X:X:X:X:X;X;X;XyXOX@ o.k.i.i.i.i.i.i.i.k.9.5 4 x.5 4 4.+ 4 > [ o 6.5 4 r.] > k.i.i.i.i.i.t.<X",
"i.i.i.i.i.i.i.i.i.i.i.i., @ #.].[.{.OX>X;X;X;XyXyX;X;Xn 6 k.i.i.i.i.i.i.i.k.4.] | } 5 6.4.: 3.> 5 4 z.k.| o [ u.k.i.i.i.i.i.t.<X",
"i.i.i.i.i.i.i.i.i.i.i.i.; ; <.'.C.` C &.#X>X*X{.OX-X;XR 6 k.i.i.i.i.i.i.i.i.z.5 3 3.: :.w.4 3 } 5 5 i. ...o | | 6.k.i.i.i.i.t.<X",
"i.i.i.i.i.i.i.i.i.i.i.u.+ V ].=.'.&X#X=.*.[.-.$.%.'.:XV.6 k.i.i.i.i.i.i.i.i.k.| 2 ] > 4.k.k.i.x.] ] i.} } | } } 6.k.i.i.i.i.t.<X",
"i.i.i.i.i.i.i.i.i.i.i.i., C ].'.$.X.=.].].*X].=.{.*X*X}.O.k.i.i.i.i.i.i.i.i.i.k.9.4.r.k.i.i.i.i.w.w.k.l.l.l.l.l.k.i.i.i.i.i.t.<X",
"i.i.i.i.i.i.i.i.i.i.k.q.V #.[.*X#X'.].[.#X:X=X&.X.].#X{.O.k.i.i.i.i.i.i.i.i.i.i.k.k.i.i.i.i.i.i.i.i.i.i.i.i.u.t.i.i.i.i.i.i.t.<X",
"i.i.i.i.i.i.i.i.i.i.k.+.C &.-.#X:X;X>X*X-XuX;X=X&X=X:XOX>.j.i.i.i.i.i.i.i.i.i.i.i.i.i.i.i.i.i.i.i.i.i.i.i.i.i.i.i.i.i.i.i.i.t.<X",
"i.i.i.i.i.i.i.i.i.i.k.5.@.'.+X7XiXdXdXpXpXlXzXuX0X;X,X&X5.k.i.i.i.i.i.i.i.i.i.i.i.i.i.i.i.i.i.i.i.i.i.i.i.i.i.i.i.i.i.i.i.i.t.<X",
"i.i.i.i.i.i.i.i.i.i.j.d.@.%.6X6XeXpXpXsXsXjXlXlXjXgX0X#X;.k.i.i.i.i.i.i.i.i.i.i.i.i.i.i.i.i.i.i.i.i.i.i.i.i.i.i.i.i.i.i.i.i.t.<X",
"i.i.i.i.i.i.i.i.i.i.i.y.$.X.5X6XwXsXhXhXhXlXlXlXjXjXjXtXs.t.i.i.i.i.i.i.i.i.i.i.i.i.i.i.i.i.i.i.i.i.i.i.i.i.i.i.i.i.i.i.i.i.t.<X",
"i.i.i.i.i.i.i.i.i.i.i.k.>.C 5X6XwXpXwX6X6XpXgXlXjXdXdX0Xf.t.i.i.i.i.i.i.i.i.i.i.i.i.i.i.i.i.i.i.i.i.i.i.i.i.i.i.i.i.i.i.i.i.t.<X",
"i.i.i.i.i.i.i.i.i.i.i.k.r.Z V.6X6X6X5X5X6XiX7X7XdXfXaX$Xi.i.i.i.i.i.i.i.i.i.i.i.i.i.i.i.i.i.i.i.i.i.i.i.i.i.i.i.i.i.i.i.i.i.t.<X",
"i.i.i.i.i.i.i.i.i.i.i.i.k.<.8XwXwXeXhXkXwXpXdXiXiXdX0Xd.i.i.i.i.i.i.i.i.i.i.i.i.i.i.i.i.i.i.i.i.i.i.i.i.i.i.i.i.i.i.i.i.i.i.t.<X",
"i.i.i.i.i.i.i.i.i.i.i.i.t.f.7XeX6X4X5XeXwXaXfXfXfXjX-Xy.i.i.i.i.i.i.i.i.i.i.i.i.i.i.i.i.i.i.i.i.i.i.i.i.i.i.i.i.i.i.i.i.i.i.t.<X",
"i.i.i.i.i.i.i.i.i.i.i.i.i.t.<.4XwX6X4X4X6X7X7X7XqXhXuXi.i.i.i.i.i.i.i.i.i.i.i.i.i.i.i.i.i.i.i.i.i.i.i.i.i.i.i.i.i.i.i.i.i.i.t.<X",
"i.i.i.i.i.i.i.i.i.i.i.i.i.i.O.B.XX6X9X5X5X7XaXgXjX2Xi.t.i.i.i.i.i.i.i.i.i.i.i.i.i.i.i.i.i.i.i.i.i.i.i.i.i.i.i.i.i.i.i.i.i.i.t.<X",
"i.i.i.i.i.i.i.i.i.i.i.i.k.8.A C B.W.5X5XXX8XdXiX@X8.j.i.i.i.i.i.i.i.i.i.i.i.i.i.i.i.i.i.i.i.i.i.i.i.i.i.i.i.i.i.i.i.i.i.i.i.t.<X",
"i.i.i.i.i.i.i.i.i.i.i.u.j.,.v #.Z U B.B.W.oX.X'._ ,.t.k.j.k.i.i.i.i.i.i.i.i.i.i.i.i.i.i.i.i.i.i.i.i.i.i.i.i.i.i.i.i.i.i.i.i.t.<X",
"i.i.i.i.i.i.i.i.i.i.i.k.t.( z b S V B B T S $.-.( F._ *.2.d.i.j.j.k.i.i.i.i.i.i.i.i.i.i.i.i.i.i.i.i.i.i.i.i.i.i.i.i.i.i.i.i.t.<X",
"i.i.i.i.i.i.i.i.i.k.k.5.V z z d j A V 1 7 o.1.*.n.~.M.J P ~ %.<.h.d.i.j.i.i.i.i.i.i.i.i.i.i.i.i.i.i.i.i.i.i.i.i.i.i.i.i.i.i.t.<X",
"i.i.i.i.i.i.i.i.k.0.O.9 w c x l d d b R C o.=.( L.^.D.Q ! J J P P ~ `.s.t.i.i.i.i.i.i.i.i.i.i.i.i.i.i.i.i.i.i.i.i.i.i.i.i.i.t.<X",
"i.i.i.i.i.i.i.y.+.N q 8 8 h b.b.z d l S._ *.%.b L.^.F.) ! Y i ~ E W N.F. Xt.i.i.i.i.i.i.i.i.i.i.i.i.i.i.i.i.i.i.i.i.i.i.i.i.t.<X",
"i.i.i.i.i.i.y.R s y e 8 9 8 j Z.Z.x l z b ` ) c D.I.K.I Y ! u K ! E ~ ).Y.d.t.i.i.i.i.i.i.i.i.i.i.i.i.i.i.i.i.i.i.i.i.i.i.i.t.<X",
"i.i.i.i.i.k.0.F y r r 8 r e 0 n.A.Z.j j f h U x v I.L.I J ! F y ! P ~ H./.|.t.i.i.i.i.i.i.i.i.i.i.i.i.i.i.i.i.i.i.i.i.i.i.i.t.<X",
"i.i.i.i.i.k.0.y y y y 9 r u p k S.S.v x l j n.A.b.L.J.I G K Q r Q K W R.~.T.v.i.i.i.i.i.i.i.i.i.i.i.i.i.i.i.i.i.i.i.i.i.i.i.t.<X",
"i.i.i.i.i.k.0.n y y y r 9 y r r n.Z.b.A.Z.S.U.L.J.L.F.I J a ! u K K J N.L./.|.t.i.i.i.i.i.i.i.i.i.i.i.i.i.i.i.i.i.i.i.i.i.i.t.<X",
"i.i.i.i.i.k.0.M y n n u 9 y u u m S.b.Z.J.A.~.L.J.^.m.G J y ! G F K a N.J.^.`.p.i.i.i.i.i.i.i.i.i.i.i.i.i.i.i.i.i.i.i.i.i.i.t.<X",
"i.i.i.i.i.k.0.H u n F y 9 n u y t g F.Z.G.J.T.K.Z.L.v i K y Q Q F K y N.F.I.|.f.t.i.i.i.i.i.i.i.i.i.i.i.i.i.i.i.i.i.i.i.i.i.t.<X",
"i.i.i.i.i.k.0.H y y F y r n y r F p q n.A.J.R.T.G.S.U y Y i K ~ K Y y U S.L.W.%Xz.t.i.i.i.i.i.i.i.i.i.i.i.i.i.i.i.i.i.i.i.i.t.<X",
"i.i.i.i.i.k.0.H n u y F u n M u M G = = v K.U._.F.k M y Y i F ~ ! E y D m.~.T.{.g.t.i.i.i.i.i.i.i.i.i.i.i.i.i.i.i.i.i.i.i.i.t.<X",
"i.i.i.i.i.k.0.H D y y n n n F y y K n % % w b M.g i t i Y F F E Q ! F u n.^.~.Q.%Xt.i.i.i.i.i.i.i.i.i.i.i.i.i.i.i.i.i.i.i.i.t.<X",
"i.i.i.i.i.k.0.H F n y y n n L F y F F 9 @ X X & = r u F Y F F Y Y J ~ F n.^.~.~.Y.s.t.i.i.i.i.i.i.i.i.i.i.i.i.i.i.i.i.i.i.i.t.<X",
"i.i.i.i.i.k.0.F F n y y y n L L y n F t 8 X # & 0 G y G Y G F G Y B..XB.x U.~.^._.E.t.i.i.i.i.i.i.i.i.i.i.i.i.i.i.i.i.i.i.i.t.<X",
"i.i.i.i.i.k.7.u D D y y y y F L n y F y 9 * % * = y t y J F y B.oXXX.X/ b.P.~.^.(.Q.t.i.i.i.i.i.i.i.i.i.i.i.i.i.i.i.i.i.i.i.t.<X",
"i.i.i.i.i.k.7.e H H M N M M N R T N H N N e & < < N N N ) ~ m .X.XV.T g n.K.Y.Y._.!.t.i.i.i.i.i.i.i.i.i.i.i.i.i.i.i.i.i.i.i.t.<X",
"i.i.i.i.i.i.i.r.y.y.y.y.y.y.y.y.y.y.y.y.y.y.r.r.r.y.y.y.u.u.r.u.u.r.r.y.e.e.e.e.e.u.i.i.i.i.i.i.i.i.i.i.i.i.i.i.i.i.i.i.i.i.t.<X",
"i.i.i.i.i.i.i.i.i.i.i.k.k.i.i.i.i.i.i.i.i.i.i.i.i.i.i.i.i.i.k.i.t.k.k.i.i.i.i.i.t.i.i.i.i.i.i.i.i.i.i.i.i.i.i.i.i.i.i.i.i.i.t.<X",
"i.i.i.i.i.i.i.i.i.i.i.i.i.i.i.i.i.i.i.i.i.i.i.i.i.i.i.i.i.i.i.i.i.i.i.i.i.i.i.i.i.i.i.i.i.i.i.i.i.i.i.i.i.i.i.i.i.i.i.i.i.i.t.<X",
"t.t.t.t.t.t.t.t.t.t.t.t.t.t.t.t.t.t.t.t.t.t.t.t.t.t.t.t.t.t.t.t.t.t.t.t.t.t.t.t.t.t.t.t.t.t.t.t.t.t.t.t.t.t.t.t.t.t.t.t.t.t.a.c.",
"c.c.c.c.c.c.c.c.c.c.c.c.c.c.c.c.c.c.c.c.c.c.c.c.c.c.c.c.c.c.c.c.c.c.c.c.c.c.c.c.c.c.c.c.c.c.c.c.c.c.c.c.c.c.c.c.c.c.c.c.c.c.c.1X"
};
