/* XPM */
static char *_017d3388ebd47d3a25ada39c6148ce6PrJccWmTk2AfakzE[] = {
/* columns rows colors chars-per-pixel */
"64 50 138 2 ",
"   c #010101",
".  c #090807",
"X  c #0B0B0A",
"o  c #151515",
"O  c #1A1917",
"+  c #1D1D1D",
"@  c #22211F",
"#  c #242424",
"$  c #282625",
"%  c #2B2B2B",
"&  c #31302E",
"*  c #343434",
"=  c #3B3A3A",
"-  c #41403F",
";  c #444444",
":  c #4C4C4C",
">  c #535353",
",  c #5D5D5D",
"<  c #5B5F67",
"1  c #5F646C",
"2  c #646463",
"3  c #686765",
"4  c #63676F",
"5  c #6C6C6C",
"6  c #706F6D",
"7  c #72716F",
"8  c #6F737B",
"9  c #737373",
"0  c #7C7C7C",
"q  c #FDB64B",
"w  c #FFB84D",
"e  c #FFBA52",
"r  c #FFBD5A",
"t  c #FFC56E",
"y  c #FFCB7D",
"u  c #747981",
"i  c #7F7F80",
"p  c #7B8088",
"a  c #848484",
"s  c #8C8C8C",
"d  c #8E939B",
"f  c #939393",
"g  c #9C9C9C",
"h  c #A1A19F",
"j  c #A4A4A4",
"k  c #ACACAC",
"l  c #B0AFAD",
"z  c #AAAEB1",
"x  c #AFB0B0",
"c  c #ADB2BB",
"v  c #B4B4B4",
"b  c #B0B4B9",
"n  c #BBBBBB",
"m  c #FFCD82",
"M  c #FFD085",
"N  c #FFD68C",
"B  c #FFDA8F",
"V  c #EBC795",
"C  c #ECC997",
"Z  c #F2CF9D",
"A  c #FFDF94",
"S  c #FFD89D",
"D  c #FAD8A6",
"F  c #FFDDAB",
"G  c #FCDEB1",
"H  c #FEE2AF",
"J  c #FEE2B4",
"K  c #FFE7BA",
"L  c #FFEBBA",
"P  c #BDC2C6",
"I  c #BDC2C9",
"U  c #C4C4C4",
"Y  c #C3C6CA",
"T  c #CBCBCB",
"R  c #D0CFCE",
"E  c #D2D1CF",
"W  c #CFD2D6",
"Q  c #D5D5D5",
"!  c gray84",
"~  c #D2D2D1",
"^  c #D9D9D9",
"/  c gray86",
"(  c #DCDCDC",
")  c #DADEE6",
"_  c #DFE4EB",
"`  c #E1E1E1",
"'  c gray89",
"]  c #E2E2E2",
"[  c gray90",
"{  c #E6E6E6",
"}  c #E7E7E7",
"|  c #E2E2E2",
" . c #E8E6E5",
".. c gray91",
"X. c #E9E9E9",
"o. c gray92",
"O. c #ECECEC",
"+. c gray93",
"@. c #EEEEEE",
"#. c #EFEFEF",
"$. c #ECECEC",
"%. c #F2F0EF",
"&. c #E5EAF1",
"*. c #EDF2F9",
"=. c gray94",
"-. c #F1F1F1",
";. c #F5F5F5",
":. c #F5F4F4",
">. c #FAF9F7",
",. c #F9F8F6",
"<. c #F2F7FF",
"1. c #F5FAFF",
"2. c #F8F8F8",
"3. c #F9F9F9",
"4. c #FAF9F8",
"5. c #FBFAF8",
"6. c gray98",
"7. c #FBFBFA",
"8. c #FBFBFB",
"9. c #FDFCFA",
"0. c #FDFCFB",
"q. c #FEFDFB",
"w. c #FEFCF8",
"e. c #F8FAFF",
"r. c #FAFFFF",
"t. c gray99",
"y. c #FDFDFD",
"u. c #FEFDFC",
"i. c #FFFDFC",
"p. c #FFFEFC",
"a. c #FDFDFE",
"s. c #FDFEFF",
"d. c #FDFFFF",
"f. c #FEFEFE",
"g. c #FEFEFF",
"h. c #FEFFFF",
"j. c white",
"k. c #FEFEFE",
/* pixels */
"r r r r r r r r r r r r r r r r r r r r r r r r r r r r r r r r r r r r r r r r r r r r r r r r r r r r r r r r r r r r r r e m ",
"r r r r r r r r r r r r r r r r r r r r r r r r r r r r r r r r r r r r r r r r r r r r r r r r r r r r r r r r r r r r r r e m ",
"r r r r r r r r r r r r r r r r r r r r r r r r r r r r r r r r r r r r r r r r r r r r r r r r r r r r r r r r r r r r r r e m ",
"r r r r r r r r r r r r r r r r r r r r r r r r r r r r r r r r r r r r r r r r r r r r r r r r r r r r r r r r r r r r r r e m ",
"r r r r r r e q q q q e w q q q q e w w q q q q w w w w w w w w w w w w w w w w w w w w w w w w w w w w w w w w e r r r r r e m ",
"r r r r r e t J L L H C Z J H H J V D F J J F L F F F F F F F F F F F F F F F F F F F F F F F F F F F F F F F G m e r r r r e m ",
"r r r r r e N c u p e.8 z P T Y b < W g.I 4 1 d g.g.g.g.g.g.g.g.g.g.g.g.g.g.g.g.g.g.g.g.g.g.g.g.g.g.g.g.g.g.g.g.J w r r r r e m ",
"r r r r r e M T g % R 2 k 0 9 5 6 , T %.& T >.> f g.7.q.q.q.q.q.g.g.q.q.q.g.g.q.q.q.q.q.q.q.q.q.g.g.q.q.q.q.q.g.J w r r r r e m ",
"r r r r r e N i > 9 f O n a ; ; a > : X.* v ' ; g g.7.g.g.g.g.g.g.g.g.g.g.g.g.g.g.g.g.g.g.g.g.g.g.g.g.g.g.g.q.g.J w r r r r e m ",
"r r r r r w B , 0 U Q , v 0 a 0 9 , n g.' , * n g.g.g.g.g.g.g.g.g.g.g.g.g.g.g.g.g.g.g.g.g.g.g.g.g.g.g.g.g.g.q.g.J w r r r r e m ",
"r r r r r e N g , 2 U 5 j n > , v > Q T j 5 = k g 7.g.g.g.g.g.g.g.g.g.g.g.g.g.g.g.g.g.g.g.g.g.g.g.g.g.g.g.g.g.g.J w r r r r e m ",
"r r r r r e m g.g.g.g.5 g g.7.g.g.: ^ T a g g s g 7.g.g.g.g.g.g.g.g.g.g.g.g.7.7.7.7.7.g.g.g.g.g.g.g.g.g.g.g.g.g.J w r r r r e m ",
"r r r r r e m g.g.7.g.X.=.g.g.g.g.} 7.g.g.g.g.g.g.g.g.g.g.g.g.g.g.g.g.g.g.g.g.g.g.g.g.g.g.g.} k n %.g.g.g.g.q.g.J w r r r r e m ",
"r r r r r e m g.g.g.g.g.g.g.g.g.g.g.g.g.7.7.7.7.7.g.g.g.g.g.g.g.g.g.g.g.( v j f f f g j T U %     * Q g.7.g.q.g.J w r r r r e m ",
"r r r r r e m g.g.g.g.g.g.g.g.g.g.g.g.g.g.g.g.g.g.g.g.g.g.g.g.g.g.=.j 0 5 0 g n T T v s 9 =     .   ; g.g.g.g.g.J w r r r r e m ",
"r r r r r e m g.g.g.g.g.g.g.g.g.g.g.g.g.g.g.g.g.g.g.g.g.g.g.7.g.U 2 a ~ g.g.g.g.g.g.g.g.g.@.g %     X } g.g.q.g.J w r r r r e m ",
"r r r r r e m g.g.g.g.g.g.g.g.g.g.g.g.g.7.g.g.g.7.g.g.g.g.7.g.v ; ^ g.g.g.7.7.g.g.g.g.7.7.g.g.@.5   % ;.g.g.q.g.J w r r r r e m ",
"r r r r r e m g.g.g.g.g.g.g.g.g.g.g.g.g.g.g.7.g.g.g.g.g.g.g.s X X U g.7.g.g.g.g.g.g.g.g.g.g.7.g.g.5 > g.7.g.q.g.J w r r r r e m ",
"r r r r r e m g.g.g.g.g.g.g.g.g.g.;.7.g.j : = : f @.g.g.U ;   .   * 7.g.g.g.g.g.g.g.g.g.g.g.g.q.g.g.9 v g.7.q.g.J w r r r r e m ",
"r r r r r e m g.g.g.g.g.g.q.g.' 7 % * > .         = n , .           j g.7.g.g.g.g.g.g.g.g.g.g.g.7.g.' , @.g.q.g.J w r r r r e m ",
"r r r r r e m g.g.g.g.g.g.g.@.#   X % .             .               > g.g.g.g.g.g.g.g.g.g.g.g.g.g.7.g.g s g.7.g.J w r r r r e m ",
"r r r r r e m g.g.g.g.q.g.g.9 * f ^ 7.*               .             O } g.g.g.g.g.g.g.g.g.g.g.g.g.7.g.;., } g.g.J w r r r r e m ",
"r r r r r e m g.g.g.q.g.@.2 s 7.g.g.g.,         .   2 O               U g.7.g.g.g.g.g.g.g.g.7.g.g.g.g.g.a k g.r.J w r r r r e m ",
"r r r r r e m g.g.g.g.;., v g.g.g.g.g.X.>         # ;.,               j g.7.g.g.g.g.g.g.g.g.g.%.U k U g.( 0 g.g.J w r r r r e m ",
"r r r r r e m g.g.7.g.a f g.7.g.g.g.g.g.7.n f a s T g.g               f g.7.g.g.g.g.g.g.g.@.9 # .   . % f 2  .g.J w r r r r e m ",
"r r r r r e m g.g.g.~ , g.g.7.7.q.g.g.g.g.g.g.g.g.7.g.n               f g.7.g.g.g.g.g.g.X.=             . + Q g.G w r r r r e m ",
"r r r r r e m g.7.g.f j g.7.g.g.g.g.g.g.g.g.7.7.7.7.g.T .             f g.7.g.g.g.g.7.g.a   .               l g.G w r r r r e m ",
"r r r r r e m g.g.q.5 X.g.;.j a v 7.g.g.g.g.g.g.g.g.g.^ .             f g.7.g.g.g.g.g.;.%                   7 g.G w r r r r e m ",
"r r r r r e m g.g.' 2 7.g.2       > X.g.q.g.g.g.g.g.g.' X             j g.g.g.g.g.g.g.^ .                   = g.J w r r r r e m ",
"r r r r r e m g.g.^ 5 g.n           ; @.g.g.g.g.g.g.g.' X             v g.7.g.g.g.7.g.v                     @ <.J w r r r r e m ",
"r r r r r e m g.X.h 5 g.5         .   0 g.7.g.g.g.g.g.( .           . T g.g.g.g.g.7.g.g                     o &.K q r r r r e m ",
"r r r r r w N v O   = g.;             o ` g.g.g.g.g.g.Q .           # ;.g.g.7.g.g.7.g.s                     X ) K q r r r r e m ",
"r r r r r q A 9     + ;.;               v g.g.g.g.g.g.T             + v =.g.g.g.g.7.g.a                     . ) L q r r r r e m ",
"r r r r r q B x     > g.2   .           v g.7.g.g.7.g.n                 # : f @.g.7.g.f                     X _ K q r r r r e m ",
"r r r r r e m g.: > } g.U X           + X.g.g.g.g.7.g.j                       = ' g.g.k                     O *.J w r r r r e m ",
"r r r r r e m g.a v g.7.g.v *       o v g.g.g.g.g.7.g.f                     .   : g.g.T                     $ 1.J w r r r r e m ",
"r r r r r e m g.~ 5 g.7.g.g.7.U j j ( g.7.g.g.g.g.7.g.9   .                       n g.;.%                   - g.J w r r r r e m ",
"r r r r r e m g.g.5 n g.7.7.g.g.g.g.g.g.g.g.g.g.g.g.g.:                           g g.n *               .   3 g.G w r r r r e m ",
"r r r r r e m g.g.' > n g.g.g.g.7.7.7.7.7.7.7.7.g.g.;.#   .                       % #                   .   h g.G w r r r r e m ",
"r r r r r e m g.7.g.U ; 5 j ~ @.g.g.g.g.g.g.g.g.g.7.U .                     .   O % O # +                 X E g.G w r r r r e m ",
"r r r r r e m g.g.g.g.;.n a 5 5 0 a s s a a a 9 2 ; * = = * * = O             X , a 9 0 9 % O O # * ; , 9 k :.g.J w r r r r e m ",
"r r r r r e m g.g.g.q.g.g.g.g.=.' ~ U v k j j j j k v n v v v k j 9 > * % ; 5 g v k v n n U T ~ ( @.g.g.g.g.q.g.J w r r r r e m ",
"r r r r r e m g.g.q.g.g.q.7.w.g.g.g.g.g.g.g.g.g.g.g.g.g.g.g.g.g.g.g.g.>.=.q.g.g.g.g.g.g.g.g.g.g.g.g.g.w.7.w.q.g.J w r r r r e m ",
"r r r r r e m g.g.g.g.g.g.g.g.g.g.g.g.g.g.g.g.g.g.g.g.g.g.g.g.g.g.g.g.g.g.g.g.g.g.g.g.g.g.g.g.g.g.g.g.g.g.g.g.g.J w r r r r e m ",
"r r r r r e t F F F F F F F F F F F F F F F F F F F F F F F F F F F F F F F F F F F F F F F F F F F F F F F F G m e r r r r e m ",
"r r r r r r e w w w w w w w w w w w w w w w w w w w w w w w w w w w w w w w w w w w w w w w w w w w w w w w w w e r r r r r e m ",
"r r r r r r r r r r r r r r r r r r r r r r r r r r r r r r r r r r r r r r r r r r r r r r r r r r r r r r r r r r r r r r e m ",
"r r r r r r r r r r r r r r r r r r r r r r r r r r r r r r r r r r r r r r r r r r r r r r r r r r r r r r r r r r r r r r e m ",
"e e e e e e e e e e e e e e e e e e e e e e e e e e e e e e e e e e e e e e e e e e e e e e e e e e e e e e e e e e e e e e w y ",
"y y y y y y y y y y y y y y y y y y y y y y y y y y y y y y y y y y y y y y y y y y y y y y y y y y y y y y y y y y y y y y y S "
};
