/* XPM */
static char *_89c238ae0fb4e7798d376d7c562871cY3Gty5IM2MI6fNhp[] = {
/* columns rows colors chars-per-pixel */
"10 10 69 1 ",
"  c #FF2E23",
". c #FF2E26",
"X c #FA302E",
"o c #FB302F",
"O c #FF312F",
"+ c #EB3239",
"@ c #EC343C",
"# c #FB3031",
"$ c #FF3131",
"% c #FC3232",
"& c #FC3234",
"* c #F03339",
"= c #AE467A",
"- c #B84472",
"; c #B84474",
": c #003AA2",
"> c #003DA7",
", c #003DA8",
"< c #013EA8",
"1 c #0C469F",
"2 c #004BA9",
"3 c #0048AA",
"4 c #004AAF",
"5 c #044DAE",
"6 c #054DAF",
"7 c #054EAF",
"8 c #1048A5",
"9 c #1148A6",
"0 c #1149A6",
"q c #014AB0",
"w c #014BB0",
"e c #174CC7",
"r c #1D58CC",
"t c #2857C6",
"y c #215BCB",
"u c #395CFF",
"i c #3961EE",
"p c #3F68FF",
"a c #6F63CE",
"s c #6C63D1",
"d c #486BED",
"f c #486EEF",
"g c #456CF0",
"h c #4567FE",
"j c #4667FF",
"k c #4767FF",
"l c #4769FF",
"z c #4A69FF",
"x c #4872FF",
"c c #4972FF",
"v c #5171FE",
"b c #5471FE",
"n c #5473FE",
"m c #5573FF",
"M c #5874FF",
"N c #729BD1",
"B c #759CD4",
"V c #759CD5",
"C c #769CD5",
"Z c #86A5E4",
"A c #9EAFFF",
"S c #9CB1F7",
"D c #A1B3FE",
"F c #A4B4FF",
"G c #A6B5FF",
"H c #AAB7FD",
"J c #A8B8FE",
"K c #A9B9FE",
"L c #D1D9FF",
/* pixels */
"bx;.&$#apH",
"bx;.&$#apH",
"bx;.&$#apH",
"bx- $OoapH",
"bx=o@*+spH",
"vbt1000dhK",
"vbr2q4qghK",
"bMy2666fzK",
"hle:<><iuD",
"FFZNBBBSAL"
};
