/* XPM */
static char *_7ce248bf841460f87202be99b85caa9Lh4Noam5M7tKLna8[] = {
/* columns rows colors chars-per-pixel */
"11 10 63 1 ",
"  c #FF2321",
". c #FF2322",
"X c #FF2323",
"o c #F0252B",
"O c #F92828",
"+ c #F9282A",
"@ c #FB292B",
"# c #E92A33",
"$ c #EF363C",
"% c #FF3330",
"& c #FF3332",
"* c #FE3433",
"= c #FE3435",
"- c #FF3435",
"; c #F0353A",
": c #003B9F",
"> c #0038A5",
", c #003EA7",
"< c #003DA9",
"1 c #0F47A4",
"2 c #0046AB",
"3 c #014BAD",
"4 c #004AAF",
"5 c #0549AD",
"6 c #064EAF",
"7 c #1048A5",
"8 c #144BA7",
"9 c #054DB0",
"0 c #7898CC",
"q c #7098D0",
"w c #719AD1",
"e c #709AD2",
"r c #EA848C",
"t c #F18287",
"y c #F28286",
"u c #F28287",
"i c #F78689",
"p c #EBB1B8",
"a c #EAB1B9",
"s c #EBB1B9",
"d c #E8B4BC",
"f c #F2B6BC",
"g c #A6C0E2",
"h c #ACC4E4",
"j c #AEC5E5",
"k c #C2D3EB",
"l c #C6D2E8",
"z c #C3D4EB",
"x c #C2D5EC",
"c c #D1DEF0",
"v c #EBF1F9",
"b c #FBFCFE",
"n c #FBFFFF",
"m c #FEFCFC",
"M c #FFFCFC",
"N c #FFFDFC",
"B c #FFFDFD",
"V c #FCFCFE",
"C c #FCFDFE",
"Z c #FDFDFE",
"A c #FCFFFF",
"S c #FEFEFF",
"D c white",
/* pixels */
"MMfO&=.iMMM",
"MMsO*=.tbMM",
"MMsO&=.tbMM",
"MMsO&*.tbMM",
"MMd#;$orMMM",
"MMl178:0MMM",
"MMx449<eMbM",
"MMz446,eMbM",
"MMk225>eMbM",
"MMvhhhgcMMM"
};
