/* XPM */
static char *be4366a81672452585b56a5c28975d45XCzLtctPQjodOK1D[] = {
/* columns rows colors chars-per-pixel */
"64 50 140 2 ",
"   c #010101",
".  c #090807",
"X  c #0B0B0A",
"o  c #151514",
"O  c #1A1917",
"+  c #1D1D1D",
"@  c #22211F",
"#  c #242424",
"$  c #282625",
"%  c #2B2B2B",
"&  c #343434",
"*  c #3A3A3A",
"=  c #41403F",
"-  c #373D45",
";  c #434343",
":  c #4C4C4C",
">  c #51504F",
",  c #545454",
"<  c #5D5D5D",
"1  c #605F5F",
"2  c #5F646C",
"3  c #646363",
"4  c #686766",
"5  c #61656D",
"6  c #6C6C6B",
"7  c #706F6D",
"8  c #72716F",
"9  c #676C74",
"0  c #696F77",
"q  c #747474",
"w  c #7C7B7B",
"e  c #FDB74C",
"r  c #FFB84D",
"t  c #FFBA52",
"y  c #FFBD5A",
"u  c #FFC66E",
"i  c #FFCB7D",
"p  c #727780",
"a  c #797D81",
"s  c #848383",
"d  c #81868F",
"f  c #8C8C8C",
"g  c #868B92",
"h  c #939393",
"j  c #999896",
"k  c #979A9E",
"l  c #9B9B9B",
"z  c #A1A09F",
"x  c #A4A4A4",
"c  c #ABABAB",
"v  c #B0AFAD",
"b  c #AFB0B0",
"n  c #AFB4BC",
"m  c #B4B4B4",
"M  c #BBBCBC",
"N  c #FFCD82",
"B  c #FFD58B",
"V  c #FFD98E",
"C  c #ECC997",
"Z  c #EDCB99",
"A  c #F0CD9A",
"S  c #FFDF94",
"D  c #FFD89D",
"F  c #F6D4A3",
"G  c #FAD9A6",
"H  c #FFDDAB",
"J  c #FCDEB1",
"K  c #FEE0AD",
"L  c #FEE2B4",
"P  c #FFE7BA",
"I  c #FFEBB9",
"U  c #C4C4C4",
"Y  c #C7C7C8",
"T  c #CCCCCC",
"R  c #D0CFCF",
"E  c #D2D1CF",
"W  c #CBCED2",
"Q  c #CCD1D5",
"!  c gray84",
"~  c #D2D2D1",
"^  c #D4D6D9",
"/  c gray85",
"(  c #DADADA",
")  c #DCDCDC",
"_  c #DADEE6",
"`  c #DCE0E5",
"'  c #DFE4EB",
"]  c #E1E1E1",
"[  c gray89",
"{  c #E1E4E7",
"}  c #E6E6E6",
"|  c #E7E7E7",
" . c #E2E2E2",
".. c #E8E6E5",
"X. c #EAEAE9",
"o. c #EAEAEA",
"O. c gray92",
"+. c gray91",
"@. c #ECECEC",
"#. c gray93",
"$. c #EEEEEE",
"%. c #EFEFEF",
"&. c #ECECEC",
"*. c #F0EFEE",
"=. c #E5EAF1",
"-. c #EDF2F9",
";. c gray94",
":. c #F1F1F1",
">. c #F5F5F5",
",. c #F4F4F4",
"<. c #F9F8F6",
"1. c #F4F7FB",
"2. c #F2F7FF",
"3. c #F5FAFF",
"4. c #F8F8F8",
"5. c #F9F9F9",
"6. c #FAF9F8",
"7. c gray98",
"8. c #FBFBFB",
"9. c #FDFCFA",
"0. c #FDFCFB",
"q. c #FEFDFB",
"w. c #FEFCF8",
"e. c #FBFBFC",
"r. c #FBFCFD",
"t. c gray99",
"y. c #FDFDFD",
"u. c #FEFDFC",
"i. c #FFFDFC",
"p. c #FFFEFC",
"a. c #FDFDFE",
"s. c #FDFEFF",
"d. c #FDFFFF",
"f. c #FEFEFE",
"g. c #FFFEFE",
"h. c #FFFFFE",
"j. c #FEFEFF",
"k. c #FEFFFF",
"l. c white",
"z. c #FEFEFE",
/* pixels */
"y y y y y y y y y y y y y y y y y y y y y y y y y y y y y y y y y y y y y y y y y y y y y y y y y y y y y y y y y y y y y y t N ",
"y y y y y y y y y y y y y y y y y y y y y y y y y y y y y y y y y y y y y y y y y y y y y y y y y y y y y y y y y y y y y y t N ",
"y y y y y y y y y y y y y y y y y y y y y y y y y y y y y y y y y y y y y y y y y y y y y y y y y y y y y y y y y y y y y y t N ",
"y y y y y y y y y y y y y y y y y y y y y y y y y y y y y y y y y y y y y y y y y y y y y y y y y y y y y y y y y y y y y y t N ",
"y y y y y y t r t t t r r r e e e r r e e r e t r r e e r e r r r r r r r r r r r r r r r r r r r r r r r r r r t y y y y y t N ",
"y y y y y t u G Z Z Z F H H I I L Z A L L K L C F H L L H I H H H H H H H H H H H H H H H H H H H H H H H H H J N t y y y y t N ",
"y y y y y t B ` 9 5 2 - { j.g p j.a k W M ^ n 0 m j.Q 9 5 d 1.j.j.j.j.j.j.j.j.j.j.j.j.j.j.j.j.j.j.j.j.j.j.j.j.j.L r y y y y t N ",
"y y y y y t B R > 7 6 & *.z , 3 h w j h 1 s 6 4 c j.& m j.3 w j.8.j.0.0.0.j.j.0.0.0.0.0.0.0.0.0.j.j.0.0.0.0.0.j.L r y y y y t N ",
"y y y y y r V Y % q q w 8.q x T q q l x * : q 3 * X.; l X., s j.8.j.j.j.j.j.j.j.j.j.j.j.j.j.j.j.j.j.j.j.j.j.0.j.L r y y y y t N ",
"y y y y y t N l , , , ; m j 3 q f w l h 6 j 6 6 l j.X.q % c j.j.j.j.j.j.j.j.j.j.j.j.j.j.j.j.j.j.j.j.j.j.j.j.0.j.L r y y y y t N ",
"y y y y y t N m m : < m M 8.q < j.q h ~ < < c 3 m ( l s % x l @.j.j.j.j.j.j.j.j.j.j.j.j.j.j.j.j.j.j.j.j.j.j.j.j.L r y y y y t N ",
"y y y y y t N e.j.w h j.8.j.j.8.j.q f j.8.j.j.< M ) f j l h l @.j.j.j.j.j.j.8.8.8.8.8.j.j.j.j.j.j.j.j.j.j.j.j.j.L r y y y y t N ",
"y y y y y t N r.j.X.@.j.j.j.0.0.j.X.@.j.8.j.j.X.,.j.j.j.j.j.j.j.j.j.j.j.j.j.j.j.j.j.j.j.j.j.} c M ;.j.j.j.j.0.j.L r y y y y t N ",
"y y y y y t N j.j.j.j.j.j.j.j.j.j.j.j.j.j.j.j.j.j.j.8.8.8.8.8.j.j.j.j.j.) m x j h h l x T Y %     & ! j.8.j.0.j.L r y y y y t N ",
"y y y y y t N j.j.j.j.j.j.j.j.j.j.j.j.j.j.j.j.j.j.j.j.j.j.j.j.j.j.,.x w 6 w l M T Y m f q *     .   ; j.j.j.j.j.L r y y y y t N ",
"y y y y y t N j.j.j.j.j.j.j.j.j.j.j.j.j.j.j.j.j.j.j.j.j.j.j.8.j.Y 3 s ~ j.j.j.j.j.j.j.j.j.@.l %     X } j.j.0.j.L r y y y y t N ",
"y y y y y t N j.j.j.j.j.j.j.j.j.j.j.j.j.8.j.j.j.8.j.j.j.j.8.j.m ; ( j.j.j.8.8.j.j.j.j.8.8.j.j.@.6   % ,.j.j.0.j.L r y y y y t N ",
"y y y y y t N j.j.j.j.j.j.j.j.j.j.j.j.j.j.j.8.j.j.j.j.j.j.j.f X X U j.8.j.j.j.j.j.j.j.j.j.j.8.j.j.6 , j.8.j.0.j.L r y y y y t N ",
"y y y y y t N j.j.j.j.j.j.j.j.j.j.,.8.j.x : * : h @.j.j.U =   .   & 8.j.j.j.j.j.j.j.j.j.j.j.j.0.j.j.q m j.8.0.j.L r y y y y t N ",
"y y y y y t N j.j.j.j.j.j.j.j.] q % & , .         * M < .           x j.8.j.j.j.j.j.j.j.j.j.j.j.8.j.] < @.j.0.j.L r y y y y t N ",
"y y y y y t N j.j.j.j.j.j.j.@.#   X % .             .               , j.j.j.j.j.j.j.j.j.j.j.j.j.j.8.j.l f j.8.j.L r y y y y t N ",
"y y y y y t N j.j.j.j.0.j.j.q & h ( 8.&               .             O } j.j.j.j.j.j.j.j.j.j.j.j.j.8.j.,.< } j.j.L r y y y y t N ",
"y y y y y t N j.j.j.0.j.@.3 f 8.j.j.j.<         .   3 O               U j.8.j.j.j.j.j.j.j.j.8.j.j.j.j.j.s c j.r.L r y y y y t N ",
"y y y y y t N j.j.j.j.,.< m j.j.j.j.j.X.,         # ,.<               x j.8.j.j.j.j.j.j.j.j.j.;.Y c Y j.) w j.j.L r y y y y t N ",
"y y y y y t N j.j.8.j.s j j.8.j.j.j.j.j.4.M h s f T j.l               j j.8.j.j.j.j.j.j.j.@.q # .     # h 3 ..j.L r y y y y t N ",
"y y y y y t N j.j.j.~ < j.j.8.8.0.j.j.j.j.j.j.j.j.8.j.M               h j.8.j.j.j.j.j.j.X.*             . + ! j.J r y y y y t N ",
"y y y y y t N j.8.j.h x j.8.j.j.j.j.j.j.j.j.8.8.8.8.j.T .             h j.8.j.j.j.j.8.j.s   .               v j.J r y y y y t N ",
"y y y y y t N j.j.0.6 X.j.,.x s m 8.j.j.j.j.j.j.j.j.j.( .             j j.8.j.j.j.j.j.,.%               .   8 j.J r y y y y t N ",
"y y y y y t N j.j.] 3 8.j.3       , X.j.j.j.j.j.j.j.j.] X             x j.j.j.j.j.j.j.( .                   * j.L r y y y y t N ",
"y y y y y t N j.j.( 6 j.M           ; @.j.j.j.j.j.j.j.] X             m j.8.j.j.j.8.j.m                     @ 2.L r y y y y t N ",
"y y y y y t N j.X.z 6 j.6   .     .   w j.8.j.j.j.j.j.) .           . T j.j.j.j.j.8.j.l                     o =.P r y y y y t N ",
"y y y y y r V m O   * j.;             o ] j.j.j.j.j.j.! .           # ,.j.j.8.j.j.8.j.f                     X _ P r y y y y t N ",
"y y y y y e S q     + ,.;               m j.j.j.j.j.j.Y             + m ,.j.j.j.j.8.j.f                     . _ I r y y y y t N ",
"y y y y y r V b     , j.3   .           m j.8.j.j.8.j.M                 # : j @.j.8.j.j                     X ' P r y y y y t N ",
"y y y y y t N j.: , } j.Y X           + X.j.j.j.j.8.j.x                       * ] j.j.c                     O -.L r y y y y t N ",
"y y y y y t N j.s m j.8.j.m &       o m j.j.j.j.j.8.j.j                     .   : j.j.Y                     $ 3.L r y y y y t N ",
"y y y y y t N j.~ 6 j.8.j.j.8.Y x x ) j.8.j.j.j.j.8.j.q   .                       M j.,.%                   = j.L r y y y y t N ",
"y y y y y t N j.j.6 M j.8.8.j.j.j.j.j.j.j.j.j.j.j.j.j.:                           l j.M &               .   4 j.J r y y y y t N ",
"y y y y y t N j.j.] , M j.j.j.j.8.8.8.8.8.8.8.8.j.j.,.#   .                       % #                   .   z j.J r y y y y t N ",
"y y y y y t N j.8.j.U ; 6 x ~ @.j.j.j.j.j.j.j.j.j.8.U .                     .   O % O # +                 X E j.J r y y y y t N ",
"y y y y y t N j.j.j.j.,.M s 6 6 w s f f f f s q 3 ; & * * & & * O             X < s q w q % O O # & ; < q c ,.j.L r y y y y t N ",
"y y y y y t N j.j.j.0.j.j.j.j.,.] ~ U m c x x x x c m M m m m c x q , & % ; 6 l m c m M M Y Y ~ ) @.j.j.j.j.0.j.L r y y y y t N ",
"y y y y y t N j.j.0.j.j.0.8.w.j.j.j.j.j.j.j.j.j.j.j.j.j.j.j.j.j.j.j.j.4.,.0.j.j.j.j.j.j.j.j.j.j.j.j.j.w.8.w.0.j.L r y y y y t N ",
"y y y y y t N j.j.j.j.j.j.j.j.j.j.j.j.j.j.j.j.j.j.j.j.j.j.j.j.j.j.j.j.j.j.j.j.j.j.j.j.j.j.j.j.j.j.j.j.j.j.j.j.j.L r y y y y t N ",
"y y y y y t u H H H H H H H H H H H H H H H H H H H H H H H H H H H H H H H H H H H H H H H H H H H H H H H H J N t y y y y t N ",
"y y y y y y t r r r r r r r r r r r r r r r r r r r r r r r r r r r r r r r r r r r r r r r r r r r r r r r r r t y y y y y t N ",
"y y y y y y y y y y y y y y y y y y y y y y y y y y y y y y y y y y y y y y y y y y y y y y y y y y y y y y y y y y y y y y t N ",
"y y y y y y y y y y y y y y y y y y y y y y y y y y y y y y y y y y y y y y y y y y y y y y y y y y y y y y y y y y y y y y t N ",
"t t t t t t t t t t t t t t t t t t t t t t t t t t t t t t t t t t t t t t t t t t t t t t t t t t t t t t t t t t t t t t r i ",
"i i i i i i i i i i i i i i i i i i i i i i i i i i i i i i i i i i i i i i i i i i i i i i i i i i i i i i i i i i i i i i i D "
};
