/* XPM */
static char *result[] = {
/* columns rows colors chars-per-pixel */
"240 43 16 1 ",
"  c #E8473D",
". c #F9DE70",
"X c #E8443C",
"o c #FAE271",
"O c #F9E070",
"+ c #EE734C",
"@ c #F9D76E",
"# c #F19557",
"$ c #F5B562",
"% c #EC6447",
"& c #F8CF6B",
"* c #F6C367",
"= c #E94B3E",
"- c #EA5341",
"; c #F3A45C",
": c #EF8251",
/* pixels */
"                                                                                                                                                                                                                                                ",
"                                                                                                                                                                                                                                                ",
"                                                                                                                                                                                                                                                ",
"                                                                                                                                                                                                                                                ",
"                                                                                                                                                                                                                                                ",
"                                                                                                                                                                                                                                                ",
"                                                                                                                                                                                                                                                ",
"                                                                                                                                                                                                                                                ",
"                                                                                                                                                                                                                                                ",
"                                                                                                                                                                                                                                                ",
"                                                                           XX=----=XX      XXXXXXXXXXXXXXXX          XXXXX            XXXXXXXXXXXX       XXXXXXXXXXXXXXXX                                                                       ",
"                                                                           %:;;$$;;:%=   =:################:=      =+#####%          :#########:+%=    =:################:                                                                      ",
"                                                                         -#*@OOOOOO.*;%  -$oooooooooooooooo$-      -*ooooo#=         $ooooooooO.@*#%   -$oooooooooooooooo$=                                                                     ",
"                                                                        -;@O..OOO...O.$%X-$o..............O$-      +@.....*-         $O...OOOOO..O.*%  -$................$=                                                                     ",
"                                                                        #@....***@...O*%X-;@&&&&@....@&&&&@;-      ;......@+         $O..@*****@....;= -$&&&&&@....@&&&&&;=                                                                     ",
"                                                                       -$O..*:%%%+:*.@:  =%+++++#@..@#+++++%=     -*O......;=        $O..$%%%%%:*...&% =%+++++#@..@#+++++%                                                                      ",
"                                                                      X+&..@:X XXX %;#=   XXXXXX+@..@+XXXXXX     X:@..*;@..*-        $O..$=XXXX +@..@:X XXXXXX+@..&+XXXXXX                                                                      ",
"                                                                      X+@..&+X     X==         X+@..@+X          =;O.O#%&..@:        $O..$=     -&..@:X       +@..&+                                                                            ",
"                                                                      X%&...#=                 X+@..@+X         X%*..@:=$...;=       $O..$=     -&..@:X       +@..&+                                                                            ",
"                                                                      X%$O..&;+-==XX           X+@..@+X         =+..O*% :..O*%X      $O..$=XXXX +@.O*%       =+@..&+                                                                            ",
"                                                                        #.....@*$#+%=X         X+@..@+X         =;...; X%&...:X      $O..$%%%%%:*..@#         +@..&+                                                                            ",
"                                                                        -;........@*;%         X+@..@+X        X%&..@:  -;O.O;-      $O..@****&...&#-        =+@..&+                                                                            ",
"                                                                         %#&.OO....OO*:=       X+@..@+X         :@..*-   :...&%X     $O...OOO....$+=          +@..&+                                                                            ",
"                                                                          =%#$&@.O...O&+       X+@..@+X        =$...; XXX%*O..:      $O.....OO...$%          =+@..&+                                                                            ",
"                                                                             -%:#$@....$-      X+@..@+X        %&O..#%%%%+*O..$-     $O..*###;&...$%          +@..&+                                                                            ",
"                                                                               X -:*...@%      X+@..@+X       X#....&*&***@...&%     $O..$ XX=:&..O#=        =+@..&+                                                                            ",
"                                                                         -=      X #@..@+      X+@..@+X       -$O....OOOoO.....#     $O..$=    ;...&%         +@..&+                                                                            ",
"                                                                       X%;:=      X:@..@+      X+@..@+X      X+&...OOOOOOOOO...$-    $O..$=   X+&..@:        =+@..&+                                                                            ",
"                                                                       -;.@#-      #@..@+      X+@..@+X       #...&;;;;;;;;$...&+X   $O..$=    -$...$=        +@..&+                                                                            ",
"                                                                      =#...@;+----:*..O*-      X+@..@+X      -$..O;-=======%&...#    $O..$=     #...&%       =+@..&+                                                                            ",
"                                                                      =#@....@*$$*@....#=      X+@..@+X      +@..@:X       -$..O$-X  $O..$=     %@..@:X       +@..&+                                                                            ",
"                                                                      X-#@............$%       X+@..@+X      #..O*%         :...@+X  $O..$=     -$..O$-      =+@..&+                                                                            ",
"                                                                        -+$@.OOOOOO.@;%        X+@OO.+X     -*OOO;=        X%&oOo#=  $oOO$=     =#OOo&%X      +.Oo&+                                                                            ",
"                                                                         =-+;$*****;+-          %$*$$%X     %$*$$+          -#*$$;-  #$$$#=     X%$*$$+X     X+$$$$%                                                                            ",
"                                                                              -%%%- =               =           ==              =    =====           =        X ==                                                                              ",
"                                                                                 X                                                                                                                                                              ",
"                                                                                                                                                                                                                                                ",
"                                                                                                                                                                                                                                                ",
"                                                                                                                                                                                                                                                ",
"                                                                                                                                                                                                                                                ",
"                                                                                                                                                                                                                                                ",
"                                                                                                                                                                                                                                                ",
"                                                                                                                                                                                                                                                "
};
