/* XPM */
static char *efdb143e0f19456cb71dcf5861ce95e7IxVfJb8IvDY4NSqr[] = {
/* columns rows colors chars-per-pixel */
"11 10 19 1 ",
"  c #4566FF",
". c #4868FF",
"X c #4969FF",
"o c #4F6FFF",
"O c #5170FF",
"+ c #5171FF",
"@ c #5270FF",
"# c #5271FF",
"$ c #5372FF",
"% c #5473FF",
"& c #5574FF",
"* c #5B79FF",
"= c #5D7BFF",
"- c #93A7FF",
"; c #95A8FF",
": c #9BADFF",
"> c #F5F7FF",
", c #F6F7FF",
"< c #F9FAFF",
/* pixels */
"########o*>",
"########o*>",
"########o*>",
"########o*>",
"########o*>",
"########o*>",
"########o*>",
"%%%%%%%&#=>",
"........ #>",
";;;;;;;;-:<"
};
