/* XPM */
static char *e2d1f6db2f404922933a6a06eda93106xtb3waHyHZ3LLJQS[] = {
/* columns rows colors chars-per-pixel */
"64 50 209 2 ",
"   c #1E160A",
".  c #251B0D",
"X  c #2E2210",
"o  c #3A2A14",
"O  c #6D1E01",
"+  c #4B371A",
"@  c #523D1D",
"#  c #7A2D00",
"$  c #7A320D",
"%  c #58421E",
"&  c #5E4620",
"*  c #604721",
"=  c #634922",
"-  c #694E25",
";  c #6E5226",
":  c #715327",
">  c #7C5C2B",
",  c #725528",
"<  c #7D602D",
"1  c #893900",
"2  c #9F4F03",
"3  c #944900",
"4  c #9C5400",
"5  c #A04F01",
"6  c #A85701",
"7  c #AB5E1D",
"8  c #B66905",
"9  c #BE7401",
"0  c #AB6202",
"q  c #86632F",
"w  c #8D6932",
"e  c #8A6730",
"r  c #936D33",
"t  c #9C7437",
"y  c #B97526",
"u  c #A57A3A",
"i  c #A97D3B",
"p  c #BE7A34",
"a  c #C05600",
"s  c #CC6402",
"d  c #C46E01",
"f  c #D36401",
"g  c #D66B01",
"h  c #CC7500",
"j  c #C77904",
"k  c #DB7301",
"l  c #D77804",
"z  c #C97918",
"x  c #D97710",
"c  c #E47A01",
"v  c #E07400",
"b  c #C27D32",
"n  c #B0833D",
"m  c #CA8500",
"M  c #CD8802",
"N  c #D58401",
"B  c #DD8100",
"V  c #D68A03",
"C  c #DD9401",
"Z  c #DB9902",
"A  c #D39206",
"S  c #DE9717",
"D  c #E58502",
"F  c #E68906",
"G  c #E39303",
"H  c #ED9301",
"J  c #E99A01",
"K  c #ED990B",
"L  c #E29B06",
"P  c #F49F0C",
"I  c #F49901",
"U  c #E79913",
"Y  c #EB8B0B",
"T  c #DDA10C",
"R  c #EDA503",
"E  c #E9A40B",
"W  c #F3A404",
"Q  c #F7AA09",
"!  c #ECAA14",
"~  c #E9A41B",
"^  c #E6A817",
"/  c #F4AC13",
"(  c #F4AD1B",
")  c #F9AD14",
"_  c #F3B31D",
"`  c #FAB419",
"'  c #FDB308",
"]  c #C58026",
"[  c #D48529",
"{  c #D68A27",
"}  c #DD9A28",
"|  c #CC893A",
" . c #D68F3B",
".. c #E79E37",
"X. c #E7A82A",
"o. c #F2AE22",
"O. c #F2AB2B",
"+. c #ECB12D",
"@. c #EBB326",
"#. c #F3B223",
"$. c #FCBB23",
"%. c #F3B42C",
"&. c #FAB62C",
"*. c #FCBA2C",
"=. c #F6B727",
"-. c #EAA934",
";. c #ECB234",
":. c #EBB43C",
">. c #EFBA3E",
",. c #F3BA34",
"<. c #FBBB34",
"1. c #F3B43B",
"2. c #F3BB3C",
"3. c #FBBD3C",
"4. c #F8B636",
"5. c #FBC13D",
"6. c #FEC030",
"7. c #BD8C41",
"8. c #C49144",
"9. c #CD9847",
"0. c #D39C49",
"q. c #D49244",
"w. c #E69F43",
"e. c #DBA24C",
"r. c #D7A34D",
"t. c #EBAB43",
"y. c #E0A74E",
"u. c #E8A54B",
"i. c #F4BB43",
"p. c #FBBD44",
"a. c #F4BC4D",
"s. c #FCBC4B",
"d. c #F4B349",
"f. c #EBAD51",
"g. c #EEB356",
"h. c #F4B454",
"j. c #F8B655",
"k. c #F4BB54",
"l. c #FFBB53",
"z. c #FFBD59",
"x. c #EFB248",
"c. c #F7BB61",
"v. c #FEBF61",
"b. c #FDC443",
"n. c #FDC44B",
"m. c #FDCA4C",
"M. c #F5C14E",
"N. c #F6C250",
"B. c #FCC454",
"V. c #FDCA54",
"C. c #FFC25C",
"Z. c #FECB5D",
"A. c #F5C65D",
"S. c #FCD359",
"D. c #FCC464",
"F. c #FCCC63",
"G. c #FBC46C",
"H. c #FDCC6B",
"J. c #F7C66A",
"K. c #FED364",
"L. c #FDD26B",
"P. c #FBCC73",
"I. c #FFCB7D",
"U. c #FDD474",
"Y. c #FDDB74",
"T. c #FDD47C",
"R. c #FDDC7C",
"E. c #FDE17B",
"W. c #FDE87B",
"Q. c #FFCD82",
"!. c #FCD484",
"~. c #FDDD83",
"^. c #FCD48B",
"/. c #FDDB8A",
"(. c #F7D78B",
"). c #FBDB92",
"_. c #FDDD9B",
"`. c #FBD596",
"'. c #FEE583",
"]. c #FDEA85",
"[. c #FDE48C",
"{. c #FCEB8C",
"}. c #FDE493",
"|. c #FDEB94",
" X c #FCE49B",
".X c #FCEB9B",
"XX c #FDF29C",
"oX c #FEF292",
"OX c #FDDEA2",
"+X c #FDE5A2",
"@X c #FDEBA4",
"#X c #FCE5A9",
"$X c #FDEDAD",
"%X c #FCF2AD",
"&X c #FCF2A4",
"*X c #FDEDBB",
"=X c #FDECB5",
"-X c #FCF3B4",
";X c #FCF2BB",
":X c #FDF9BF",
">X c #FEEEC1",
",X c #FDEFC8",
"<X c #FDF2C3",
"1X c #FDF9C5",
"2X c #FDF6CB",
"3X c #FDF5D4",
"4X c #FDFADC",
"5X c #FCF7DE",
"6X c #FDFBE6",
/* pixels */
"z.z.z.z.z.z.z.z.z.z.z.z.z.z.z.z.z.z.z.z.z.z.z.z.z.z.z.z.z.z.z.z.z.z.z.z.z.z.z.z.z.z.z.z.z.z.z.z.z.z.z.z.z.z.z.z.z.z.z.z.z.z.l.Q.",
"z.z.z.z.z.z.z.z.z.z.z.z.z.z.z.z.z.z.z.z.z.z.z.z.z.z.z.z.z.z.z.z.z.z.z.z.z.z.z.z.z.z.z.z.z.z.z.z.z.z.z.z.z.z.z.z.z.z.z.z.z.z.l.Q.",
"z.z.z.z.z.z.z.z.z.z.z.z.z.z.z.z.z.z.z.z.z.z.z.z.z.z.z.z.z.z.z.z.z.z.z.z.z.z.z.z.z.z.z.z.z.z.z.z.z.z.z.z.z.z.z.z.z.z.z.z.z.z.l.Q.",
"z.z.z.z.z.z.z.z.z.z.z.z.C.z.z.z.z.z.z.z.z.z.z.z.z.z.z.z.z.z.z.z.z.z.z.z.z.z.z.z.z.z.z.z.z.z.z.z.z.z.z.z.z.z.z.z.z.z.z.z.z.z.l.Q.",
"z.z.z.z.z.z.z.z.C.z.C.C.f.j.C.C.C.C.C.z.z.C.j.h.C.z.z.z.z.z.z.z.z.z.z.z.z.z.z.z.z.z.z.z.z.z.z.z.z.z.z.z.z.z.z.z.z.z.z.z.z.z.l.Q.",
"z.z.z.z.z.z.z.C.8.* : y.@ r.0.= > > q j.z.r & = q j.z.z.z.z.z.z.z.z.z.z.z.z.z.z.z.z.z.z.z.z.z.z.z.z.z.z.z.z.z.z.z.z.z.z.z.z.l.Q.",
"z.z.z.z.z.z.z.Z.* q = r % e.i . > : w C.e.. 0.y.X 7.C.z.z.z.z.z.z.z.z.z.z.z.z.z.z.z.z.z.z.z.z.z.z.z.z.z.z.z.z.z.z.z.z.z.z.z.l.Q.",
"z.z.z.z.z.z.z.C.7.% % 8.+ e.u . r > r z.C.r - : q z.z.z.z.z.z.z.z.z.z.z.z.z.z.z.z.z.z.z.z.z.z.z.z.z.z.z.z.z.z.z.z.z.z.z.z.z.l.Q.",
"z.z.z.z.z.z.C.f., o @ q o r.r.> + = r z.t : & % , w z.z.z.z.z.z.z.z.z.z.z.z.z.z.z.z.z.z.z.z.z.z.z.z.z.z.z.z.z.z.z.z.z.z.z.z.l.Q.",
"z.z.z.z.z.z.z.z.C.* t w   9.n u o = u 8.y.e.- & y.0.z.z.z.z.z.z.z.z.z.z.z.z.z.z.z.z.z.z.z.z.z.z.z.z.z.z.z.z.z.z.z.z.z.z.z.z.l.Q.",
"z.z.z.z.z.z.z.z.C.> n C.+ 9.u e r r q 7.C.K.w < K.C.z.z.z.z.z.z.z.z.z.z.z.z.z.z.z.z.z.z.z.z.z.z.z.z.z.z.z.z.z.z.z.z.z.z.z.z.l.Q.",
"z.z.z.z.z.z.z.z.z.j.z.z.f.j.Z.Z.Z.Z.Z.C.z.z.f.f.z.z.z.z.z.z.z.z.z.z.z.z.z.z.z.z.z.z.z.z.z.z.z.z.z.z.z.z.z.z.z.z.z.z.z.z.z.z.l.Q.",
"z.z.z.z.z.z.z.z.z.z.z.z.C.z.z.z.z.z.z.z.z.z.z.C.z.z.z.z.z.z.z.z.z.z.z.z.z.z.z.z.z.z.z.z.z.z.z.z.z.z.z.z.z.z.z.z.z.z.z.z.z.z.l.Q.",
"z.z.z.z.z.z.z.z.z.z.z.z.z.z.z.z.z.z.z.z.z.z.z.z.z.z.z.z.z.z.z.z.z.z.z.z.z.z.z.z.z.z.z.z.z.z.z.z.z.z.z.z.z.z.z.z.z.z.z.z.z.z.l.Q.",
"z.z.z.z.z.z.z.z.z.z.z.z.z.z.z.z.z.z.z.z.z.z.z.z.z.z.z.z.z.z.z.z.z.z.z.z.z.z.z.l.l.l.z.z.z.z.z.z.z.z.z.z.z.z.z.z.z.z.z.z.z.z.l.Q.",
"z.z.z.z.z.z.z.z.z.z.z.z.z.z.z.z.z.z.z.z.z.z.z.z.z.z.z.z.z.z.z.z.z.z.z.z.z.F.U.~.R.D.z.z.z.z.z.z.z.z.z.z.z.z.z.z.z.z.z.z.z.z.l.Q.",
"z.z.z.z.z.z.z.z.z.z.z.z.z.z.z.z.z.z.z.z.z.z.z.z.z.z.z.z.z.z.z.z.z.z.l.z.L.W.].oXXX{.H.l.z.z.z.z.z.z.z.z.z.z.z.z.z.z.z.z.z.z.l.Q.",
"z.z.z.z.z.z.z.z.z.z.z.z.z.z.z.z.z.z.z.z.z.z.z.z.z.z.z.z.z.z.z.z.z.z.D.Y.W.].{.XX&X|.].D.l.z.z.z.z.z.z.z.z.z.z.z.z.z.z.z.z.z.l.Q.",
"z.z.z.z.z.z.z.z.z.z.z.z.z.z.z.z.z.z.z.z.z.z.z.z.z.z.z.z.z.z.z.z.z.H.Y.W.{.{..X-X-X{.].U.z.z.z.z.z.z.z.z.z.z.z.z.z.z.z.z.z.z.l.Q.",
"z.z.z.z.z.z.z.z.z.z.z.z.z.z.z.z.z.z.z.z.z.z.z.z.z.z.z.z.z.z.l.v.T.E.'.].|.%X1X1X%X|.'.R.C.z.z.z.z.z.z.z.z.z.z.z.z.z.z.z.z.z.l.Q.",
"z.z.z.z.z.z.z.z.z.z.z.z.z.z.z.z.z.z.z.z.z.z.z.z.z.z.z.z.z.z.G./.[.$X$X[..X:X4X4X-X|.'.R.D.z.z.z.z.z.z.z.z.z.z.z.z.z.z.z.z.z.l.Q.",
"z.z.z.z.z.z.z.z.z.z.z.z.z.z.z.z.z.z.z.z.z.z.z.z.z.z.z.z.z.z.!.[.#X5X*XR.}.$X;X-X1X&X'.E.H.z.z.z.z.z.z.z.z.z.z.z.z.z.z.z.z.z.l.Q.",
"z.z.z.z.z.z.z.z.z.z.z.z.z.z.z.z.z.z.z.z.z.z.z.z.z.z.z.z.z.G.U./.OX=X_.R.~. X#X}.2X2X[.E.L.z.z.z.z.z.l.l.z.z.z.z.z.z.z.z.z.z.l.Q.",
"z.z.z.z.z.z.z.z.z.z.z.z.z.z.z.z.z.z.z.z.z.z.z.z.z.z.z.z.z.F.K.L.!.!.U.L.K.Y.}.}.;X3X XE.Y.C.z.C.L.Y.T.U.C.z.z.z.z.z.z.z.z.z.l.Q.",
"z.z.z.z.z.z.z.z.z.z.z.z.z.z.z.z.z.z.z.z.z.z.z.z.z.z.l.l.c.Z.n.n.B.C.B.b.b.V.K.T. X3X XR.Y.H.B.S.E.{.:X1X~.z.z.z.z.z.z.z.z.z.l.Q.",
"z.z.z.z.z.z.z.z.z.z.z.z.z.z.z.z.z.z.z.z.z.z.z.H.~.~.P.D.D.n.3.3.<.*.*.$.*.5.m.Z.L././.R.R.Z.$.m./.R.}.2X%XU.z.z.z.z.z.z.z.z.l.Q.",
"z.z.z.z.z.z.z.z.z.z.z.z.z.z.z.z.z.z.z.z.z.z.P.@X@X|.2X Xn.) H Y K P W Q ' ` 6.b.m.V.K.Y.~.b.' *.V.K.R.;X=X'.T.z.z.z.z.z.z.z.l.Q.",
"z.z.z.z.z.z.z.z.z.z.z.z.z.z.z.z.z.z.z.z.z.D.U.#X*X~.+X/.$.H D k f x 1.F.K.S.S.m.b.n.F.U.R.3.W ` p.F.R.@X;X}.{.P.l.z.z.z.z.z.l.Q.",
"z.z.z.z.z.z.z.z.z.z.z.z.z.z.z.z.z.z.z.z.z.U.).).U.m.V.B.( D Y F w.(.'.$X2X%X{.{.S.n.Z.Z.L.O.W *.s.F.U.[.<X<X@X.XD.l.z.z.z.z.l.Q.",
"z.z.z.z.z.z.z.z.z.z.z.z.z.z.z.z.z.z.z.z.H.U.OXT.5.<.$.<.o.D x !.+XU.Z.F.U.).%X&XXXE.V.<.3.K Q Q &.B.F.~.=X4X2X$XR.z.z.z.z.z.l.Q.",
"z.z.z.z.z.z.z.z.z.z.z.z.z.z.z.z.z.z.z.D.H.U./.L.3.*._ #./ G g. XQ.D.3.3.n.H.)..X-X%XE.*.K H Q ) &.p.m.L./.3X6X=X'.H.l.z.z.z.l.Q.",
"z.z.z.z.z.z.z.z.z.z.z.z.z.z.z.z.z.z.z.D.V.^.!.V.n.<._ ( R %._.Q.B.` I I P 4.H./.-X:X|.A.B J W ) &.<.n.V.U.*X6X>X|.L.l.z.z.z.l.Q.",
"z.z.z.z.z.z.z.z.z.z.z.z.z.z.z.z.z.z.G.Z.Z.!.H.V.n.3.#.o.E F.^.D.Q H D c c Y C.^.@X;X@XE.U J W Q ( <.n.n.H._.3X4X$XU.l.z.z.z.l.Q.",
"z.z.z.z.z.z.z.z.z.z.z.z.z.z.z.z.z.z.P.Z.L.H.3.3.5.,.%.%.%.T.^.p.I D c k k v d.^./.$X$X'.;.J W / ( #.<.n.F.).>X6X2XT.l.z.z.z.l.Q.",
"z.z.z.z.z.z.z.z.z.z.z.z.z.z.z.z.z.z.V.V.V.=._ #.=._ _ _ 2.^.`.p.H k k g g f ..!.!.}.@XE.i.G W / / #.<.n.F./.+X,X*XT.l.z.z.z.l.Q.",
"z.z.z.z.z.z.z.z.z.z.z.z.z.z.z.z.z.c.N.n.,.%.+.+.,.B.2.E i.!._.F.H k f s s f u.OX!.~. XR.M.G R / o.#.=.3.n.B.Z./.#XT.l.z.z.z.l.Q.",
"z.z.z.z.z.z.z.z.z.z.z.z.z.z.z.z.z.c.M.5.,.a.J.A.k.A.@.C i.!.^.I.K k s s s s G.!.F.K.R.R.B.G J R E ! _ 3.&.#.3.F./.H.l.z.z.z.l.Q.",
"z.z.z.z.z.z.z.z.z.z.z.z.z.z.z.z.z.k.5.,.2.N.A.a.:.E C h -.!.Q.`.s.D s s a { H.C.5.V.V.K.i.N G L L L E X.~ / <.F.L.C.z.z.z.z.l.Q.",
"z.z.z.z.z.z.z.z.z.z.z.z.z.z.z.z.z.:.=.@.,.2.;.+.^ Z V d } /.I.!.!.E k s z P.F.3.*.3.n.V.-.h V N N V C L E ~ 4.B.Z.B.z.z.z.z.l.Q.",
"z.z.z.z.z.z.z.z.z.z.z.z.z.z.z.z.z.:.@.>.>.>.:.^ Z M j 8 8 J.^.!._.F.O.t.!.H.p.` ` s.C.b.z 6 h d d j V Z E ^ +.i.i.a.z.z.z.z.l.Q.",
"z.z.z.z.z.z.z.z.z.z.z.z.z.z.z.z.z.j.-.X.^ T A m j 9 8 6 1 ] H.).!.!.U.!.P.3./ Q o.1.i.1. .7 2 5 2 6 9 m M A S X.t.j.z.z.z.z.l.Q.",
"z.z.z.z.z.z.z.z.z.z.z.z.z.z.z.z.z.z.z.t.} j 0 4 3 3 1 # O $ x.H.P.Q.F.B.4./ R ! O.O.-.h.C.z.u.| p y y ] { ..t.j.z.z.z.z.z.z.l.Q.",
"z.z.z.z.z.z.z.z.z.z.z.z.z.z.z.z.z.z.z.C.z.j.u.| b p p p q.h.d.X.;.i.,.! J G G U ~ X.d.z.z.z.C.C.C.C.z.z.C.C.C.z.z.z.z.z.z.z.l.Q.",
"z.z.z.z.z.z.z.z.z.z.z.z.z.z.z.z.z.z.z.z.z.z.C.C.C.C.F.F.C.C.z.d.S N N l h h d l S d.z.z.z.z.z.z.z.z.z.z.z.z.z.z.z.z.z.z.z.z.l.Q.",
"z.z.z.z.z.z.z.z.z.z.z.z.z.z.z.z.z.z.z.z.z.z.z.z.z.z.z.z.z.z.z.z.z.w.[ [ [ [ [ ..l.z.z.z.z.z.z.z.z.z.z.z.z.z.z.z.z.z.z.z.z.z.l.Q.",
"z.z.z.z.z.z.z.z.z.z.z.z.z.z.z.z.z.z.z.z.z.z.z.z.z.z.z.z.z.z.z.z.z.C.C.C.C.C.C.C.z.z.z.z.z.z.z.z.z.z.z.z.z.z.z.z.z.z.z.z.z.z.l.Q.",
"z.z.z.z.z.z.z.z.z.z.z.z.z.z.z.z.z.z.z.z.z.z.z.z.z.z.z.z.z.z.z.z.z.z.z.z.z.z.z.z.z.z.z.z.z.z.z.z.z.z.z.z.z.z.z.z.z.z.z.z.z.z.l.Q.",
"z.z.z.z.z.z.z.z.z.z.z.z.z.z.z.z.z.z.z.z.z.z.z.z.z.z.z.z.z.z.z.z.z.z.z.z.z.z.z.z.z.z.z.z.z.z.z.z.z.z.z.z.z.z.z.z.z.z.z.z.z.z.l.Q.",
"l.l.l.l.l.l.l.l.l.l.l.l.l.l.l.l.l.l.l.l.l.l.l.l.l.l.l.l.l.l.l.l.l.l.l.l.l.l.l.l.l.l.l.l.l.l.l.l.l.l.l.l.l.l.l.l.l.l.l.l.l.z.s.I.",
"I.I.I.I.I.I.I.I.I.I.I.I.I.I.I.I.I.I.I.I.I.I.I.I.I.I.I.I.I.I.I.I.I.I.I.I.I.I.I.I.I.I.I.I.I.I.I.I.I.I.I.I.I.I.I.I.I.I.I.I.I.I.I._."
};
