/* XPM */
static char *carrot1728283434[] = {
/* columns rows colors chars-per-pixel */
"32 32 89 1 ",
"  c gray36",
". c gray37",
"X c #626262",
"o c gray39",
"O c #646464",
"+ c gray40",
"@ c #676767",
"# c #686868",
"$ c DimGray",
"% c #6A6A6A",
"& c gray42",
"* c #6C6C6C",
"= c #6D6D6D",
"- c gray43",
"; c #6F6F6F",
": c gray44",
"> c #717171",
", c #727272",
"< c gray45",
"1 c #747474",
"2 c gray46",
"3 c #767676",
"4 c #797979",
"5 c gray48",
"6 c #7B7B7B",
"7 c gray49",
"8 c gray50",
"9 c #808080",
"0 c #818181",
"q c #848484",
"w c #868686",
"e c gray53",
"r c #898989",
"t c gray54",
"y c #8B8B8B",
"u c gray55",
"i c #8D8D8D",
"p c gray56",
"a c gray57",
"s c gray58",
"d c #959595",
"f c #979797",
"g c #989898",
"h c gray60",
"j c gray61",
"k c gray62",
"l c #9F9F9F",
"z c gray63",
"x c #A2A2A2",
"c c gray64",
"v c gray65",
"b c #A9A9A9",
"n c gray67",
"m c #B2B2B2",
"M c gray70",
"N c #B4B4B4",
"B c gray71",
"V c gray72",
"C c #B9B9B9",
"Z c gray73",
"A c #BBBBBB",
"S c #BCBCBC",
"D c gray",
"F c #C0C0C0",
"G c #C6C6C6",
"H c gray78",
"J c #CBCBCB",
"K c gray81",
"L c LightGray",
"P c #D7D7D7",
"I c gainsboro",
"U c #DDDDDD",
"Y c gray87",
"T c #DFDFDF",
"R c #E2E2E2",
"E c gray89",
"W c gray90",
"Q c #E6E6E6",
"! c #E9E9E9",
"~ c #EEEEEE",
"^ c #EFEFEF",
"/ c #F1F1F1",
"( c #F8F8F8",
") c #F9F9F9",
"_ c gray98",
"` c gray99",
"' c #FDFDFD",
"] c #FEFEFE",
"[ c white",
/* pixels */
"<<<<<<<<<<<<<<<<<<<<<<<<<<<<<<<<",
"<<<<<<<<<<<<<<<<<<<<<<<<<<<<<<<<",
"<<<<<<<<<<<<<<<<<<<<<<<<<<<<<<<<",
"<<<<<<<<<<<<<<<<<<<<<<<<<<<<<<<<",
"<<<<<<<<<<<<<<<<<<<<<<<<<<<<<<<<",
"<<<<<<<<<<<<<<<<<<<<<<<<<<<<<<<<",
"<<<<<<<<<<<<<<<<<<<<<<<<<<<<<<<<",
"<<<<<<<<<<<<<<<<<<11<<<<<<<<<<<<",
"<<<<<<<<<<<11111<<<*<<<<<<<<<<<<",
"<<<<<<<<<<<*****<*qp6<<<<<<<<<<<",
"<<<<<<<<<<1lzzzvpXV[g*1<<<<<<<<<",
"<<<<<<<<<<6([[([V S[d@1<<<<<<<<<",
"<<<<<<<<<<6[Uqrrq@V[Np1<<<<<<<<<",
"<<<<<<<<1*6[P@$$$XV[[W1<<<<<<<<<",
"<<<<<<<<1<6(UqrpnpN[mr1<<<<<<<<<",
"<<<<<<<<1<6([[[[[Sm[d$1<<<<<<<<<",
"<<<<<<<<<<1zvlgdp$n(d*1<<<<<<<<<",
"<<<<<<<<<11$$dHIRPVw<<<<<<<<<<<<",
"<<<<<<<<<<1<V[~KJU[W7<1<<<<<<<<<",
"<<<<<<<<<<<1/~<X@.N[v$1<<<<<<<<<",
"<<<<<<<<<<<<P[Szln![r*1<<<<<<<<<",
"<<<<<<<<<<1*7H([([Rl<1<<<<<<<<<<",
"<<<<<<<<<<11<$6rp7<*<<<<<<<<<<<<",
"<<<<<<<<<<<<<<<**<<<<<<<<<<<<<<<",
"<<<<<<<<<<<<<<<<<<<<<<<<<<<<<<<<",
"<<<<<<<<<<<<<<<<<<<<<<<<<<<<<<<<",
"<<<<<<<<<<<<<<<<<<<<<<<<<<<<<<<<",
"<<<<<<<<<<<<<<<<<<<<<<<<<<<<<<<<",
"<<<<<<<<<<<<<<<<<<<<<<<<<<<<<<<<",
"<<<<<<<<<<<<<<<<<<<<<<<<<<<<<<<<",
"<<<<<<<<<<<<<<<<<<<<<<<<<<<<<<<<",
"<<<<<<<<<<<<<<<<<<<<<<<<<<<<<<<<"
};
