/* XPM */
static char *fubao1728283435[] = {
/* columns rows colors chars-per-pixel */
"32 32 75 1 ",
"  c black",
". c #010101",
"X c #020202",
"o c gray1",
"O c #040404",
"+ c gray2",
"@ c #060606",
"# c #070707",
"$ c gray3",
"% c gray4",
"& c #0B0B0B",
"* c #0E0E0E",
"= c gray7",
"- c #151515",
"; c #191919",
": c gray10",
"> c #1B1B1B",
", c gray11",
"< c #232323",
"1 c #252525",
"2 c #282828",
"3 c gray17",
"4 c #313131",
"5 c #323232",
"6 c #414141",
"7 c #444444",
"8 c #494949",
"9 c gray34",
"0 c gray37",
"q c #6A6A6A",
"w c #6D6D6D",
"e c gray43",
"r c #6F6F6F",
"t c gray44",
"y c #767676",
"u c #777777",
"i c gray48",
"p c #909090",
"a c gray57",
"s c #929292",
"d c #939393",
"f c gray58",
"g c gray59",
"h c #989898",
"j c gray61",
"k c #9D9D9D",
"l c gray64",
"z c #A5A5A5",
"x c gray65",
"c c #BCBCBC",
"v c #C1C1C1",
"b c gray78",
"n c gray84",
"m c #D8D8D8",
"M c gray85",
"N c #DADADA",
"B c #DDDDDD",
"V c #DFDFDF",
"C c #E2E2E2",
"Z c #E6E6E6",
"A c #E7E7E7",
"S c gray91",
"D c gray92",
"F c #ECECEC",
"G c #EFEFEF",
"H c gray94",
"J c #F1F1F1",
"K c #F4F4F4",
"L c gray96",
"P c #F8F8F8",
"I c #F9F9F9",
"U c #FBFBFB",
"Y c #FDFDFD",
"T c #FEFEFE",
"R c white",
/* pixels */
"                                ",
"                                ",
"                                ",
"                                ",
"                                ",
"                                ",
"                                ",
"                                ",
"             + ++ +             ",
"                                ",
"           7zddjjfdlr +         ",
"         + 0DIRMMHRFf           ",
"            +MV% hR3            ",
"             MC+ dR<            ",
"           3iDHuqbRd6           ",
"         + 9RAAKKFCRf +         ",
"          +=>>>>>>,>-%          ",
"        + rRKIIFDIIKRz          ",
"          4irrrVRurri8          ",
"               cR%              ",
"           +++ vR& ++           ",
"               cI%              ",
"               14               ",
"                                ",
"                                ",
"                                ",
"                                ",
"                                ",
"                                ",
"                                ",
"                                ",
"                                "
};
