/* XPM */
static char *huibao1728283435[] = {
/* columns rows colors chars-per-pixel */
"32 32 83 1 ",
"  c black",
". c #010101",
"X c #020202",
"o c gray1",
"O c #040404",
"+ c gray2",
"@ c #0B0B0B",
"# c #0C0C0C",
"$ c gray5",
"% c gray7",
"& c gray9",
"* c #191919",
"= c gray10",
"- c #1B1B1B",
"; c #1D1D1D",
": c #232323",
"> c gray15",
", c #272727",
"< c #2D2D2D",
"1 c gray18",
"2 c #2F2F2F",
"3 c gray19",
"4 c gray20",
"5 c #353535",
"6 c #3A3A3A",
"7 c #3C3C3C",
"8 c #3E3E3E",
"9 c gray25",
"0 c gray26",
"q c #434343",
"w c #444444",
"e c gray28",
"r c #4C4C4C",
"t c #5B5B5B",
"y c #5D5D5D",
"u c #646464",
"i c #6A6A6A",
"p c #6D6D6D",
"a c gray43",
"s c gray46",
"d c gray47",
"f c #797979",
"g c #7E7E7E",
"h c #808080",
"j c gray51",
"k c #838383",
"l c #868686",
"z c gray54",
"x c #909090",
"c c gray57",
"v c #929292",
"b c gray62",
"n c gray66",
"m c #B9B9B9",
"M c #BCBCBC",
"N c gray74",
"B c gray",
"V c gray75",
"C c gray79",
"Z c gray80",
"A c gray82",
"S c LightGray",
"D c #DADADA",
"F c gray86",
"G c gainsboro",
"H c gray87",
"J c gray88",
"K c #E1E1E1",
"L c #E2E2E2",
"P c #E6E6E6",
"I c #E9E9E9",
"U c gray92",
"Y c #ECECEC",
"T c #F1F1F1",
"R c gray95",
"E c #F3F3F3",
"W c gray96",
"Q c #F6F6F6",
"! c #F8F8F8",
"~ c #FBFBFB",
"^ c gray99",
"/ c #FEFEFE",
"( c white",
/* pixels */
"                                ",
"                                ",
"                                ",
"                                ",
"                                ",
"                                ",
"                                ",
"                                ",
"                                ",
"               >3               ",
"               mW$ O            ",
"           CIJJ^^JJPG;          ",
"          Ofzgxxxvlhz%          ",
"            ;lZGGSn3            ",
"           $G~httpD~5 O         ",
"           %RI8&=>B^q O         ",
"            wCRYIRDi            ",
"          =q16ysfuq18,          ",
"        O p^^^WRRR~~^n          ",
"          ;wqqqA^rqqr1          ",
"               B^$              ",
"            O  B~$ OO           ",
"               >3               ",
"                                ",
"                                ",
"                                ",
"                                ",
"                                ",
"                                ",
"                                ",
"                                ",
"                                "
};
