/* XPM */
static char *inventory_folded1728283435[] = {
/* columns rows colors chars-per-pixel */
"32 32 127 2 ",
"   c #034AAE",
".  c #094BB0",
"X  c #134DB2",
"o  c #1C4FB5",
"O  c #1455B3",
"+  c #1D56B6",
"@  c #204EB6",
"#  c #2747B8",
"$  c #274FB8",
"%  c #2C4AB9",
"&  c #344DBC",
"*  c #3A4DBD",
"=  c #2350B7",
"-  c #2357B8",
";  c #2A51B9",
":  c #2C59BA",
">  c #3353BB",
",  c #3D54BE",
"<  c #355ABD",
"1  c #3B5BBE",
"2  c #414DBE",
"3  c #4154BF",
"4  c #474FC1",
"5  c #4E4DC2",
"6  c #524FC3",
"7  c #4356C0",
"8  c #4A56C2",
"9  c #445DC1",
"0  c #4E59C3",
"q  c #5355C4",
"w  c #5C55C6",
"e  c #5459C5",
"r  c #5C5AC7",
"t  c #6247C8",
"y  c #654AC9",
"u  c #6A4FCA",
"i  c #6255C8",
"p  c #6D55CC",
"a  c #635BC9",
"s  c #6A5CCB",
"d  c #7057CC",
"f  c #735DCD",
"g  c #7B5BCF",
"h  c #7C5FD0",
"j  c #5465C6",
"k  c #5962C7",
"l  c #5F61C8",
"z  c #6562C9",
"x  c #6B63CB",
"c  c #6E6CCD",
"v  c #7363CE",
"b  c #746DCF",
"n  c #6773CC",
"m  c #697BCD",
"M  c #7D63D0",
"N  c #7C6DD1",
"B  c #7779D0",
"V  c #8757D2",
"C  c #835DD2",
"Z  c #895AD3",
"A  c #8361D2",
"S  c #8C62D5",
"D  c #846ED3",
"F  c #8B6BD4",
"G  c #9563D7",
"H  c #9766D8",
"J  c #9B65D9",
"K  c #946DD8",
"L  c #9B6BD9",
"P  c #8677D5",
"I  c #8F71D7",
"U  c #817FD3",
"Y  c #A265DA",
"T  c #A967DD",
"R  c #A46DDB",
"E  c #AE68DE",
"W  c #B36FDF",
"Q  c #B467E0",
"!  c #B569E0",
"~  c #BC6AE2",
"^  c #BC71E3",
"/  c #C16AE3",
"(  c #C96EE6",
")  c #C472E4",
"_  c #CC75E7",
"`  c #7684D1",
"'  c #7C84D3",
"]  c #7E88D4",
"[  c #8286D5",
"{  c #998CDB",
"}  c #8B93D8",
"|  c #8A99D8",
" . c #9095D9",
".. c #9A90DB",
"X. c #A19CDF",
"o. c #93A0DB",
"O. c #A3A2DF",
"+. c #AE9DE2",
"@. c #B59CE4",
"#. c #A8AAE2",
"$. c #B5A5E5",
"%. c #BBA4E6",
"&. c #B3A8E4",
"*. c #B8AFE6",
"=. c #A9B1E2",
"-. c #B5B4E5",
";. c #B8BCE7",
":. c #BCBDE8",
">. c #C4B6E9",
",. c #C8B5EA",
"<. c #C5BAEA",
"1. c #C5C1EB",
"2. c #CBC1ED",
"3. c #CACEED",
"4. c #D0C4EE",
"5. c #D4D6F1",
"6. c #DAD9F3",
"7. c #DFE0F5",
"8. c #E3E3F6",
"9. c #E8E0F6",
"0. c #E7EEF7",
"q. c #E8EEF7",
"w. c #ECEEF9",
"e. c #F1EEFA",
"r. c #F4F1FB",
"t. c #F9F1FC",
"y. c #FFFFFF",
/* pixels */
"  . X X + @ ; > , , 3 8 8 r r a s s h h C S S G J Y T E Q ~ ~ ( ",
"  . . o o $ $ > > , 3 8 8 e r a s s f h M S S G J Y T E Q ~ / ( ",
"  . X X o = ; ; > , , 8 q r r a s f f h C S S G J Y T E ! ~ / ( ",
"  . . o o $ ; > < , 7 8 0 e r a s f f h h S G G J Y T E ! ~ / ( ",
"  . X X o = ; ; > 7 7 8 0 e r a s s f M C S G G J Y T E ! ~ / ( ",
"    X X o = ; > > , 7 8 q e r a s f f h A A S G J Y T E ! ~ / ( ",
"  . X X o = ; > < , 7 8 0 e r a s f f h C S S H J Y T E ! ~ / ( ",
"  . X o o = ; ; > , 7 8 q e w a s s f A A S S H J Y T E ! ~ / ( ",
"  . X X o = ; ; > , 3 2 8 r r q s f p &.r.%.Z H J Y T E ! ~ / ( ",
"  . X X o = ; > , , 3 } 5.q.6.+.s f p >.y.,.V H J Y T E ! ~ / ( ",
"  . X X o = ; : , & =.y.y.r.y.y.<.s p ,.y.,.V H J Y T E ! ~ / ( ",
"  . X X o = ; > % m y.r.' r B e.y.{ y <.y.,.V H J Y T E ! ~ / ( ",
"  . X X + @ ; > # o.y.;.2 r 5 *.y.*.w ,.y.,.V H J Y T E ! ~ / ( ",
"  . X X o $ ; > # | y.3.3 5 q 1.y.&.t ,.y.,.V H J Y T E ! ~ / ( ",
"  . X X o = ; > > j q.y.-.[ -.y.r.P u ,.y.,.V H J Y T E ! ~ / ( ",
"  . X X o @ ; > < & ` r.y.y.y.r.{ s p >.y.,.V H J Y T E ! ~ / ( ",
"  . . o o = ; ; , , * j } #.O.b i f p ,.y.,.V H J Y T E Q ~ / ( ",
"  . X X o $ ; > < , 3 k [ B q w s x p >.y.,.V H J Y T E Q ~ / ( ",
"  . X X o = ; > > 3 * ' y.8.a a s f s @.9.@.V H J Y T E ! ~ / ) ",
"  . X X o = ; ; < , * ' y.7.w w a p s g C C S G J Y T E ! ~ / ( ",
"  . X X o = ; > > , * ' y.7.b b N N D I I I S H J Y T E ! ~ / ( ",
"  . X X o @ ; > , , * ] y.y.y.y.y.y.y.y.y.e.G G J Y T E ! ~ / ( ",
"  . X X o @ % > > 3 , n ;.:.:.:.<.1.1.<.4.,.G G J Y T E ! ~ / ( ",
"  . X X + = ; ; , , 7 7 4 q q w i p d g g V S G J Y T W ! ~ / ( ",
"  . X X o $ ; > , , 7 8 0 e r s s f g M A S S G J Y T E Q ~ / ( ",
"  . X X o @ ; ; > , 7 8 q e r a s f f h A C G G J Y T E Q ~ / ( ",
"  . X X o = ; > > , 7 8 e e r a s s f h A A S G J Y T E ! ~ / ( ",
"  . . + o @ ; > > , 7 8 0 e r a s f f M C S G G J Y T E ! ~ / ( ",
"  . X O o $ ; ; < , 7 8 e e r a s s f M A S S G J Y T E ! ~ / ( ",
"    . X o o % ; > , 3 7 8 q w a s s g h C A S G G Y T T Q ~ / ( ",
"O O + - : : < 1 9 9 0 k k l z x v b M A F S H L Y R R ^ ^ ^ / _ ",
"q.q.0.w.w.w.w.w.w.w.w.w.e.w.w.w.r.r.w.r.r.r.r.r.r.t.t.t.t.t.t.t."
};
