/* XPM */
static char *inventory_open1728283435[] = {
/* columns rows colors chars-per-pixel */
"172 33 202 2 ",
"   c #003EAA",
".  c #003DA7",
"X  c #1D3DB3",
"o  c #203FB5",
"O  c #0340AD",
"+  c #0A41AF",
"@  c #044BAE",
"#  c #084CAF",
"$  c #0D42B0",
"%  c #0C4CB0",
"&  c #1343B2",
"*  c #1D44B4",
"=  c #144DB3",
"-  c #1C4FB5",
";  c #1650B3",
":  c #1C51B5",
">  c #2446B6",
",  c #2846B7",
"<  c #224DB6",
"1  c #2A47B8",
"2  c #274CB8",
"3  c #2B4BB9",
"4  c #284AB7",
"5  c #344CBB",
"6  c #3B49BD",
"7  c #3C46BD",
"8  c #2250B7",
"9  c #2651B8",
"0  c #2B51B9",
"q  c #3453BC",
"w  c #3C55BE",
"e  c #3859BD",
"r  c #3558BC",
"t  c #424CBF",
"y  c #4155BF",
"u  c #3F5EC0",
"i  c #454DC0",
"p  c #4B4CC2",
"a  c #4E41C1",
"s  c #544DC4",
"d  c #5C4EC6",
"f  c #4556C0",
"g  c #4B56C2",
"h  c #465AC1",
"j  c #4C59C3",
"k  c #5255C4",
"l  c #5A51C6",
"z  c #5459C5",
"x  c #5B5AC7",
"c  c #5E5AC8",
"v  c #714CCC",
"b  c #6052C7",
"n  c #6453C9",
"m  c #6A53CA",
"M  c #635BC9",
"N  c #6C5CCB",
"B  c #7554CD",
"V  c #7B54CF",
"C  c #745ECE",
"Z  c #795ECF",
"A  c #7E55D0",
"S  c #7C5FD0",
"D  c #614CC7",
"F  c #4C65C3",
"G  c #4665C2",
"H  c #5961C6",
"J  c #526EC6",
"K  c #5E62C8",
"L  c #5571C7",
"P  c #636BCA",
"I  c #6764CB",
"U  c #7561CE",
"Y  c #7962CF",
"T  c #766BCF",
"R  c #6878CC",
"E  c #7E61D1",
"W  c #7A7AD1",
"Q  c #7376CF",
"!  c #8457D1",
"~  c #8B57D3",
"^  c #825ED1",
"/  c #8F58D4",
"(  c #935BD6",
")  c #995AD7",
"_  c #9C5CD8",
"`  c #A45BDA",
"'  c #AC5DDD",
"]  c #B35EDF",
"[  c #8461D2",
"{  c #8D62D5",
"}  c #8D6CD5",
"|  c #816FD3",
" . c #9363D6",
".. c #9763D8",
"X. c #9B64D9",
"o. c #9C69D9",
"O. c #8D72D6",
"+. c #8476D4",
"@. c #9170D7",
"#. c #9577D8",
"$. c #9879D9",
"%. c #A466DB",
"&. c #AC67DD",
"*. c #A369DB",
"=. c #AC69DE",
"-. c #B067DF",
";. c #B168DF",
":. c #A87CDE",
">. c #BB5FE1",
",. c #B569E0",
"<. c #BC6AE2",
"1. c #AE7CE0",
"2. c #C155E2",
"3. c #C560E4",
"4. c #C46BE4",
"5. c #C96EE5",
"6. c #CA71E6",
"7. c #6B83CE",
"8. c #7E82D3",
"9. c #768CD2",
"0. c #7F91D5",
"q. c #7CA1D5",
"w. c #8285D4",
"e. c #8C87D7",
"r. c #9389DA",
"t. c #9B87DB",
"y. c #899BD8",
"u. c #939CDB",
"i. c #9C9ADD",
"p. c #9A97DC",
"a. c #A48BDE",
"s. c #A287DD",
"d. c #A29CDF",
"f. c #83A2D7",
"g. c #8CA4D9",
"h. c #87A3D8",
"j. c #93A3DB",
"k. c #9CA6DE",
"l. c #A2A7DF",
"z. c #A0ACDF",
"x. c #B58DE3",
"c. c #AE99E2",
"v. c #B59FE4",
"b. c #A3A7E0",
"n. c #ABA4E2",
"m. c #A5A9E0",
"M. c #ACA9E2",
"N. c #B2A5E4",
"B. c #B3AAE5",
"V. c #BBABE7",
"C. c #BFACE8",
"Z. c #BCA6E7",
"A. c #ACB6E3",
"S. c #BAB4E7",
"D. c #B2BCE5",
"F. c #BEB6E8",
"G. c #BCBEE8",
"H. c #B7B9E6",
"J. c #C29FE7",
"K. c #C1A1E7",
"L. c #C4A3E9",
"P. c #C3ADE9",
"I. c #CBAEEB",
"U. c #C8A7EA",
"Y. c #D2AFED",
"T. c #C6B4EA",
"R. c #CAB6EB",
"E. c #CABCEC",
"W. c #D6B0EE",
"Q. c #D9B1EF",
"!. c #D4BCEE",
"~. c #DDB1F0",
"^. c #E2ADF1",
"/. c #E4B3F2",
"(. c #B9C2E7",
"). c #BBC2E8",
"_. c #B4C1E6",
"`. c #C3C6EA",
"'. c #CCC1ED",
"]. c #C6C9EC",
"[. c #C9CCED",
"{. c #D5C3EF",
"}. c #D0CBEE",
"|. c #C9D1ED",
" X c #DAC5F1",
".X c #DCCBF2",
"XX c #D6C8F0",
"oX c #D5D3F1",
"OX c #D6DAF2",
"+X c #DCDDF3",
"@X c #D0D3EF",
"#X c #E4DBF5",
"$X c #E9D3F6",
"%X c #DAE1F3",
"&X c #E5E3F6",
"*X c #E9E6F7",
"=X c #ECECF9",
"-X c #E8E8F7",
";X c #F1ECFA",
":X c #F3F3FB",
">X c #FEFEFF",
",X c #F8F6FC",
/* pixels */
"@ @ @ @ @ @ # # % % % = % = = % = = = - - - - - - < < 8 8 8 8 9 9 9 0 0 0 0 0 q 0 0 w q q w q w w w w 6 w y y y y f f f g f g g g j g z k z z z z x x x x x x x M x M M M M N M N M N N N N C C C C C C Z C Z Z Z S ^ ^ [ [ [ [ [ ^ { { [ { { { { {  . . . . .....X...X.X.%.%.%.X.%.%.%.%.&.%.%.;.&.&.-.-.;.;.;.;.<.;.;.<.4.4.;.4.4.<.4.4.4.4.5.5.5.3./.",
"@ @ @ @ @ @ # # # % % % % % = % ; = = = = - - - - - : 8 8 8 9 9 9 0 9 0 0 0 q 0 q q 5 q q q w q q w w w y w y y f f f f g g g g g j k j j z k z z z z x x x c b c c b M M M M N N N N N N C N C N C C Z Z Z Z Z Y ^ Y ^ Y ^ ^ [ [ [ [ { { { { { {  .{  . . .........X.X.X.X.X.X.%.%.%.%.%.&.&.&.&.&.&.-.-.;.;.;.;.<.;.4.;.;.;.4.4.<.4.<.4.4.4.4.5.5.3.^.",
"@ @ @ @ @ # # # # % % % = % = = = = - = = - - - < : 8 8 8 8 < 9 9 9 9 0 0 0 q 0 0 q 0 q w 5 q w w w w w y y y y f f f h y g h g g j j z z z z z z x x x x c c c c M M M N N M M N N N N N C C C C C C C Z Z Z Z S S E Z ^ [ [ [ ^ [ [ { [ {  .{  .{  . ... . ...X.X.X.X.X.*.X.%.%.%.%.%.%.%.&.&.&.&.;.;.;.;.;.;.;.;.<.<.4.<.<.<.;.4.4.4.4.4.4.4.5.5.3./.",
"@ @ @ @ # # # # % % # % % ; = = = = = - - = : - : < < : 8 8 9 9 9 9 0 0 0 0 0 q q 0 q q q q q w w q w w y y y y f f f g g g g g j g k j k k z z x z z x x x c c c c M M M M N M N N N N N N N N C C C C Z Z Z Z S S S [ [ [ ^ [ { { { ^ { / { { {  . . . . ..... .X.X.X.*.X.%.*.X.%.%.%.%.%.&.&.&.&.&.&.;.;.;.;.<.;.;.;.;.3.<.<.4.<.<.4.4.4.4.5.5.5.3.^.",
"@ @ @ @ @ % @ % % # % & % = = % = = = - - = - - - - < 8 8 9 9 < 9 0 0 0 0 0 0 q q 0 q q q w w q w w w y y y y y f f f f h g g g g j k j z z z z k x z x x x c c c c M M M M M N M N N N N N N C C C Y Z Z Z Z E S ^ E ^ [ ^ [ ^ [ [ { { [ { { { {  . . . . .....o...X.X.X.%.%.X.%.%.%.%.%.%.&.%.&.&.&.-.;.;.;.;.;.;.4.<.;.<.<.<.4.4.<.4.4.4.4.5.5.6.3./.",
"@ @ @ @ # @ @ % % % % = % % = = = = = - - - : - : 8 : : 8 8 9 9 9 9 9 0 0 0 0 0 q q q q q q q w w w w w y y y y y f f f g h g j j g g z z z z z z z x x z c c c M c M M M M N M N N N N N C C C C C C C C Z Z Z S S S ^ [ [ [ [ [ { [ { { ^ { { { {  . . ...........X.X.X.X.X.%.X.%.%.%.%.%.&.&.&.&.-.-.;.;.;.;.<.;.;.<.<.<.<.<.4.;.4.4.4.4.4.5.5.6.3./.",
"@ @ @ @ # # # % # % # = = % = = = - = = = = - - < : 8 8 8 8 9 9 9 9 0 0 0 q 0 q q q q q q q q q q w w w y y y y f f f h h g g g j j k j j k z z x z x x x x x c c M M M M N M N M N N N N C C N C C C C C Z Y S Z S S ^ Y ^ [ [ ^ [ { { {  .{ {  .{  . . . .......X.X.X.X.%.X.%.%.%.%.%.&.%.=.&.&.&.-.-.;.;.;.;.<.;.;.<.<.<.<.<.4.<.4.<.4.4.4.5.5.5.3./.",
"@ @ @ @ # @ @ % % % % % % = % = = = = - - - - < : < - 8 8 9 < 9 9 < 0 0 0 0 0 0 q 0 q 0 q w w w q w w w w y y y f f f f g f g g j k g z z z k z z x z x x x c c c M M M M M N M N N N N N N N C C C C C S C Z S E S S S [ [ ^ [ [ { ^ ^ { ^ { { {  . . . . .....X.X.X.X.X.X.%.%.%.` %.%.%.&.&.%.&.&.;.;.;.;.;.;.;.;.<.<.;.<.<.<.<.4.4.4.4.4.4.4.5.5.3./.",
"@ @ @ @ @ # # # # # # = = = = = = = = = - - - - - < < 8 8 8 8 8 9 9 0 0 0 0 r q q 0 q q 5 w q e w w w w w f w f f f f f g g g g j g j g g z x x x z x x x x c c M c M M M M M N N N N N N N N C N C C C S C S S S S S ^ ^ [ [ [ { [ { { { {  .{  .{  . . . . ...X.X.X.X.X.X.%.X.%.%.%.%.%.&.%.&.&.&.;.&.;.;.;.,.,.,.,.,.<.<.<.<.<.4.<.4.4.4.3.5.5.5.3./.",
"@ @ @ @ # @ # # # = # = # = = % & = - - = - - - - : : 8 8 8 9 9 9 9 0 0 0 0 0 4 0 e q 1 q e 1 0.=Xz.w w f w y f u i f h f f f g g g g i.`.P D.-XW k x x z c x c x M M M N M M N N N N N U N C C C C C C C Z Z S S C B Z Z A V ^ [ Z Z.,XP.^ { { {  . . . . . .....X.X.X.X.X.X.%.%.%.%.%.%.%.&.&.&.&.;.&.;.;.;.,.,.,.,.<.<.<.<.<.<.<.4.4.4.4.5.4.5.5.3./.",
"@ @ @ @ # # # # # % % % # = & = % ; - = - - - - < - 8 8 8 8 9 9 9 0 0 0 0 0 0 7.[.-XOXj.e q 1 j.>X(.5 w y y y y f f f f A.@XP g `.].z ].>Xw.].>Xw.k M x x x x c M M l r.&X&X&X&X&X*X*X*X=X}.C N C C C Z C S Z Z E T.'.E.'.'.E.R.} V T.>XR.! { { { (  . ... ...o.o.X.X.X.*.*.%.X.%.%.%.%.&.%.%.&.&.&.&.-.-.;.;.,.,.<.,.<.<.<.<.<.<.4.4.<.4.4.5.5.5.5.3./.",
"@ @ @ @ # # # # = # # = = # = = = = = = - = ; - : 8 < : 8 8 8 9 9 9 0 0 0 < y.>X>X:X,X>X].e > u.>X(.5 y y w y y f f f g OX>XR 7 =X>XH `.>XW ].>Xw.t x x x x c c x M l d.>X,X&X&X&X&X&X&X*X}.C N C C C C Z Z Z Z E ;X>X>X>X>X>X,X@.V T.>XR.!  .{  .{ {  . . . .{.>XL./ X.{.>XU.) X.%.%.%.%.&.&.%.&.&.-.&.;.;.;.-.,.,.,.,.;.<.<.<.4.<.3.4.4.4.4.4.5.5.3./.",
"@ @ @ @ @ @ # # # # # = % = = = = ; = - - - - - - - : 8 8 8 9 0 9 9 0 0 9 G :X>X9.r J %X>Xy.X j.>X(.5 u w f y f f f h f oX>XD.b.,X,XH ].>X8.`.>Xw.g x x x x c c M M z p.>XoXn M M m N N N N C C C C C Z Z Z Z Z E O.O.O.} s.>X,X@.V P.>XR.! { { {  . . . ... ..X>XT./ X..X>XI.) *.%.%.%.%.%.&.&.&.&.-.&.;.;.;.,.-.,.,.,.<.<.<.<.<.<.4.4.4.4.4.4.5.6.3./.",
"O @ @ @ @ @ # # # % % = = % # = = = = = - - - - : < 8 8 8 8 9 < 9 9 0 0 * 9.>X|.< q * y.>XD.X j.>X(.5 f y w w f f y f f oX>X>X>X>X>X+X:X>Xw.`.>Xw.k z x x c x c x M d i.>X:XoXoXoXoXoXoX#Xd.n U C C C C Z C Z S E B B B v } >X>X@.! T.>XE.! { { { {  . ... . ..X>XI.) X..X>XI.) *.%.%.%.&.%.&.&.&.&.&.-.;.;.;.;.,.,.<.,.<.<.<.3.<.4.4.<.4.4.4.5.5.6.3./.",
"@ @ @ @ # @ # # % = % # # % = = = = - = - ; : - - < 8 : 8 8 9 9 9 9 0 0 < 7.>X%Xq < > b.>XA.X j.>X(.5 w w f w y f f f f OX>Xw.R =X>X=X,X>Xw.`.>Xw.s x x x x x c M M d i.>X,X:X:X;X:X;X;X>XB.n C C C C C C S Z Z E S.E.E.E.}.>X,X@.V T.>XR.!  .{  .{  . . . .( .X>XU.( _ .X>XU._ %.%.%.%.%.&.&.&.&.&.;.-.;.;.;.;.,.;.<.,.,.<.<.<.4.<.4.<.4.5.5.5.5.5.3./.",
"@ @ @ @ @ # # # % # # = = = = = = = = - ; ; - - - 8 < 8 8 < 9 9 9 9 0 0 9 r OX>X_.7.j.,X>XR o j.>X(.q f f w f y f f f f oX>XQ h =X>XH [.>Xw.].>Xw.g x x x x c c c M l i.>XoXn n n n M m m n C C C C C C S C Z Z E =X>X>X>X>X>X;X@.V T.>XE.! { { {  . . . . .(  X>XL.( X. X>XU._ *.%.%.%.%.&.%.%.%.;.&.&.;.;.;.;.,.,.,.<.<.<.<.<.<.<.4.4.3.5.5.3.5.5.3./.",
"@ @ @ @ @ # # % % # % % % = = % = = : = - = - - - < < 8 8 8 9 9 9 9 0 0 0 < L -X>X>X>X,Xy.5 , u.>X(.5 f y y w f y g y g OX>X,X,X>X,Xx ].>X8.].>Xw.p x x x x c c c M l p.>X=XF.F.S.S.F.F.F.S.U N C C C C C Z Z Z [ *X>Xc.} @.#.#.{ V R.>XR.^  . .{  . . . ... .{.>XK.( X.{.>XL.) %.%.%.%.%.%.&.&.&.&.;.&.;.;.;.;.<.;.;.<.<.<.<.<.<.4.4.4.4.4.4.4.5.5.3./.",
"@ @ @ @ @ @ # # % % % & % % = = = = = - - = - - - : 8 : 8 8 8 9 9 9 0 0 0 0 2 e 9.j.j.L 1 e , g.>XG.5 w w w y f y y y g A.@X].].[.[.z `.>X8.].>Xw.s x x x x x c c M l p.>X,X>X>X>X>X>X>X>X,XY C C C C Z Z Z Y Z Y =X>Xt.v V V B ^ V T.>XR.! { {  .{ {  . . .( {.>XJ.( _ {.>XJ.) %.%.%.%.&.%.&.&.&.&.&.&.;.;.;.,.;.;.<.<.;.<.<.<.<.<.<.4.4.4.5.5.5.5.3./.",
"@ @ @ @ @ @ # % # % % = = % = = = - = - - - - - - : 8 8 8 8 9 < 9 0 0 0 0 0 0 e 7.R 4 3 w w > j.>X(.5 f f w w f g y g y y y P Q H g g [.>Xw.].>Xw.g x x x x c c M M M U W +.T n.>X+X+.| +.+.C C C C C C C S Z Z [ =X>XV.a.c.v.P..Xa.P.>XR.! { { {  .{  . . .( Z.#Xx.( X.L.#Xx._ %.%.%.%.&.%.=.%.&.&.&.;.&.,.;.,.;.<.<.;.<.<.<.<.4.<.4.4.4.4.4.5.5.6.3./.",
"@ @ @ # @ % # % # % % % % = = = = = = = - - - - < 8 - 8 8 9 9 9 9 9 9 9 0 q 2 J >X,Xe q q e 3 9.OXj.5 u w f y w h y g y g t G.>Xj.i g A.&XQ [.>Xw.g x x x x c c x M z s s s a e.>XoXd d d D n m C C C C S C Z Z [ ;X>X>X>X>X>X>X>XP.V.>XR.! {  .{  . . . ... .( X...X.X._ X.%.%.%.%.%.%.%.%.&.&.&.&.;.&.&.;.;.,.;.;.<.;.<.<.<.<.<.4.4.<.4.4.4.4.5.6.3./.",
"@ @ @ @ # # # # % # % % = = % % = = = - - = : - - : < 8 8 8 9 2 9 9 0 0 0 r 2 J >X:Xr 2 3 q q 5 5 5 w w y y y f y y g g y y '.>Xi.7 g g k g Q w.I k x x x c c c c M d.n.n.n.n.'.>X=Xn.B.B.M.B.#.N C C C S C S Z Y N.P.V.V.N.c.s.$.^ T.>XR.! { { {  . . ..... .!.,XJ.( X.!.,XJ._ %.%.%.%.=.%.&.&.&.&.;.&.;.;.;.,.<.<.<.;.<.<.<.<.<.<.4.<.4.4.5.4.5.5.3./.",
"@ @ @ @ # # @ # % % % % # = = = = = = - - - - - : < : : 8 8 9 9 9 9 0 0 0 0 2 J ,X:XJ G F F F F F F y w w y y f h h h h k t `.>Xz.z P P P P H I c z z x x x x c c I ,X>X>X>X>X>X>X>X>X>X>X>X>Xn.m C C Z C Z Z E Y B B B B C V ^ [ V T.>XR.! } { { {  .{  . ...;X>X X( *.;X>X X_ %.X.%.%.%.&.%.&.&.&.&.;.;.;.;.,.;.;.<.<.,.<.<.<.4.<.4.4.4.4.4.4.5.5.3.^.",
"@ @ @ @ # # # # # % % = % = = = = = - = = - - - < 8 8 8 8 8 9 9 9 0 0 0 2 r 2 L ,X,X>X>X>X>X>X>X>X,XF w y y y y y h f f y y `.>X>X>X>X>X>X>X>X>XG.g z x x x x c c M e.e.e.e.e.r.r.r.r.r.r.r.t.| C C C C Z Z Y Z Y [ [ Y [ [ [ [ { V T.>XR.! {  . .{  . . ... .x.!.:._ X.x.!.1.%.%.%.%.%.&.&.&.&.&.&.&.-.;.;.;.;.,.;.;.<.<.<.<.<.<.4.3.4.4.4.4.4.5.6.3./.",
"@ @ @ @ # # # # % % % % % = % = = = = - - = - - - - - 8 8 8 8 9 9 9 0 2 0 0 2 G A._._.A.D.D.D.D.D.A.h w y y y y f y f g y y u.`.D.G.G.G.G.G.H.`.p.k x x x c c c M c l l b x b b n n n n n m m N C C C Z Z Z Z S Z Z S [ [ ^ [ [ [ ^ Z.>XP.! { { {  . . . . . .( /  .X.X._ _ X.X.X.%.%.%.%.%.%.=.&.&.;.&.;.;.;.,.,.;.<.,.<.<.<.<.<.<.4.4.4.4.4.5.5.6.3./.",
"@ @ @ @ @ @ # # # = # # = = = % = = = = - - - - - 8 < 8 8 8 9 9 9 0 9 0 0 0 q 0 4 4 4 3 3 3 3 3 5 5 e w y y w f y y y y z y y y f i i g f i p g k x z x x x c c c M M M M N M N N N N N C N C C C C C Z C Z Z Z Z ^ ^ ^ ^ ^ [ ^ { [ { { { { { { {  . . . ... ...o...X.X.X.o.*.%.%.%.%.%.&.%.%.&.&.&.-.-.;.;.;.,.;.,.,.<.,.<.<.<.<.4.4.<.4.4.4.5.4.5.3.^.",
"O @ @ @ @ @ # # # # % = = % = % = = - - = = - : - - : 8 8 8 9 9 9 9 0 0 0 0 0 0 q q q q w e w w e w w 6 y y w f z y z y y z z y k j z k z z x z z x x x x x x c c M M M M M N M M N N N N N C N N C C Z Z Z Z Z Y ^ Y ^ [ [ [ [ ^ [ { [ [ { { { {  . . . . .......X.X.X.X.X.X.%.X.%.%.%.%.%.&.&.&.&.&.-.;.;.-.,.,.,.<.,.<.<.<.<.4.<.4.4.4.4.4.5.5.5.3./.",
"@ @ @ @ # # # # # = % # # = = = = = = = - - - - < - 8 8 8 8 9 9 9 0 0 0 0 0 r r 0 q q q q q q w e w w w y y y y y y x y y z y x j j g z z z k x z z z x x x c c c M c M M N M N N N N N N C N C C C C C Z Z Z Y ^ Z Y ^ Y [ [ ^ [ { { [ { { { { { {  .{ .. .......X.X.X.%.X.%.X.%.%.%.%.&.%.%.&.&.&.&.&.&.;.;.,.,.,.,.,.<.<.<.<.<.<.<.4.4.4.4.4.5.5.3./.",
"@ @ @ @ @ # # # # = # ; = % = = = = - = = - - - : 8 < : 8 8 < 9 9 9 9 9 0 0 0 0 0 q q q q q q w w w w w w y y y y y y y z y z y j j j j k z k z x x z x x c x c c c M M M M N M N N N N N N C N C C C C Z Z Z Z Z Y ^ ^ ^ [ [ [ [ [ [ [ { { { {  . . . . . .......X.X.X.X.X.%.%.%.%.%.%.&.%.&.&.&.&.;.&.,.;.-.,.,.,.<.<.,.<.<.<.<.4.<.4.4.4.5.4.5.6.3./.",
"@ @ @ @ # @ # # % % % # # = = = = - = - ; : - - : < : 8 8 9 9 9 9 9 0 0 0 0 0 q q q q q q w q q w e w w y y y f y y y y y c y M g k j k z z z z z x z x x c x c M c M M M M M N M N N N N C C C C C C Z C S Z S Y ^ ^ ^ ^ ^ ^ [ [ { [ { { { { {  .{  . . . .......X.X.X.X.%.%.%.X.%.%.%.&.%.&.&.&.&.;.&.&.,.,.,.,.,.,.,.<.<.<.<.4.<.4.<.4.5.4.5.5.5.3./.",
"@ @ @ @ @ # # # % % % % = = # = = = = = : ; - : - : 8 8 8 8 < 9 9 0 0 0 0 0 0 0 q 0 q q q q w w w w w w y y w f y y y x y y y y j j k j j z z z z z x x x x c c M c M M M N M N N N N N N C N C C C C C S C Z Z Y ^ Y ^ ^ ^ [ [ { [ [ [ { { { { { {  .{  .........X.X.X.X.X.X.X.%.%.%.%.%.%.&.%.&.&.&.=.,.&.&.,.,.<.,.<.<.<.<.<.<.4.4.<.4.4.4.5.5.5.3./.",
"@ @ @ # # % # % % % ; % = = ; ; ; ; : : : : 8 8 8 8 9 8 9 9 9 9 0 0 0 0 q q q r r r q q w q e w w w y y y g f h y y y y c y y y k j z j z z z x x x x x c c c M M M M M M M N N N N C N N C C C C C S C Z Y E E Y Y ^ [ [ [ [ [ [ { { { { { { {  . . .o. . .o...X.X.X.X.o.*.X.%.%.%.%.%.&.&.=.=.=.=.;.;.;.;.;.;.,.,.<.<.<.,.<.<.<.4.4.4.4.5.5.5.5.6.3./.",
". . . O O . O O   . O O   O O O O O O + O + + + + + + & = & & & & & * * * * * * * > > > , , , 1 1 1 1 1 5 1 1 5 6 6 y 6 t t 7 t 7 i i i i i i i p p p p p s s p s s s s l l l d l l l n b n n n m m m m m B m m B B B B B C V V Z V ! V ! ! ! ~ ! ! ! ! / / / / / ( ( / ) ) ) ) _ _ _ ` _ _ ` ` ` ' ` ' ' ' ' ' ' ' ] ] ] -.] >.>.>.<.>.>.>.>.3.3.3.2.^.",
"q.q.q.q.q.q.q.q.q.q.f.f.f.f.f.f.f.f.f.h.h.h.h.h.h.g.g.g.g.g.g.g.g.g.j.g.j.j.j.j.j.j.j.j.j.j.z.j.k.j.z.j.k.k.k.k.k.k.k.z.z.k.z.z.l.b.b.m.m.m.m.m.m.m.M.m.M.M.M.M.M.M.M.M.M.M.B.M.B.B.B.B.B.B.B.B.B.B.B.V.V.V.B.V.V.V.V.V.V.P.V.P.V.P.P.C.P.P.P.P.P.P.P.I.P.I.P.I.I.I.I.I.I.I.I.R.I.Y.Y.Y.Y.Y.Y.Y.Y.Y.Y.Q.Q.Y.Q.Q.Q.Q.Q.Q.~.~.~.~.~.~.~./.~.^././././.^.$X"
};
