/* XPM */
static char *north1728283435[] = {
/* columns rows colors chars-per-pixel */
"32 32 98 2 ",
"   c #FF8032",
".  c #FF873C",
"X  c #FF883F",
"o  c #FF8940",
"O  c #FF8941",
"+  c #FF8A41",
"@  c #FF8A42",
"#  c #FF8B42",
"$  c #FF8A43",
"%  c #FF8B43",
"&  c #FF8B44",
"*  c #FF8C45",
"=  c #FF8D46",
"-  c #FF8D47",
";  c #FF8E48",
":  c #FF8E49",
">  c #FF8F4A",
",  c #FF904B",
"<  c #FF904C",
"1  c #FF914C",
"2  c #FF914D",
"3  c #FF914E",
"4  c #FF924E",
"5  c #FF924F",
"6  c #FF934F",
"7  c #FF9350",
"8  c #FF9552",
"9  c #FF9554",
"0  c #FF9857",
"q  c #FF9858",
"w  c #FF9859",
"e  c #FF9959",
"r  c #FF9B5C",
"t  c #FF9C5E",
"y  c #FF9F65",
"u  c #FFA166",
"i  c #FFA167",
"p  c #FFA268",
"a  c #FFA269",
"s  c #FFA36A",
"d  c #FFA46B",
"f  c #FFA46D",
"g  c #FFA56E",
"h  c #FFA770",
"j  c #FFA872",
"k  c #FFA973",
"l  c #FFAD7A",
"z  c #FFB07F",
"x  c #FFB182",
"c  c #FFB587",
"v  c #FFB588",
"b  c #FFB78A",
"n  c #FFB88B",
"m  c #FFB88C",
"M  c #FFB88D",
"N  c #FFB98D",
"B  c #FFBC91",
"V  c #FFBC92",
"C  c #FFC098",
"Z  c #FFC099",
"A  c #FFC09A",
"S  c #FFC19A",
"D  c #FFC29C",
"F  c #FFCAAA",
"G  c #FFCBAB",
"H  c #FFCCAC",
"J  c #FFCDAE",
"K  c #FFCEAF",
"L  c #FFCEB0",
"P  c #FFCFB1",
"I  c #FFCFB2",
"U  c #FFD7BF",
"Y  c #FFE0CC",
"T  c #FFE4D3",
"R  c #FFE5D4",
"E  c #FFE5D5",
"W  c #FFE5D6",
"Q  c #FFE6D6",
"!  c #FFE6D7",
"~  c #FFE7D8",
"^  c #FFE7D9",
"/  c #FFEADC",
"(  c #FFEBDE",
")  c #FFECE0",
"_  c #FFEEE4",
"`  c #FFEFE5",
"'  c #FFF0E7",
"]  c #FFF1EA",
"[  c #FFF2EA",
"{  c #FFF3EC",
"}  c #FFF3ED",
"|  c #FFFAF7",
" . c #FFFBF8",
".. c #FFFBF9",
"X. c #FFFDFB",
"o. c #FFFDFC",
"O. c #FFFEFE",
"+. c white",
/* pixels */
"2 2 2 2 2 2 2 2 2 2 2 2 2 2 2 2 2 2 2 2 2 2 2 2 2 2 2 2 2 2 2 2 ",
"2 2 2 2 2 2 2 2 2 2 2 2 2 2 2 2 2 2 2 2 2 2 2 2 2 2 2 2 2 2 2 2 ",
"2 2 2 2 2 2 2 2 2 2 2 2 2 2 2 2 2 2 2 2 2 2 2 2 2 2 2 2 2 2 2 2 ",
"2 2 2 2 2 2 2 2 2 2 2 2 2 2 2 2 2 2 2 2 2 2 2 2 2 2 2 2 2 2 2 2 ",
"2 2 2 2 2 2 2 2 2 2 2 2 2 2 2 2 2 2 2 2 2 2 2 2 2 2 2 2 2 2 2 2 ",
"2 2 2 2 2 2 2 2 2 2 2 2 2 2 2 2 2 2 2 2 2 2 2 2 2 2 2 2 2 2 2 2 ",
"2 2 2 2 2 2 2 2 2 2 2 2 2 2 2 2 2 2 2 2 2 2 2 2 2 2 2 2 2 2 2 2 ",
"2 2 2 2 2 2 2 2 2 2 2 2 2 2 2 2 2 2 2 2 2 2 2 2 2 2 2 2 2 2 2 2 ",
"2 2 2 2 2 2 2 2 2 2 2 2 2 2 2 2 2 2 2 2 2 2 2 2 2 2 2 2 2 2 2 2 ",
"2 2 2 2 2 2 2 2 2 2 2 2 2 2 2 2 2 2 2 2 2 2 2 2 2 2 2 2 2 2 2 2 ",
"2 2 2 2 2 2 2 2 2 2 , 9 Q J - > 2 . M ` k - 2 2 2 2 2 2 2 2 2 2 ",
"2 2 2 2 2 2 2 2 2 2 > q | | Q ~ ~ T { o.x & 7 2 2 2 2 2 2 2 2 2 ",
"2 2 2 2 2 2 2 2 2 2 > 9 X.] J J I F Q o.l - 2 2 2 2 2 2 2 2 2 2 ",
"2 2 2 2 2 2 2 2 2 7 2 q o.` C S D B Y o.x - 7 2 2 2 2 2 2 2 2 2 ",
"2 2 2 2 2 2 2 2 2 2 - 2 Q ' ] { } } ' ) k . 2 2 2 2 2 2 2 2 2 2 ",
"2 2 2 2 2 2 2 2 2 > i b M M n n n n M M n k 2 2 2 2 2 2 2 2 2 2 ",
"2 2 2 2 2 2 2 2 7 + D o.| ..X.o.o.....| o.U > 2 2 2 2 2 2 2 2 2 ",
"2 2 2 2 2 2 2 2 2 2 q a a a i ~ X.g i g d t 2 2 2 2 2 2 2 2 2 2 ",
"2 2 2 2 2 2 2 2 2 2 + f ` ` ' X.o.' ( ( l + 7 2 2 2 2 2 2 2 2 2 ",
"2 2 2 2 2 2 2 2 2 2 > y I I P F J F Q o.M & 2 2 2 2 2 2 2 2 2 2 ",
"2 2 2 2 2 2 2 2 2 2 2 > + + X + -   V o.b + 7 2 2 2 2 2 2 2 2 2 ",
"2 2 2 2 2 2 2 2 2 2 2 7 2 8 2 8 8 + S o.c - 2 2 2 2 2 2 2 2 2 2 ",
"2 2 2 2 2 2 2 2 2 2 2 2 2 2 2 2 2 > q k w , 2 2 2 2 2 2 2 2 2 2 ",
"2 2 2 2 2 2 2 2 2 2 2 2 2 2 2 2 2 2 , - > 2 2 2 2 2 2 2 2 2 2 2 ",
"2 2 2 2 2 2 2 2 2 2 2 2 2 2 2 2 2 2 2 2 2 2 2 2 2 2 2 2 2 2 2 2 ",
"2 2 2 2 2 2 2 2 2 2 2 2 2 2 2 2 2 2 2 2 2 2 2 2 2 2 2 2 2 2 2 2 ",
"2 2 2 2 2 2 2 2 2 2 2 2 2 2 2 2 2 2 2 2 2 2 2 2 2 2 2 2 2 2 2 2 ",
"2 2 2 2 2 2 2 2 2 2 2 2 2 2 2 2 2 2 2 2 2 2 2 2 2 2 2 2 2 2 2 2 ",
"2 2 2 2 2 2 2 2 2 2 2 2 2 2 2 2 2 2 2 2 2 2 2 2 2 2 2 2 2 2 2 2 ",
"2 2 2 2 2 2 2 2 2 2 2 2 2 2 2 2 2 2 2 2 2 2 2 2 2 2 2 2 2 2 2 2 ",
"2 2 2 2 2 2 2 2 2 2 2 2 2 2 2 2 2 2 2 2 2 2 2 2 2 2 2 2 2 2 2 2 ",
"2 2 2 2 2 2 2 2 2 2 2 2 2 2 2 2 2 2 2 2 2 2 2 2 2 2 2 2 2 2 2 2 "
};
