/* XPM */
static char *ruibao1728283436[] = {
/* columns rows colors chars-per-pixel */
"32 32 79 1 ",
"  c black",
". c #010101",
"X c #020202",
"o c gray1",
"O c #040404",
"+ c gray4",
"@ c #0C0C0C",
"# c #0E0E0E",
"$ c #101010",
"% c gray9",
"& c #1B1B1B",
"* c #1D1D1D",
"= c gray14",
"- c #252525",
"; c gray15",
": c #282828",
"> c gray16",
", c #2C2C2C",
"< c #2D2D2D",
"1 c #353535",
"2 c gray23",
"3 c #484848",
"4 c #4C4C4C",
"5 c #535353",
"6 c gray34",
"7 c #585858",
"8 c gray35",
"9 c #5A5A5A",
"0 c #5B5B5B",
"q c gray36",
"w c #5D5D5D",
"e c #606060",
"r c #646464",
"t c gray40",
"y c #6A6A6A",
"u c #6D6D6D",
"i c #6F6F6F",
"p c #8B8B8B",
"a c #939393",
"s c #989898",
"d c #9A9A9A",
"f c #9B9B9B",
"g c gray61",
"h c #9F9F9F",
"j c gray65",
"k c #A7A7A7",
"l c gray66",
"z c #A9A9A9",
"x c #ACACAC",
"c c gray69",
"v c #B1B1B1",
"b c #B2B2B2",
"n c #B6B6B6",
"m c gray",
"M c gray75",
"N c #C1C1C1",
"B c gray76",
"V c #C3C3C3",
"C c #C5C5C5",
"Z c gray78",
"A c #C8C8C8",
"S c gray79",
"D c #D2D2D2",
"F c gray86",
"G c gray87",
"H c gray89",
"J c gray90",
"K c #E6E6E6",
"L c #E7E7E7",
"P c gray93",
"I c #F4F4F4",
"U c #F6F6F6",
"Y c gray97",
"T c #F8F8F8",
"R c gray98",
"E c #FBFBFB",
"W c gray99",
"Q c #FEFEFE",
"! c white",
/* pixels */
"                                ",
"                                ",
"                                ",
"                                ",
"                                ",
"                                ",
"                                ",
"                                ",
"                                ",
"                                ",
"           -ZAZAAAmm4 O         ",
"           *ddddgaZWu O         ",
"           $0errr0gWy           ",
"         O <WRKLLLGK0 O         ",
"         O >Wb*-==->&           ",
"           <WWUUURUWz           ",
"           @506000602           ",
"        O qFmNNnbNNmDp          ",
"          3bkkzPWxkkbi O        ",
"               mR+              ",
"           OOO NR@ O            ",
"               NU+              ",
"               >1               ",
"                                ",
"                                ",
"                                ",
"                                ",
"                                ",
"                                ",
"                                ",
"                                ",
"                                "
};
