/* XPM */
static char *south1728283436[] = {
/* columns rows colors chars-per-pixel */
"32 32 113 2 ",
"   c #00B347",
".  c #00B750",
"X  c #00B852",
"o  c #00B853",
"O  c #00B954",
"+  c #00BA57",
"@  c #01BA58",
"#  c #00BB58",
"$  c #00BB5A",
"%  c #00BB5B",
"&  c #05BA59",
"*  c #00BC5B",
"=  c #00BC5C",
"-  c #00BD5D",
";  c #03BD5D",
":  c #00BD5E",
">  c #00BD5F",
",  c #04BD5D",
"<  c #08BB5B",
"1  c #00BE60",
"2  c #00BE61",
"3  c #00BE62",
"4  c #00BF62",
"5  c #00BE63",
"6  c #00BF63",
"7  c #01BF63",
"8  c #02BF63",
"9  c #01BF64",
"0  c #02BF64",
"q  c #02C064",
"w  c #03C065",
"e  c #04C065",
"r  c #04C066",
"t  c #07C167",
"y  c #08C168",
"u  c #09C169",
"i  c #0BC26A",
"p  c #0CC26A",
"a  c #0EC36C",
"s  c #0FC36C",
"d  c #10C36D",
"f  c #11C36D",
"g  c #13C46E",
"h  c #17C471",
"j  c #1FC675",
"k  c #2AC97C",
"l  c #2CCA7D",
"z  c #2DCA7E",
"x  c #30CB81",
"c  c #31CB81",
"v  c #3BCC81",
"b  c #3ECF88",
"n  c #3FCF89",
"m  c #41CF8A",
"M  c #42CF8B",
"N  c #45D08D",
"B  c #59D598",
"V  c #5AD59A",
"C  c #5AD69A",
"Z  c #5BD69B",
"A  c #66D9A1",
"S  c #66D8A2",
"D  c #6BDAA5",
"F  c #6CDAA4",
"G  c #6DDAA6",
"H  c #7ADBA7",
"J  c #72DBA9",
"K  c #71DCA9",
"L  c #78DDAC",
"P  c #7BDEAE",
"I  c #7DDEAF",
"U  c #81DFB2",
"Y  c #81E0B2",
"T  c #84E0B4",
"R  c #85E0B4",
"E  c #A1E7C4",
"W  c #A1E8C6",
"Q  c #A5E9C8",
"!  c #A6E9C9",
"~  c #AAEACB",
"^  c #ACEACC",
"/  c #AEEBCD",
"(  c #AFEACE",
")  c #B3ECD1",
"_  c #B5ECD1",
"`  c #BDEFD7",
"'  c #BEEFD7",
"]  c #BFEFD8",
"[  c #C0EFD8",
"{  c #C1F0D9",
"}  c #C3F0DA",
"|  c #C3F0DB",
" . c #C4F0DA",
".. c #CDF3E1",
"X. c #CEF3E1",
"o. c #D4F4E5",
"O. c #E0F7EC",
"+. c #E2F8ED",
"@. c #E9F9F2",
"#. c #EAF9F2",
"$. c #EAFAF2",
"%. c #EDFBF4",
"&. c #F0FBF6",
"*. c #F3FBF6",
"=. c #F3FCF8",
"-. c #F4FCF8",
";. c #F4FCF9",
":. c #F7FDFA",
">. c #F8FEFB",
",. c #FAFEFC",
"<. c #FBFEFD",
"1. c #FDFFFE",
"2. c white",
/* pixels */
"6 6 6 6 6 6 6 6 6 6 6 6 6 6 6 6 6 6 6 6 6 6 6 6 6 6 6 6 6 6 6 6 ",
"6 6 6 6 6 6 6 6 6 6 6 6 6 6 6 6 6 6 6 6 6 6 6 6 6 6 6 6 6 6 6 6 ",
"6 6 6 6 6 6 6 6 6 6 6 6 6 6 6 6 6 6 6 6 6 6 6 6 6 6 6 6 6 6 6 6 ",
"6 6 6 6 6 6 6 6 6 6 6 6 6 6 6 6 6 6 6 6 6 6 6 6 6 6 6 6 6 6 6 6 ",
"6 6 6 6 6 6 6 6 6 6 6 6 6 6 6 6 6 6 6 6 6 6 6 6 6 6 6 6 6 6 6 6 ",
"6 6 6 6 6 6 6 6 6 6 6 6 6 6 6 6 6 6 6 6 6 6 6 6 6 6 6 6 6 6 6 6 ",
"6 6 6 6 6 6 6 6 6 6 6 6 6 6 6 6 6 6 6 6 6 6 6 6 6 6 6 6 6 6 6 6 ",
"6 6 6 6 6 6 6 6 6 6 6 6 6 6 6 6 6 6 6 6 6 6 6 6 6 6 6 6 6 6 6 6 ",
"6 6 6 6 6 6 6 6 6 6 6 w q 6 6 6 6 6 > > 6 6 6 6 6 6 6 6 6 6 6 6 ",
"6 6 6 6 6 6 6 6 6 6 6 $ ; 6 6 6 6 6 h c p 6 6 6 6 6 6 6 6 6 6 6 ",
"6 6 6 6 6 6 6 6 6 6 e Y K 6 6 6 e + U 2.b > q 6 6 6 6 6 6 6 6 6 ",
"6 6 6 6 6 6 6 6 6 6 u =.o.q 6 q e + R 2.z . e 6 6 6 6 6 6 6 6 6 ",
"6 6 6 6 6 6 6 6 6 6 u $. .u w e u + R 2.( J e 6 6 6 6 6 6 6 6 6 ",
"6 6 6 6 6 6 6 6 6 > u #. .; + + , o R 2.-.[ e 6 6 6 6 6 6 6 6 6 ",
"6 6 6 6 6 6 6 6 6 > u #.@.V A P _ V L 2.m > e 6 6 6 6 6 6 6 6 6 ",
"6 6 6 6 6 6 6 6 6 6 u O.2.2.2.>.$.A I 2.m $ e 6 6 6 6 6 6 6 6 6 ",
"6 6 6 6 6 6 6 6 6 6 6 z k k g 0 > . B  .k > 6 6 6 6 6 6 6 6 6 6 ",
"6 6 6 6 6 6 6 6 6 6 6 ; F W ! ( ^ ^ ~ E k > 6 6 6 6 6 6 6 6 6 6 ",
"6 6 6 6 6 6 6 6 6 6 6 6 ` 2.[ [ } ` O.2.M ; w 6 6 6 6 6 6 6 6 6 ",
"6 6 6 6 6 6 6 6 6 6 6 > ` &.< . &   H 2.b ; w 6 6 6 6 6 6 6 6 6 ",
"6 6 6 6 6 6 6 6 6 6 6 6 [ 2.F S F V ( 2.m > e 6 6 6 6 6 6 6 6 6 ",
"6 6 6 6 6 6 6 6 6 6 6 6 ^ >.>.>.,.>.-.&.b ; e 6 6 6 6 6 6 6 6 6 ",
"6 6 6 6 6 6 6 6 6 6 6 6 a f a f s a a f 0 6 6 6 6 6 6 6 6 6 6 6 ",
"6 6 6 6 6 6 6 6 6 6 6 6 6 6 > 6 6 6 > 6 6 6 6 6 6 6 6 6 6 6 6 6 ",
"6 6 6 6 6 6 6 6 6 6 6 6 6 6 6 6 6 6 6 6 6 6 6 6 6 6 6 6 6 6 6 6 ",
"6 6 6 6 6 6 6 6 6 6 6 6 6 6 6 6 6 6 6 6 6 6 6 6 6 6 6 6 6 6 6 6 ",
"6 6 6 6 6 6 6 6 6 6 6 6 6 6 6 6 6 6 6 6 6 6 6 6 6 6 6 6 6 6 6 6 ",
"6 6 6 6 6 6 6 6 6 6 6 6 6 6 6 6 6 6 6 6 6 6 6 6 6 6 6 6 6 6 6 6 ",
"6 6 6 6 6 6 6 6 6 6 6 6 6 6 6 6 6 6 6 6 6 6 6 6 6 6 6 6 6 6 6 6 ",
"6 6 6 6 6 6 6 6 6 6 6 6 6 6 6 6 6 6 6 6 6 6 6 6 6 6 6 6 6 6 6 6 ",
"6 6 6 6 6 6 6 6 6 6 6 6 6 6 6 6 6 6 6 6 6 6 6 6 6 6 6 6 6 6 6 6 ",
"6 6 6 6 6 6 6 6 6 6 6 6 6 6 6 6 6 6 6 6 6 6 6 6 6 6 6 6 6 6 6 6 "
};
