/* XPM */
static char *west1728283436[] = {
/* columns rows colors chars-per-pixel */
"32 32 98 2 ",
"   c #0032A2",
".  c #003DA7",
"X  c #003FA8",
"o  c #0040A8",
"O  c #0040A9",
"+  c #0041A9",
"@  c #0141A9",
"#  c #0042AA",
"$  c #0043AA",
"%  c #0044AA",
"&  c #0045AA",
"*  c #0044AB",
"=  c #0145AB",
"-  c #0344AA",
";  c #0046AB",
":  c #0047AC",
">  c #0147AC",
",  c #0048AC",
"<  c #0049AC",
"1  c #0049AD",
"2  c #004AAD",
"3  c #014AAD",
"4  c #004BAD",
"5  c #014BAD",
"6  c #024BAD",
"7  c #014BAE",
"8  c #024BAE",
"9  c #0648AC",
"0  c #044BAD",
"q  c #014CAE",
"w  c #024CAE",
"e  c #034CAE",
"r  c #034DAE",
"t  c #044CAE",
"y  c #044DAE",
"u  c #054DAF",
"i  c #044EAF",
"p  c #064FAF",
"a  c #084EAF",
"s  c #0A51B0",
"d  c #0B52B1",
"f  c #0C52B0",
"g  c #1756B2",
"h  c #205DB6",
"j  c #2060B7",
"k  c #2360B7",
"l  c #2461B8",
"z  c #2967BA",
"x  c #2B69BB",
"c  c #2E6ABC",
"v  c #2E6BBC",
"b  c #306BBC",
"n  c #316CBD",
"m  c #336EBD",
"M  c #346CBC",
"N  c #3671BF",
"B  c #3C74C0",
"V  c #4379C3",
"C  c #477CC3",
"Z  c #5284C7",
"A  c #5485C8",
"S  c #5586C8",
"D  c #5887C8",
"F  c #5F8ECC",
"G  c #6290CD",
"H  c #6C96D0",
"J  c #88AAD9",
"K  c #91B1DC",
"L  c #95B4DD",
"P  c #A4BDE1",
"I  c #A5BFE2",
"U  c #B1C8E6",
"Y  c #B4C9E7",
"T  c #BACDE9",
"R  c #BCCFE9",
"E  c #CAD9ED",
"W  c #D5E1F1",
"Q  c #D4E1F2",
"!  c #D8E3F2",
"~  c #D9E4F3",
"^  c #DAE4F3",
"/  c #DAE5F3",
"(  c #DBE5F3",
")  c #DBE5F4",
"_  c #DDE6F4",
"`  c #DDE7F4",
"'  c #DEE7F4",
"]  c #DFE8F5",
"[  c #E0E8F5",
"{  c #E0E9F5",
"}  c #E5EDF7",
"|  c #E9F0F8",
" . c #ECF1F9",
".. c #F4F7FC",
"X. c #FAFBFD",
"o. c #FBFCFD",
"O. c #FAFCFE",
"+. c white",
/* pixels */
"2 2 2 2 2 2 2 2 2 2 2 2 2 2 2 2 2 2 2 2 2 2 2 2 2 2 2 2 2 2 2 2 ",
"2 2 2 2 2 2 2 2 2 2 2 2 2 2 2 2 2 2 2 2 2 2 2 2 2 2 2 2 2 2 2 2 ",
"2 2 2 2 2 2 2 2 2 2 2 2 2 2 2 2 2 2 2 2 2 2 2 2 2 2 2 2 2 2 2 2 ",
"2 2 2 2 2 2 2 2 2 2 2 2 2 2 2 2 2 2 2 2 2 2 2 2 2 2 2 2 2 2 2 2 ",
"2 2 2 2 2 2 2 2 2 2 2 2 2 2 2 2 2 2 2 2 2 2 2 2 2 2 2 2 2 2 2 2 ",
"2 2 2 2 2 2 2 2 2 2 2 2 2 2 2 2 2 2 2 2 2 2 2 2 2 2 2 2 2 2 2 2 ",
"2 2 2 2 2 2 2 2 2 2 2 2 2 2 2 2 2 2 2 2 2 2 2 2 2 2 2 2 2 2 2 2 ",
"2 2 2 2 2 2 2 2 2 2 2 2 2 2 2 2 2 2 2 2 4 2 2 2 2 2 2 2 2 2 2 2 ",
"2 2 2 2 2 2 2 2 2 2 2 2 2 4 4 2 2 2 2 * * 2 2 2 2 2 2 2 2 2 2 2 ",
"2 2 2 2 2 2 2 2 2 2 2 2 4 * # 2 2 2 4 z z 2 2 2 2 2 2 2 2 2 2 2 ",
"2 2 2 2 2 2 2 2 2 2 2 2 2 h B d 6 6 y ( ! y 6 2 2 2 2 2 2 2 2 2 ",
"2 2 2 2 2 2 2 2 2 2 2 y X K +.m # 2 a { ( 0 * 2 2 2 2 2 2 2 2 2 ",
"2 2 2 2 2 2 2 2 2 2 2 y X L +.N # # - ' ( y 2 2 2 2 2 2 2 2 2 2 ",
"2 2 2 2 2 2 2 2 2 2 2 2 * I +.V a S S  .( y 6 2 2 2 2 2 2 2 2 2 ",
"2 2 2 2 2 2 2 2 2 2 2 2 0 E +.G m +.o.+.W y 6 2 2 2 2 2 2 2 2 2 ",
"2 2 2 2 2 2 2 2 2 2 y # M O.+.T a x c } ( 0 6 2 2 2 2 2 2 2 2 2 ",
"2 2 2 2 2 2 2 2 2 2 > X U X.Y +.D   9 ( ' 4 2 2 2 2 2 2 2 2 2 2 ",
"2 2 2 2 2 2 2 2 2 2 f J +.I g | ..F y { ' y 2 2 2 2 2 2 2 2 2 2 ",
"2 2 2 2 2 2 2 2 y # A +.W g . C +.R 2 { ( y 6 2 2 2 2 2 2 2 2 2 ",
"2 2 2 2 2 2 2 2 2 2 p H l - y # m l * { ( 2 6 * 2 2 2 2 2 2 2 2 ",
"2 2 2 2 2 2 2 2 2 2 2 X * 4 4 y * * y { ' 4 6 6 2 2 2 2 2 2 2 2 ",
"2 2 2 2 2 2 2 2 2 2 2 2 2 2 2 2 4 2 2 ( ) y 6 2 2 2 2 2 2 2 2 2 ",
"2 2 2 2 2 2 2 2 2 2 2 2 2 2 2 2 2 2 2 m v 2 2 2 2 2 2 2 2 2 2 2 ",
"2 2 2 2 2 2 2 2 2 2 2 2 2 2 2 2 2 2 2 * * 2 2 2 2 2 2 2 2 2 2 2 ",
"2 2 2 2 2 2 2 2 2 2 2 2 2 2 2 2 2 2 2 2 0 2 2 2 2 2 2 2 2 2 2 2 ",
"2 2 2 2 2 2 2 2 2 2 2 2 2 2 2 2 2 2 2 2 2 2 2 2 2 2 2 2 2 2 2 2 ",
"2 2 2 2 2 2 2 2 2 2 2 2 2 2 2 2 2 2 2 2 2 2 2 2 2 2 2 2 2 2 2 2 ",
"2 2 2 2 2 2 2 2 2 2 2 2 2 2 2 2 2 2 2 2 2 2 2 2 2 2 2 2 2 2 2 2 ",
"2 2 2 2 2 2 2 2 2 2 2 2 2 2 2 2 2 2 2 2 2 2 2 2 2 2 2 2 2 2 2 2 ",
"2 2 2 2 2 2 2 2 2 2 2 2 2 2 2 2 2 2 2 2 2 2 2 2 2 2 2 2 2 2 2 2 ",
"2 2 2 2 2 2 2 2 2 2 2 2 2 2 2 2 2 2 2 2 2 2 2 2 2 2 2 2 2 2 2 2 ",
"2 2 2 2 2 2 2 2 2 2 2 2 2 2 2 2 2 2 2 2 2 2 2 2 2 2 2 2 2 2 2 2 "
};
