/* XPM */
static char *wotou1728283436[] = {
/* columns rows colors chars-per-pixel */
"32 32 80 1 ",
"  c #5D5D5D",
". c #646464",
"X c #676767",
"o c #686868",
"O c DimGray",
"+ c #6A6A6A",
"@ c gray42",
"# c #6D6D6D",
"$ c gray43",
"% c #6F6F6F",
"& c gray44",
"* c #717171",
"= c gray45",
"- c #747474",
"; c gray46",
": c #767676",
"> c #777777",
", c gray47",
"< c #797979",
"1 c #7B7B7B",
"2 c #7C7C7C",
"3 c #808080",
"4 c gray51",
"5 c #838383",
"6 c #848484",
"7 c #868686",
"8 c #888888",
"9 c gray54",
"0 c #8B8B8B",
"q c gray55",
"w c #8D8D8D",
"e c gray57",
"r c #929292",
"t c #939393",
"y c gray58",
"u c #989898",
"i c gray61",
"p c #9F9F9F",
"a c #A0A0A0",
"s c #A2A2A2",
"d c #A7A7A7",
"f c gray68",
"g c #B1B1B1",
"h c gray70",
"j c gray71",
"k c #B6B6B6",
"l c #B7B7B7",
"z c gray72",
"x c #B9B9B9",
"c c #BBBBBB",
"v c gray74",
"b c gray75",
"n c gray77",
"m c #C6C6C6",
"M c #CBCBCB",
"N c #D5D5D5",
"B c #DADADA",
"V c gainsboro",
"C c #DDDDDD",
"Z c gray87",
"A c #DFDFDF",
"S c #E1E1E1",
"D c #E2E2E2",
"F c #E6E6E6",
"G c #E7E7E7",
"H c #ECECEC",
"J c #EEEEEE",
"K c #EFEFEF",
"L c gray94",
"P c gray95",
"I c #F4F4F4",
"U c gray96",
"Y c #F6F6F6",
"T c gray97",
"R c #F9F9F9",
"E c gray98",
"W c #FBFBFB",
"Q c gray99",
"! c #FEFEFE",
"~ c white",
/* pixels */
"================================",
"================================",
"================================",
"================================",
"================================",
"================================",
"================================",
"===================--===========",
"=============---====$===========",
"===========-=OOO$==78-==========",
"=========--$5zMz5$-CR1$=========",
"=========-$8PRCRP8$DR-==========",
"=========-Ob~8.q~b.D~-==========",
"========--Ol~a$a~lODR-==========",
"========--=1C~P~B-$DR1==========",
"==========-=-ald8t7BR-==========",
"========-OdRPKFUR~gNR1==========",
"==========qnzC~mut2CR1$=========",
"=========-$$ f~t8KK~U1==========",
"===========1Og~i5zlPU-==========",
"===========-.l~a.O.CR1$=========",
"==========--$aFt=--BU1==========",
"==========-========78===========",
"================================",
"===================-============",
"================================",
"================================",
"================================",
"================================",
"================================",
"================================",
"================================"
};
