/* XPM */
static char *door1728283434[] = {
/* columns rows colors chars-per-pixel */
"32 32 85 1 ",
"  c black",
". c #010101",
"X c #020202",
"o c gray1",
"O c #040404",
"+ c gray2",
"@ c #070707",
"# c gray3",
"$ c gray4",
"% c #0B0B0B",
"& c #0C0C0C",
"* c #111111",
"= c gray7",
"- c #131313",
"; c #181818",
": c #191919",
"> c gray11",
", c #1E1E1E",
"< c gray12",
"1 c #222222",
"2 c #272727",
"3 c #282828",
"4 c gray16",
"5 c #2A2A2A",
"6 c #2C2C2C",
"7 c gray18",
"8 c gray19",
"9 c gray20",
"0 c #393939",
"q c gray23",
"w c gray25",
"e c gray27",
"r c #494949",
"t c gray30",
"y c #515151",
"u c gray33",
"i c #555555",
"p c #5A5A5A",
"a c gray37",
"s c #5F5F5F",
"d c #676767",
"f c #6D6D6D",
"g c #6F6F6F",
"h c #747474",
"j c gray46",
"k c #767676",
"l c gray47",
"z c #797979",
"x c #7C7C7C",
"c c #7E7E7E",
"v c gray53",
"b c #929292",
"n c gray58",
"m c #979797",
"M c #9A9A9A",
"N c #9D9D9D",
"B c #9F9F9F",
"V c gray64",
"C c #A4A4A4",
"Z c #B7B7B7",
"A c #BCBCBC",
"S c #CACACA",
"D c gray80",
"F c #CDCDCD",
"G c #CECECE",
"H c gray81",
"J c gray82",
"K c #D7D7D7",
"L c gray86",
"P c gray89",
"I c #E6E6E6",
"U c #E7E7E7",
"Y c gray91",
"T c gray93",
"R c #EFEFEF",
"E c gray94",
"W c #F1F1F1",
"Q c #F3F3F3",
"! c #F4F4F4",
"~ c #F6F6F6",
"^ c gray97",
"/ c #F8F8F8",
"( c #F9F9F9",
") c #FEFEFE",
"_ c white",
/* pixels */
"                                ",
"                                ",
"                                ",
"                                ",
"                                ",
"                                ",
"                                ",
"                                ",
"              O  O              ",
"                                ",
"           =bBVCCCBM7           ",
"           ,(WHHJSU_t O         ",
"           :_B  O h_e O         ",
"           ,_JfhhdZ_r           ",
"           :KYRRRWYPw O         ",
"          &1332333331=          ",
"        O f_^((WW(^^_V          ",
"          3atiyA_hypdq          ",
"           =bi m_7              ",
"         O 9_m 9a%   O          ",
"           9_Hhhfxcv0           ",
"         O 3LUW^WWY_f O         ",
"            &%O%%O%%O           ",
"                                ",
"                                ",
"                                ",
"                                ",
"                                ",
"                                ",
"                                ",
"                                ",
"                                "
};
