/* XPM */
static char *_2a8a4fde7a34f0ea63691d9192e036fynX1SNQjf5v6lWAZ[] = {
/* columns rows colors chars-per-pixel */
"11 10 58 1 ",
"  c #FFDA45",
". c #FFDC4D",
"X c #FFDC4E",
"o c #FFDC50",
"O c #FFDC51",
"+ c #FFDD57",
"@ c #FFDE57",
"# c #FFDD58",
"$ c #FFDE58",
"% c #FFDE59",
"& c #FFDE5A",
"* c #FFDE5B",
"= c #FFDE5C",
"- c #FFE060",
"; c #FFE064",
": c #FFE16B",
"> c #FFE26E",
", c #FFE57B",
"< c #FFE57E",
"1 c #FFE784",
"2 c #FFE78A",
"3 c #FFE88E",
"4 c #FFEA94",
"5 c #FFEB97",
"6 c #FFEB9B",
"7 c #FFECA1",
"8 c #FFEDA5",
"9 c #FFEDA7",
"0 c #FFEFAF",
"q c #FFF0B5",
"w c #FFF2BB",
"e c #FFF2BE",
"r c #FFF4C7",
"t c #FFF4C8",
"y c #FFF6D2",
"u c #FFF6D4",
"i c #FFF7D4",
"p c #FFF7D6",
"a c #FFF7D8",
"s c #FFF7D9",
"d c #FFF8DA",
"f c cornsilk",
"g c #FFF8E0",
"h c #FFF9E2",
"j c #FFFAE7",
"k c #FFFCF0",
"l c #FFFCF2",
"z c #FFFDF3",
"x c #FFFEF8",
"c c #FFFEF9",
"v c #FFFEFA",
"b c #FFFEFB",
"n c #FFFEFC",
"m c #FFFFFC",
"M c #FFFEFD",
"N c #FFFFFD",
"B c #FFFFFE",
"V c white",
/* pixels */
"VVVVjsVVVVV",
"VVbV06VVVVV",
"VVVV1:VVVVV",
"srit-#wityV",
"h,X+###X>iV",
"Vb9##=+4kVV",
"VVk;OO#dVVV",
"VVe 24 9VVV",
"VV37VVq<bVV",
"VbfVVVVhkVV"
};
