/* XPM */
static char *_3b08a9f32cb4074edefddbbe048a155FHm4NB14pNBNMu0k[] = {
/* columns rows colors chars-per-pixel */
"11 10 59 1 ",
"  c #00161B",
". c #002930",
"X c #002E36",
"o c #002F37",
"O c #00333C",
"+ c #003D48",
"@ c #003D49",
"# c #00414D",
"$ c #004450",
"% c #004856",
"& c #005160",
"* c #005C6D",
"= c #007184",
"- c #007488",
"; c #007A90",
": c #007B91",
"> c #00879F",
", c #008FAC",
"< c #0091AA",
"1 c #0091AD",
"2 c #0191AD",
"3 c #0092AC",
"4 c #0192AC",
"5 c #0193AD",
"6 c #0093AE",
"7 c #0193AE",
"8 c #0092AF",
"9 c #0094AE",
"0 c #0194AE",
"q c #0095B0",
"w c #0095B1",
"e c #0395B0",
"r c #0096B1",
"t c #0096B2",
"y c #0097B2",
"u c #0197B2",
"i c #0097B3",
"p c #0E97B1",
"a c #0198B2",
"s c #0098B3",
"d c #0398B3",
"f c #0498B3",
"g c #0099B4",
"h c #0399B4",
"j c #009AB5",
"k c #039AB5",
"l c #009BB7",
"z c #0E9CB6",
"x c #0E9DB6",
"c c #009CB8",
"v c #009DB9",
"b c #009DBA",
"n c #119EB7",
"m c #61BFCF",
"M c #63C0D0",
"N c #64C0D0",
"B c #6BC3D3",
"V c #F1F9FB",
"C c #F7FCFC",
/* pixels */
"yyyyyyyyyzV",
"yysvvvgsyzV",
"ys6-;=*6yzV",
"yg<oo .6yzV",
"ys0#O@@6yzV",
"yyg;%&#0yzV",
"yyyy6>$6yzV",
"fssgggyfynV",
"66666666,pV",
"MMMMMMMNmBC"
};
