/* XPM */
static char *aibao1728283434[] = {
/* columns rows colors chars-per-pixel */
"32 32 67 1 ",
"  c black",
". c #010101",
"X c #020202",
"o c gray1",
"O c #040404",
"+ c gray2",
"@ c #070707",
"# c #090909",
"$ c gray4",
"% c #0B0B0B",
"& c #0C0C0C",
"* c gray5",
"= c #151515",
"- c gray10",
"; c gray11",
": c #202020",
"> c #272727",
", c #2A2A2A",
"< c gray17",
"1 c #2C2C2C",
"2 c gray19",
"3 c #313131",
"4 c #323232",
"5 c gray20",
"6 c #343434",
"7 c #353535",
"8 c #393939",
"9 c #3A3A3A",
"0 c gray26",
"q c #464646",
"w c gray30",
"e c gray32",
"r c gray38",
"t c #626262",
"y c #656565",
"u c DimGray",
"i c gray43",
"p c #777777",
"a c gray47",
"s c #797979",
"d c gray53",
"f c gray55",
"g c #8E8E8E",
"h c gray56",
"j c gray57",
"k c #929292",
"l c #939393",
"z c gray58",
"x c #959595",
"c c #979797",
"v c #9F9F9F",
"b c #A0A0A0",
"n c #A4A4A4",
"m c gray68",
"M c gray72",
"N c #CBCBCB",
"B c #D0D0D0",
"V c #D5D5D5",
"C c #D7D7D7",
"Z c gray85",
"A c #DDDDDD",
"S c #E2E2E2",
"D c gray92",
"F c gray94",
"G c gray97",
"H c #F9F9F9",
"J c white",
/* pixels */
"                                ",
"                                ",
"                                ",
"                                ",
"                                ",
"                                ",
"                                ",
"                   O            ",
"                                ",
"                  -5#           ",
"            &07   gJ5           ",
"           <CJJm& lJ7 O         ",
"           MJilJs cJ7           ",
"        O >Jc OZS lJ1           ",
"        O wJy  nJ fJvp#         ",
"        O eJr  bJ fJHS&         ",
"          5Jf  ND gJ8           ",
"           BD9rJl cJ5           ",
"         O qHJJC: lJ5 O         ",
"            <au=  lJ7           ",
"                O lJ5           ",
"             OO   lJ5           ",
"                  ;7#           ",
"                                ",
"                  O             ",
"                                ",
"                                ",
"                                ",
"                                ",
"                                ",
"                                ",
"                                "
};
