/* XPM */
static char *boots1728283434[] = {
/* columns rows colors chars-per-pixel */
"32 32 86 1 ",
"  c gray38",
". c #656565",
"X c gray40",
"o c #686868",
"O c DimGray",
"+ c gray42",
"@ c #6C6C6C",
"# c #6D6D6D",
"$ c gray43",
"% c #6F6F6F",
"& c gray44",
"* c #717171",
"= c #727272",
"- c gray45",
"; c #747474",
": c gray46",
"> c #767676",
", c #777777",
"< c gray47",
"1 c #797979",
"2 c gray48",
"3 c #7B7B7B",
"4 c #7C7C7C",
"5 c gray50",
"6 c #808080",
"7 c #818181",
"8 c gray51",
"9 c gray52",
"0 c #868686",
"q c gray53",
"w c gray54",
"e c #8B8B8B",
"r c gray55",
"t c #8E8E8E",
"y c gray56",
"u c #909090",
"i c #929292",
"p c #959595",
"a c gray59",
"s c #989898",
"d c gray60",
"f c gray61",
"g c #A0A0A0",
"h c #A2A2A2",
"j c gray64",
"k c gray66",
"l c #A9A9A9",
"z c gray67",
"x c #ACACAC",
"c c gray68",
"v c gray69",
"b c #B1B1B1",
"n c gray71",
"m c #B6B6B6",
"M c #B7B7B7",
"N c gray72",
"B c #B9B9B9",
"V c gray73",
"C c #BCBCBC",
"Z c gray74",
"A c gray76",
"S c gray77",
"D c #C6C6C6",
"F c #C8C8C8",
"G c #CBCBCB",
"H c gray80",
"J c LightGray",
"K c #D8D8D8",
"L c gray85",
"P c #E1E1E1",
"I c gray89",
"U c gray90",
"Y c #E6E6E6",
"T c #E7E7E7",
"R c #EEEEEE",
"E c #EFEFEF",
"W c gray94",
"Q c gray95",
"! c #F3F3F3",
"~ c #F4F4F4",
"^ c #F9F9F9",
"/ c gray98",
"( c #FBFBFB",
") c #FDFDFD",
"_ c #FEFEFE",
"` c white",
/* pixels */
"--------------------------------",
"--------------------------------",
"--------------------------------",
"--------------------------------",
"--------------------------------",
"--------------------------------",
"--------------------------------",
"------------------;;------------",
"-----------;-;;;----------------",
"-----------++++++$5r3-----------",
"----------3hhhhhl6m`i$;---------",
"---------$r(```(`xb`r.;---------",
"----------;qqP`fq;B`Bp;;--------",
"-----------$3Q`b..C``Y;---------",
"---------;$$G`R(h.C`k6;---------",
"---------$rL`GwR`mB`i+;---------",
"---------$p`D- 3Aqx`p$----------",
"-----------6+qbAABli3-----------",
"----------;$l`(YYQ`J;-----------",
"-----------;RQ3++.C`h+;---------",
"------------L`msshP`r$;---------",
"----------;$6G(((`Yh-;----------",
"-----------;$$3qw5-+------------",
"------------;-$$$$--------------",
"--------------------------------",
"--------------------------------",
"--------------------------------",
"--------------------------------",
"--------------------------------",
"--------------------------------",
"--------------------------------",
"--------------------------------"
};
