/* XPM */
static char *east1728283435[] = {
/* columns rows colors chars-per-pixel */
"32 32 100 2 ",
"   c #FF1F1F",
".  c #FF2323",
"X  c #FF2424",
"o  c #FF2626",
"O  c #FF2727",
"+  c #FF2828",
"@  c #FF2929",
"#  c #FF2A2A",
"$  c #FF2B2B",
"%  c #FF2C2C",
"&  c #FF2D2D",
"*  c #FF2E2E",
"=  c #FF2F2F",
"-  c #FF3030",
";  c #FF3131",
":  c #FF3232",
">  c #FF3333",
",  c #FF3434",
"<  c #FF3636",
"1  c #FF3939",
"2  c #FF3A3A",
"3  c #FF3B3B",
"4  c #FF3D3D",
"5  c #FF3E3E",
"6  c #FF3F3F",
"7  c #FF4040",
"8  c #FF4343",
"9  c #FF4444",
"0  c #FF4545",
"q  c #FF4949",
"w  c #FF4B4B",
"e  c #FF4C4C",
"r  c #FF4E4E",
"t  c #FF5252",
"y  c #FF5353",
"u  c #FF5555",
"i  c #FF5E5E",
"p  c #FF5F5F",
"a  c #FF6161",
"s  c #FF6262",
"d  c #FF6565",
"f  c #FF6767",
"g  c #FF6B6B",
"h  c #FF6C6C",
"j  c #FF7070",
"k  c #FF7575",
"l  c #FF7676",
"z  c #FF7777",
"x  c #FF7878",
"c  c #FF7979",
"v  c #FF7A7A",
"b  c #FF7C7C",
"n  c #FF7F7F",
"m  c #FF8282",
"M  c #FF8585",
"N  c #FF8787",
"B  c #FF8D8D",
"V  c #FF9090",
"C  c #FF9999",
"Z  c #FF9E9E",
"A  c #FFA6A6",
"S  c #FFA8A8",
"D  c #FFA9A9",
"F  c #FFABAB",
"G  c #FFAFAF",
"H  c #FFB0B0",
"J  c #FFB3B3",
"K  c #FFB4B4",
"L  c #FFB5B5",
"P  c #FFB6B6",
"I  c #FFB8B8",
"U  c #FFBABA",
"Y  c #FFBDBD",
"T  c #FFC9C9",
"R  c #FFCDCD",
"E  c #FFCECE",
"W  c #FFD1D1",
"Q  c #FFD6D6",
"!  c #FFD7D7",
"~  c #FFD8D8",
"^  c #FFD9D9",
"/  c #FFDCDC",
"(  c #FFE0E0",
")  c #FFE2E2",
"_  c #FFE7E7",
"`  c #FFE9E9",
"'  c #FFEBEB",
"]  c #FFECEC",
"[  c #FFF2F2",
"{  c #FFF3F3",
"}  c #FFF4F4",
"|  c #FFF5F5",
" . c #FFF6F6",
".. c #FFF7F7",
"X. c #FFF9F9",
"o. c snow",
"O. c #FFFBFB",
"+. c #FFFCFC",
"@. c #FFFEFE",
"#. c white",
/* pixels */
"; ; ; ; ; ; ; ; ; ; ; ; ; ; ; ; ; ; ; ; ; ; ; ; ; ; ; ; ; ; ; ; ",
"; ; ; ; ; ; ; ; ; ; ; ; ; ; ; ; ; ; ; ; ; ; ; ; ; ; ; ; ; ; ; ; ",
"; ; ; ; ; ; ; ; ; ; ; ; ; ; ; ; ; ; ; ; ; ; ; ; ; ; ; ; ; ; ; ; ",
"; ; ; ; ; ; ; ; ; ; ; ; ; ; ; ; ; ; ; ; ; ; ; ; ; ; ; ; ; ; ; ; ",
"; ; ; ; ; ; ; ; ; ; ; ; ; ; ; ; ; ; ; ; ; ; ; ; ; ; ; ; ; ; ; ; ",
"; ; ; ; ; ; ; ; ; ; ; ; ; ; ; ; ; ; ; ; ; ; ; ; ; ; ; ; ; ; ; ; ",
"; ; ; ; ; ; ; ; ; ; ; ; ; ; ; ; ; ; ; ; ; ; ; ; ; ; ; ; ; ; ; ; ",
"; ; ; ; ; ; ; ; ; ; ; ; ; ; ; ; ; ; ; ; ; ; ; ; ; ; ; ; ; ; ; ; ",
"; ; ; ; ; ; ; ; ; ; ; ; ; ; , ; , ; ; , , ; ; ; ; ; ; ; ; ; ; ; ",
"; ; ; ; ; ; ; ; ; ; ; ; # X X # X # X X & ; ; ; ; ; ; ; ; ; ; ; ",
"; ; ; ; ; ; ; ; ; ; & 6 A G P P P P J U s # ; ; ; ; ; ; ; ; ; ; ",
"; ; ; ; ; ; ; ; ; ; & q o. .! ^ ^ ^ ^ ) j X , ; ; ; ; ; ; ; ; ; ",
"; ; ; ; ; ; ; ; ; ; & 0 #.P X & & # & & ; ; ; ; ; ; ; ; ; ; ; ; ",
"; ; ; ; ; ; ; ; ; ; & e o. .! R T ^ ! ) x X , ; ; ; ; ; ; ; ; ; ",
"; ; ; ; ; ; ; ; ; ; # ; Z S S ] #.G S P i   , ; ; ; ; ; ; ; ; ; ",
"; ; ; ; ; ; ; ; , & y M x x x / #.n k k m g & ; ; ; ; ; ; ; ; ; ",
"; ; ; ; ; ; ; ; , . M #.#.#. .` ` { o.#.#.P # ; ; ; ; ; ; ; ; ; ",
"; ; ; ; ; ; ; ; ; ; 1 8 1 e k B B n u 1 8 6 ; ; ; ; ; ; ; ; ; ; ",
"; ; ; ; ; ; ; ; ; ; ; # n ` #.{ { o.{ C & ; ; ; ; ; ; ; ; ; ; ; ",
"; ; ; ; ; ; ; ; ; ; & q #.! e , , 6 Y #.h X , ; ; ; ; ; ; ; ; ; ",
"; ; ; ; ; ; ; ; ; ; & 0 { _ k i i h W #.s # ; ; ; ; ; ; ; ; ; ; ",
"; ; ; ; ; ; ; ; ; ; ; & f R o. . .o.^ x & ; ; ; ; ; ; ; ; ; ; ; ",
"; ; ; ; ; ; ; ; ; ; ; ; # & 8 y u 0 ; # ; ; ; ; ; ; ; ; ; ; ; ; ",
"; ; ; ; ; ; ; ; ; ; ; ; ; ; # & # & & , ; ; ; ; ; ; ; ; ; ; ; ; ",
"; ; ; ; ; ; ; ; ; ; ; ; ; ; ; ; ; ; ; ; ; ; ; ; ; ; ; ; ; ; ; ; ",
"; ; ; ; ; ; ; ; ; ; ; ; ; ; ; ; ; ; ; ; ; ; ; ; ; ; ; ; ; ; ; ; ",
"; ; ; ; ; ; ; ; ; ; ; ; ; ; ; ; ; ; ; ; ; ; ; ; ; ; ; ; ; ; ; ; ",
"; ; ; ; ; ; ; ; ; ; ; ; ; ; ; ; ; ; ; ; ; ; ; ; ; ; ; ; ; ; ; ; ",
"; ; ; ; ; ; ; ; ; ; ; ; ; ; ; ; ; ; ; ; ; ; ; ; ; ; ; ; ; ; ; ; ",
"; ; ; ; ; ; ; ; ; ; ; ; ; ; ; ; ; ; ; ; ; ; ; ; ; ; ; ; ; ; ; ; ",
"; ; ; ; ; ; ; ; ; ; ; ; ; ; ; ; ; ; ; ; ; ; ; ; ; ; ; ; ; ; ; ; ",
"; ; ; ; ; ; ; ; ; ; ; ; ; ; ; ; ; ; ; ; ; ; ; ; ; ; ; ; ; ; ; ; "
};
