/* XPM */
static char *kangbao1728283435[] = {
/* columns rows colors chars-per-pixel */
"32 32 87 1 ",
"  c #5B5B5B",
". c #5F5F5F",
"X c #606060",
"o c #626262",
"O c #646464",
"+ c gray40",
"@ c #686868",
"# c DimGray",
"$ c #6A6A6A",
"% c gray42",
"& c #6C6C6C",
"* c #6D6D6D",
"= c gray43",
"- c #6F6F6F",
"; c gray44",
": c #717171",
"> c #727272",
", c gray45",
"< c #747474",
"1 c gray46",
"2 c #777777",
"3 c gray47",
"4 c #797979",
"5 c #7B7B7B",
"6 c #7C7C7C",
"7 c gray49",
"8 c #7E7E7E",
"9 c #808080",
"0 c gray51",
"q c #868686",
"w c gray53",
"e c gray55",
"r c gray56",
"t c #909090",
"y c gray57",
"u c #929292",
"i c #939393",
"p c gray58",
"a c #959595",
"s c #989898",
"d c gray60",
"f c #9B9B9B",
"g c #9D9D9D",
"h c #A0A0A0",
"j c gray64",
"k c #A5A5A5",
"l c gray65",
"z c #A9A9A9",
"x c #ACACAC",
"c c gray68",
"v c gray69",
"b c gray70",
"n c gray71",
"m c gray73",
"M c #BBBBBB",
"N c #BCBCBC",
"B c gray74",
"V c gray",
"C c gray75",
"Z c #C0C0C0",
"A c #C3C3C3",
"S c gray77",
"D c #C5C5C5",
"F c #C8C8C8",
"G c gray79",
"H c #CACACA",
"J c gray82",
"K c LightGray",
"L c #DFDFDF",
"P c #E1E1E1",
"I c #E2E2E2",
"U c #E4E4E4",
"Y c #E6E6E6",
"T c #E7E7E7",
"R c #E9E9E9",
"E c #EAEAEA",
"W c gray93",
"Q c #EFEFEF",
"! c gray94",
"~ c #F6F6F6",
"^ c gray97",
"/ c gray98",
"( c #FBFBFB",
") c gray99",
"_ c #FDFDFD",
"` c #FEFEFE",
"' c white",
/* pixels */
",,,,,,,,,,,,,,,,,,,,,,,,,,,,,,,,",
",,,,,,,,,,,,,,,,,,,,,,,,,,,,,,,,",
",,,,,,,,,,,,,,,,,,,,,,,,,,,,,,,,",
",,,,,,,,,,,,,,,,,,,,,,,,,,,,,,,,",
",,,,,,,,,,,,,,,,,,,,,,,,,,,,,,,,",
",,,,,,,,,,,,,,,,,,,,,,,,,,,,,,,,",
",,,,,,,,,,,,,,,,,,,,,,,,,,,,,,,,",
",,,,,,,,,,,,,,,,,,<<,,,,,,,,,,,,",
",,,,,,,,,,,<,<<<<,,&,,,,,,,,,,,,",
",,,,,,,,,,,&$$$&&,7r3,,,,,,,,,,,",
",,,,,,,,,,<hllllg$M'p&<,,,,,,,,,",
",,,,,,,,,,3!''/'P$M'y+<,,,,,,,,,",
",,,,,,,,,,,0q7h'SoV'ny<<,,,,,,,,",
",,,,,,,,,,,,&$J'doV''T<,,,,,,,,,",
",,,,,,,,,<,$7H'S,+M'cq<,,,,,,,,,",
",,,,,,,,,&qVQ'H,,$V'y$<,,,,,,,,,",
",,,,,,,,<&p'Td+,<+x/y&<,,,,,,,,,",
",,,,,,,,,,,q&yJEQLVq,,,,,,,,,,,,",
",,,,,,,,,,,$b'ESVJ'T7,<,,,,,,,,,",
",,,,,,,,,,,,T~,.+ b'l$<,,,,,,,,,",
",,,,,,,,,,<&H'ZddxE'e&<,,,,,,,,,",
",,,,,,,,,,<,3Z/'/'Pd&<,,,,,,,,,,",
",,,,,,,,,,,<,$<ee7,&<<,,,,,,,,,,",
",,,,,,,,,,,,,<,&&&<<<<,,,,,,,,,,",
",,,,,,,,,,,,,,,,,,,,,,,,,,,,,,,,",
",,,,,,,,,,,,,,,,,,,,,,,,,,,,,,,,",
",,,,,,,,,,,,,,,,,,,,,,,,,,,,,,,,",
",,,,,,,,,,,,,,,,,,,,,,,,,,,,,,,,",
",,,,,,,,,,,,,,,,,,,,,,,,,,,,,,,,",
",,,,,,,,,,,,,,,,,,,,,,,,,,,,,,,,",
",,,,,,,,,,,,,,,,,,,,,,,,,,,,,,,,",
",,,,,,,,,,,,,,,,,,,,,,,,,,,,,,,,"
};
