/* XPM */
static char *lebao1728283435[] = {
/* columns rows colors chars-per-pixel */
"32 32 68 1 ",
"  c black",
". c #010101",
"X c #020202",
"o c gray1",
"O c gray2",
"+ c #060606",
"@ c #070707",
"# c gray4",
"$ c #0B0B0B",
"% c #0C0C0C",
"& c #0E0E0E",
"* c gray7",
"= c #202020",
"- c gray13",
"; c #222222",
": c #232323",
"> c gray15",
", c #272727",
"< c gray17",
"1 c #2D2D2D",
"2 c #313131",
"3 c gray22",
"4 c #3C3C3C",
"5 c #464646",
"6 c #484848",
"7 c #4E4E4E",
"8 c gray31",
"9 c gray32",
"0 c gray33",
"q c #565656",
"w c gray35",
"e c #5B5B5B",
"r c #6A6A6A",
"t c gray43",
"y c gray49",
"u c gray50",
"i c #808080",
"p c #818181",
"a c #838383",
"s c #868686",
"d c #888888",
"f c gray55",
"g c #8D8D8D",
"h c #B1B1B1",
"j c gray77",
"k c #C8C8C8",
"l c gray79",
"z c gray82",
"x c #D2D2D2",
"c c gray84",
"v c #DDDDDD",
"b c gray89",
"n c gray90",
"m c #E6E6E6",
"M c gray91",
"N c #E9E9E9",
"B c #EAEAEA",
"V c gray93",
"C c #EEEEEE",
"Z c gray94",
"A c #F1F1F1",
"S c #F6F6F6",
"D c gray97",
"F c gray98",
"G c #FBFBFB",
"H c #FDFDFD",
"J c #FEFEFE",
"K c white",
/* pixels */
"                                ",
"                                ",
"                                ",
"                                ",
"                                ",
"                                ",
"                                ",
"                   O            ",
"                                ",
"                   <<           ",
"          O*--->* OnlO O        ",
"        O *DKGDKu &Bc           ",
"          O9w8uKp &nc           ",
"              4Kp #BcO          ",
"          &kvnCKppkKx           ",
"          &Dndsg5gjKxO          ",
"          #Kh     OBc  O        ",
"          #Kj<35r1 BcO          ",
"          &AKKKGKr Cc  O        ",
"          Oqw994>OOBc           ",
"                  OBc           ",
"           OO  O  OnxO          ",
"                   21           ",
"                                ",
"                                ",
"                                ",
"                                ",
"                                ",
"                                ",
"                                ",
"                                ",
"                                "
};
